<?xml version="1.0" encoding="UTF-8" standalone="no"?>
<!-- Created with Inkscape (http://www.inkscape.org/) -->

<svg
   xmlns:dc="http://purl.org/dc/elements/1.1/"
   xmlns:cc="http://creativecommons.org/ns#"
   xmlns:rdf="http://www.w3.org/1999/02/22-rdf-syntax-ns#"
   xmlns:svg="http://www.w3.org/2000/svg"
   xmlns="http://www.w3.org/2000/svg"
   xmlns:sodipodi="http://sodipodi.sourceforge.net/DTD/sodipodi-0.dtd"
   xmlns:inkscape="http://www.inkscape.org/namespaces/inkscape"
   width="400"
   height="300"
   id="svg7546"
   version="1.1"
   inkscape:version="0.47 r22583"
   sodipodi:docname="motor-model.svg">
  <sodipodi:namedview
     id="base"
     pagecolor="#ffffff"
     bordercolor="#666666"
     borderopacity="1.0"
     inkscape:pageopacity="0.0"
     inkscape:pageshadow="2"
     inkscape:zoom="0.98994949"
     inkscape:cx="371.9453"
     inkscape:cy="209.16157"
     inkscape:document-units="px"
     inkscape:current-layer="layer1"
     showgrid="true"
     showguides="true"
     inkscape:guide-bbox="true"
     inkscape:window-width="1024"
     inkscape:window-height="712"
     inkscape:window-x="-4"
     inkscape:window-y="-4"
     inkscape:window-maximized="1">
    <inkscape:grid
       type="xygrid"
       id="grid7556"
       empspacing="5"
       visible="true"
       enabled="true"
       snapvisiblegridlinesonly="true"
       spacingx="5px"
       spacingy="5px" />
    <inkscape:grid
       type="xygrid"
       id="grid8232"
       empspacing="5"
       visible="false"
       enabled="true"
       snapvisiblegridlinesonly="true"
       spacingx="2.5px"
       spacingy="2.5px" />
    <sodipodi:guide
       orientation="0,1"
       position="300,137.5"
       id="guide8234" />
    <sodipodi:guide
       orientation="0,1"
       position="225,162.5"
       id="guide8236" />
  </sodipodi:namedview>
  <defs
     id="defs7548">
    <marker
       inkscape:stockid="Torso"
       orient="auto"
       refY="0.0"
       refX="0.0"
       id="Torso"
       style="overflow:visible">
      <g
         id="g6136"
         transform="scale(0.7)">
        <path
           id="path6138"
           d="M -4.7792281,-3.2395420 C -2.4288541,-2.8736027 0.52103922,-1.3019943 0.25792722,0.38794346 C -0.0051877922,2.0778819 -2.2126741,2.6176539 -4.5630471,2.2517169 C -6.9134221,1.8857769 -8.5210350,0.75201414 -8.2579220,-0.93792336 C -7.9948090,-2.6278615 -7.1296041,-3.6054813 -4.7792281,-3.2395420 z "
           style="fill:none;fill-opacity:0.75000000;fill-rule:evenodd;stroke:#000000;stroke-width:1.2500000;marker-start:none;marker-mid:none;marker-end:none" />
        <path
           id="path6140"
           d="M 4.4598789,0.088665736 C -2.5564571,-4.3783320 5.2248769,-3.9061806 -0.84829578,-8.7197331"
           style="fill:none;fill-opacity:0.75000000;fill-rule:evenodd;stroke:#000000;stroke-width:1.0000000pt;marker-end:none" />
        <path
           id="path6142"
           d="M 4.9298719,0.057520736 C -1.3872731,1.7494689 1.8027579,5.4782079 -4.9448731,7.5462725"
           style="fill:none;fill-opacity:0.75000000;fill-rule:evenodd;stroke:#000000;stroke-width:1.0000000pt;marker-start:none;marker-end:none" />
        <rect
           id="rect6144"
           transform="matrix(0.527536,-0.849533,0.887668,0.460484,0,0)"
           y="-1.7408575"
           x="-10.391706"
           height="2.7608147"
           width="2.6366582"
           style="fill-rule:evenodd;stroke-width:1.0000000pt;marker-end:none" />
        <rect
           id="rect6146"
           transform="matrix(0.671205,-0.741272,0.790802,0.612072,0,0)"
           y="-7.9629307"
           x="4.9587269"
           height="2.8614161"
           width="2.7327356"
           style="fill-rule:evenodd;stroke-width:1.0000000pt;marker-end:none" />
        <path
           id="path6148"
           transform="matrix(0,-1.109517,1.109517,0,25.96648,19.71619)"
           d="m 16.779951,-28.685045 c 0,0.335412 -0.271905,0.607317 -0.607317,0.607317 -0.335412,0 -0.607317,-0.271905 -0.607317,-0.607317 0,-0.335412 0.271905,-0.607318 0.607317,-0.607318 0.335412,0 0.607317,0.271906 0.607317,0.607318 z"
           sodipodi:ry="0.60731727"
           sodipodi:rx="0.60731727"
           sodipodi:cy="-28.685045"
           sodipodi:cx="16.172634"
           style="fill:#ff0000;fill-opacity:0.75000000;fill-rule:evenodd;stroke:#000000;stroke-width:1.0000000pt;marker-start:none;marker-end:none"
           sodipodi:type="arc" />
        <path
           id="path6150"
           transform="matrix(0,-1.109517,1.109517,0,26.82450,16.99126)"
           d="m 16.779951,-28.685045 c 0,0.335412 -0.271905,0.607317 -0.607317,0.607317 -0.335412,0 -0.607317,-0.271905 -0.607317,-0.607317 0,-0.335412 0.271905,-0.607318 0.607317,-0.607318 0.335412,0 0.607317,0.271906 0.607317,0.607318 z"
           sodipodi:ry="0.60731727"
           sodipodi:rx="0.60731727"
           sodipodi:cy="-28.685045"
           sodipodi:cx="16.172634"
           style="fill:#ff0000;fill-opacity:0.75000000;fill-rule:evenodd;stroke:#000000;stroke-width:1.0000000pt;marker-start:none;marker-end:none"
           sodipodi:type="arc" />
      </g>
    </marker>
    <marker
       inkscape:stockid="Arrow1Lend"
       orient="auto"
       refY="0.0"
       refX="0.0"
       id="Arrow1Lend"
       style="overflow:visible;">
      <path
         id="path5926"
         d="M 0.0,0.0 L 5.0,-5.0 L -12.5,0.0 L 5.0,5.0 L 0.0,0.0 z "
         style="fill-rule:evenodd;stroke:#000000;stroke-width:1.0pt;marker-start:none;"
         transform="scale(0.8) rotate(180) translate(12.5,0)" />
    </marker>
    <marker
       inkscape:stockid="Arrow1Lstart"
       orient="auto"
       refY="0.0"
       refX="0.0"
       id="Arrow1Lstart"
       style="overflow:visible">
      <path
         id="path5923"
         d="M 0.0,0.0 L 5.0,-5.0 L -12.5,0.0 L 5.0,5.0 L 0.0,0.0 z "
         style="fill-rule:evenodd;stroke:#000000;stroke-width:1.0pt;marker-start:none"
         transform="scale(0.8) translate(12.5,0)" />
    </marker>
    <inkscape:perspective
       sodipodi:type="inkscape:persp3d"
       inkscape:vp_x="0 : 526.18109 : 1"
       inkscape:vp_y="0 : 1000 : 0"
       inkscape:vp_z="744.09448 : 526.18109 : 1"
       inkscape:persp3d-origin="372.04724 : 350.78739 : 1"
       id="perspective7554" />
    <inkscape:perspective
       id="perspective7568"
       inkscape:persp3d-origin="0.5 : 0.33333333 : 1"
       inkscape:vp_z="1 : 0.5 : 1"
       inkscape:vp_y="0 : 1000 : 0"
       inkscape:vp_x="0 : 0.5 : 1"
       sodipodi:type="inkscape:persp3d" />
    <inkscape:perspective
       id="perspective7590"
       inkscape:persp3d-origin="0.5 : 0.33333333 : 1"
       inkscape:vp_z="1 : 0.5 : 1"
       inkscape:vp_y="0 : 1000 : 0"
       inkscape:vp_x="0 : 0.5 : 1"
       sodipodi:type="inkscape:persp3d" />
    <inkscape:perspective
       id="perspective7615"
       inkscape:persp3d-origin="0.5 : 0.33333333 : 1"
       inkscape:vp_z="1 : 0.5 : 1"
       inkscape:vp_y="0 : 1000 : 0"
       inkscape:vp_x="0 : 0.5 : 1"
       sodipodi:type="inkscape:persp3d" />
    <inkscape:perspective
       id="perspective7639"
       inkscape:persp3d-origin="0.5 : 0.33333333 : 1"
       inkscape:vp_z="1 : 0.5 : 1"
       inkscape:vp_y="0 : 1000 : 0"
       inkscape:vp_x="0 : 0.5 : 1"
       sodipodi:type="inkscape:persp3d" />
    <inkscape:perspective
       id="perspective7661"
       inkscape:persp3d-origin="0.5 : 0.33333333 : 1"
       inkscape:vp_z="1 : 0.5 : 1"
       inkscape:vp_y="0 : 1000 : 0"
       inkscape:vp_x="0 : 0.5 : 1"
       sodipodi:type="inkscape:persp3d" />
    <inkscape:perspective
       id="perspective7686"
       inkscape:persp3d-origin="0.5 : 0.33333333 : 1"
       inkscape:vp_z="1 : 0.5 : 1"
       inkscape:vp_y="0 : 1000 : 0"
       inkscape:vp_x="0 : 0.5 : 1"
       sodipodi:type="inkscape:persp3d" />
    <inkscape:perspective
       id="perspective7708"
       inkscape:persp3d-origin="0.5 : 0.33333333 : 1"
       inkscape:vp_z="1 : 0.5 : 1"
       inkscape:vp_y="0 : 1000 : 0"
       inkscape:vp_x="0 : 0.5 : 1"
       sodipodi:type="inkscape:persp3d" />
    <inkscape:perspective
       id="perspective9823"
       inkscape:persp3d-origin="0.5 : 0.33333333 : 1"
       inkscape:vp_z="1 : 0.5 : 1"
       inkscape:vp_y="0 : 1000 : 0"
       inkscape:vp_x="0 : 0.5 : 1"
       sodipodi:type="inkscape:persp3d" />
  </defs>
  <metadata
     id="metadata7551">
    <rdf:RDF>
      <cc:Work
         rdf:about="">
        <dc:format>image/svg+xml</dc:format>
        <dc:type
           rdf:resource="http://purl.org/dc/dcmitype/StillImage" />
        <dc:title />
      </cc:Work>
    </rdf:RDF>
  </metadata>
  <g
     inkscape:label="レイヤー 1"
     inkscape:groupmode="layer"
     id="layer1"
     transform="translate(0,-752.36218)">
    <path
       sodipodi:nodetypes="ccscscc"
       d="m 107.18571,852.36218 c 0,0 0,0 0,0 -5.52285,0 -9.999996,22.38576 -9.999996,50 0,27.61424 4.477146,50 9.999996,50 l 100,0 0,-100 -100,0"
       style="fill:#ffffff;fill-opacity:1;stroke:#000000;stroke-width:1px;stroke-linecap:butt;stroke-linejoin:miter;stroke-opacity:1"
       id="path8240" />
    <path
       sodipodi:type="arc"
       style="fill:#ffffff;fill-opacity:1;stroke:#000000;stroke-width:1;stroke-miterlimit:4;stroke-opacity:1;stroke-dasharray:none;stroke-dashoffset:0"
       id="path7629-0"
       sodipodi:cx="110"
       sodipodi:cy="125"
       sodipodi:rx="10"
       sodipodi:ry="50"
       d="m 120,125 a 10,50 0 1 1 -20,0 10,50 0 1 1 20,0 z"
       transform="translate(97.185714,777.36218)" />
    <path
       id="path8250"
       style="fill:#ffffff;fill-opacity:1;stroke:#000000;stroke-width:1px;stroke-linecap:butt;stroke-linejoin:miter;stroke-opacity:1"
       d="m 207.18571,889.86218 c 0,0 0,0 0,0 -1.38071,0 -2.5,5.59644 -2.5,12.5 0,6.90356 1.11929,12.5 2.5,12.5 l 45,0 0,-25 -45,0"
       sodipodi:nodetypes="ccscccc" />
    <path
       id="path8244"
       style="fill:#ffffff;fill-opacity:1;stroke:#000000;stroke-width:1px;stroke-linecap:butt;stroke-linejoin:miter;stroke-opacity:1"
       d="m 267.18571,802.36218 c 0,0 0,0 0,0 -11.0457,0 -20,44.77153 -20,100 0,55.22848 8.95431,100.00002 20,100.00002 l 15,0 0,-200.00002 -15,0"
       sodipodi:nodetypes="ccscscc" />
    <path
       sodipodi:type="arc"
       style="fill:#ffffff;fill-opacity:1;stroke:#000000;stroke-width:1;stroke-miterlimit:4;stroke-opacity:1;stroke-dasharray:none;stroke-dashoffset:0"
       id="path7629-0-5"
       sodipodi:cx="110"
       sodipodi:cy="125"
       sodipodi:rx="20"
       sodipodi:ry="100"
       d="m 130,125 a 20,100 0 1 1 -40,0 20,100 0 1 1 40,0 z"
       transform="translate(172.18571,777.36218)" />
    <path
       style="fill:none;stroke:#000000;stroke-width:1;stroke-linecap:butt;stroke-linejoin:miter;stroke-miterlimit:4;stroke-opacity:1;stroke-dasharray:4, 2, 1, 2;stroke-dashoffset:0"
       d="m 57.185714,902.36218 274.999996,0"
       id="path8246" />
    <path
       style="fill:none;stroke:#000000;stroke-width:1px;stroke-linecap:butt;stroke-linejoin:miter;stroke-opacity:1"
       d="m 212.18571,1002.3622 125,0"
       id="path8254" />
    <path
       style="fill:none;stroke:#000000;stroke-width:1px;stroke-linecap:butt;stroke-linejoin:miter;stroke-opacity:1;marker-start:url(#Arrow1Lstart);marker-end:url(#Arrow1Lend)"
       d="m 322.18571,902.36218 0,100.00002"
       id="path8256" />
    <path
       sodipodi:type="arc"
       style="fill:none;stroke:#000000;stroke-width:1;stroke-miterlimit:4;stroke-opacity:1;stroke-dasharray:none;stroke-dashoffset:0;marker-start:url(#Arrow1Lstart);marker-end:none"
       id="path8258"
       sodipodi:cx="250"
       sodipodi:cy="125"
       sodipodi:rx="5"
       sodipodi:ry="25"
       d="m 245.43809,135.23351 a 5,25 0 0 1 7.99603,-28.40411"
       transform="translate(-17.814286,777.36218)"
       sodipodi:start="2.7198617"
       sodipodi:end="5.4694989"
       sodipodi:open="true" />
    <path
       sodipodi:type="arc"
       style="fill:none;stroke:#000000;stroke-width:1;stroke-miterlimit:4;stroke-opacity:1;stroke-dasharray:none;stroke-dashoffset:0;marker-start:url(#Arrow1Lstart);marker-end:none"
       id="path7629-0-5-9"
       sodipodi:cx="110"
       sodipodi:cy="125"
       sodipodi:rx="20"
       sodipodi:ry="100"
       d="M 97.842232,204.40225 A 20,100 0 0 1 93.085306,178.36036"
       transform="translate(164.68571,777.36218)"
       sodipodi:start="2.2241948"
       sodipodi:end="2.5787369"
       sodipodi:open="true" />
    <g
       transform="matrix(5,0,0,5,-62.507145,752.8979)"
       id="g10950">
      <g
         style="font-style:normal;font-variant:normal;font-weight:normal;font-stretch:normal;letter-spacing:normal;word-spacing:normal;text-anchor:start;fill:none;stroke:#000000;stroke-linecap:butt;stroke-linejoin:miter;stroke-miterlimit:10.43299961;stroke-opacity:1;stroke-dasharray:none;stroke-dashoffset:0"
         word-spacing="normal"
         letter-spacing="normal"
         font-size-adjust="none"
         font-stretch="normal"
         font-weight="normal"
         font-variant="normal"
         font-style="normal"
         stroke-miterlimit="10.433"
         xml:space="preserve"
         transform="matrix(0.42857143,0,0,-0.42857143,-75,300)"
         id="g10952"><path
           style="fill:#000000;stroke-width:0"
           id="path10954"
           d="m 296.25,651.05 0.01,0.01 0,0.01 0.01,0.03 0,0.02 0.01,0.02 0,0.02 0.01,0.02 0.01,0.02 0,0.02 0.01,0.02 0,0.01 0.01,0.02 0.01,0.01 0,0.01 0.01,0.01 0,0.02 0.01,0.01 0.01,0.01 0,0 0.01,0.01 0.01,0.01 0,0.01 0.01,0 0.01,0.01 0.01,0 0.01,0.01 0,0 0.01,0.01 0.01,0 0.01,0.01 0.01,0 0.01,0 0.01,0 c 0.09,0.03 0.42,0.03 0.63,0.03 1.01,0 1.46,-0.04 1.46,-0.82 0,-0.15 -0.04,-0.54 -0.09,-0.8 0,-0.04 -0.02,-0.16 -0.02,-0.19 0,-0.06 0.02,-0.13 0.11,-0.13 0.11,0 0.13,0.08 0.16,0.23 l 0.26,1.74 c 0.01,0.03 0.03,0.13 0.03,0.17 0,0.11 -0.11,0.11 -0.27,0.11 h -5.54 c -0.23,0 -0.25,-0.02 -0.31,-0.2 l -0.6,-1.76 c -0.01,-0.02 -0.06,-0.16 -0.06,-0.18 0,-0.06 0.05,-0.11 0.12,-0.11 0.1,0 0.11,0.05 0.17,0.21 0.54,1.55 0.79,1.73 2.27,1.73 h 0.39 c 0.28,0 0.28,-0.04 0.28,-0.12 0,-0.06 -0.03,-0.18 -0.04,-0.22 l -1.34,-5.32 c -0.09,-0.36 -0.12,-0.47 -1.18,-0.47 -0.36,0 -0.42,0 -0.42,-0.19 0,-0.12 0.11,-0.12 0.17,-0.12 0.27,0 0.55,0.02 0.81,0.02 h 1.68 c 0.29,0 0.58,-0.02 0.87,-0.02 0.09,0 0.21,0 0.21,0.2 0,0.11 -0.07,0.11 -0.34,0.11 -0.25,0 -0.37,0 -0.63,0.02 -0.29,0.03 -0.37,0.06 -0.37,0.22 0,0.01 0,0.06 0.04,0.21 z" /><path
           style="fill:#000000;stroke-width:0"
           id="path10956"
           d="m 301.5,646.38 0.06,0.01 0.06,0.02 0.06,0.02 0.05,0.02 0.06,0.02 0.06,0.02 0.06,0.02 0.05,0.03 0.06,0.02 0.05,0.03 0.05,0.03 0.05,0.03 0.05,0.03 0.05,0.03 0.05,0.04 0.04,0.03 0.05,0.04 0.04,0.04 0.04,0.04 0.04,0.04 0.03,0.04 0.03,0.04 0.03,0.04 0.03,0.05 0.02,0.04 0.03,0.05 0.01,0.05 0.02,0.05 0.01,0.05 0.01,0.05 0.01,0.05 0,0.05 c 0,0.7 -0.92,1.26 -2.01,1.26 h -2.34 v -0.25 h 0.16 c 0.54,0 0.55,-0.07 0.55,-0.31 v -3.63 c 0,-0.24 -0.01,-0.32 -0.55,-0.32 h -0.16 V 644 h 2.07 v 0.25 h -0.17 c -0.54,0 -0.55,0.07 -0.55,0.32 v 1.72 0.19 1.76 c 0,0.19 0.01,0.24 0.19,0.26 0.05,0.01 0.29,0.01 0.44,0.01 0.66,0 1.62,0 1.62,-1.01 0,-0.78 -0.61,-1.02 -1.35,-1.02 h 0 -0.9 v -0.19 h 0.92 c 0.13,0 0.49,0 0.8,-0.29 0.24,-0.22 0.24,-0.39 0.24,-0.85 0,-0.46 0,-0.74 0.32,-1.01 0.3,-0.24 0.72,-0.28 0.91,-0.28 0.59,0 0.75,0.57 0.75,0.77 0,0.05 0,0.14 -0.12,0.14 -0.11,0 -0.11,-0.07 -0.12,-0.14 -0.03,-0.4 -0.26,-0.58 -0.48,-0.58 -0.4,0 -0.45,0.42 -0.54,1.05 -0.07,0.56 -0.1,0.67 -0.3,0.9 -0.07,0.08 -0.26,0.26 -0.64,0.38 z" /><path
           style="fill:#000000;stroke-width:0"
           id="path10958"
           d="m 306.02,645.01 0,0.06 0,0.06 0,0.06 -0.01,0.06 0,0.05 -0.01,0.05 -0.01,0.05 -0.01,0.05 -0.01,0.05 -0.02,0.04 -0.01,0.05 -0.02,0.04 -0.01,0.04 -0.02,0.04 -0.02,0.04 -0.02,0.03 -0.02,0.03 -0.02,0.03 -0.03,0.03 -0.02,0.03 -0.03,0.02 -0.02,0.03 -0.03,0.02 -0.03,0.01 -0.03,0.02 -0.03,0.01 -0.03,0.02 -0.03,0.01 -0.04,0 -0.03,0.01 -0.04,0 -0.03,0 c -0.34,0 -0.53,-0.24 -0.53,-0.52 0,-0.27 0.19,-0.53 0.53,-0.53 0.11,0 0.24,0.04 0.34,0.13 0.03,0.02 0.04,0.03 0.06,0.03 0,0 0.01,-0.01 0.01,-0.15 0,-0.74 -0.35,-1.33 -0.67,-1.66 -0.11,-0.11 -0.11,-0.13 -0.11,-0.16 0,-0.07 0.05,-0.11 0.1,-0.11 0.11,0 0.9,0.76 0.9,1.93 z" /><path
           style="fill:#000000;stroke-width:0"
           id="path10960"
           d="m 312.25,651.05 0.01,0.01 0,0.01 0.01,0.03 0,0.02 0.01,0.02 0,0.02 0.01,0.02 0.01,0.02 0,0.02 0.01,0.02 0,0.01 0.01,0.02 0.01,0.01 0,0.01 0.01,0.01 0,0.02 0.01,0.01 0.01,0.01 0,0 0.01,0.01 0.01,0.01 0,0.01 0.01,0 0.01,0.01 0.01,0 0.01,0.01 0,0 0.01,0.01 0.01,0 0.01,0.01 0.01,0 0.01,0 0.01,0 c 0.09,0.03 0.42,0.03 0.63,0.03 1.01,0 1.46,-0.04 1.46,-0.82 0,-0.15 -0.04,-0.54 -0.09,-0.8 0,-0.04 -0.02,-0.16 -0.02,-0.19 0,-0.06 0.02,-0.13 0.11,-0.13 0.11,0 0.13,0.08 0.16,0.23 l 0.26,1.74 c 0.01,0.03 0.03,0.13 0.03,0.17 0,0.11 -0.11,0.11 -0.27,0.11 h -5.54 c -0.23,0 -0.25,-0.02 -0.31,-0.2 l -0.6,-1.76 c -0.01,-0.02 -0.06,-0.16 -0.06,-0.18 0,-0.06 0.05,-0.11 0.12,-0.11 0.1,0 0.11,0.05 0.17,0.21 0.54,1.55 0.79,1.73 2.27,1.73 h 0.39 c 0.28,0 0.28,-0.04 0.28,-0.12 0,-0.06 -0.03,-0.18 -0.04,-0.22 l -1.34,-5.32 c -0.09,-0.36 -0.12,-0.47 -1.18,-0.47 -0.36,0 -0.42,0 -0.42,-0.19 0,-0.12 0.11,-0.12 0.17,-0.12 0.27,0 0.55,0.02 0.81,0.02 h 1.68 c 0.29,0 0.58,-0.02 0.87,-0.02 0.09,0 0.21,0 0.21,0.2 0,0.11 -0.07,0.11 -0.34,0.11 -0.25,0 -0.37,0 -0.63,0.02 -0.29,0.03 -0.37,0.06 -0.37,0.22 0,0.01 0,0.06 0.04,0.21 z" /><path
           style="fill:#000000;stroke-width:0"
           id="path10962"
           d="m 318.54,645.84 h -0.24 c -0.07,-0.69 -0.18,-1.59 -1.5,-1.59 h -0.69 c -0.33,0 -0.34,0.06 -0.34,0.27 v 3.67 c 0,0.23 0,0.32 0.66,0.32 h 0.24 v 0.25 h -2.28 v -0.25 h 0.17 c 0.53,0 0.55,-0.07 0.55,-0.31 v -3.63 c 0,-0.24 -0.02,-0.32 -0.55,-0.32 h -0.17 V 644 h 3.94 z" /></g>    </g>
    <g
       transform="matrix(5,0,0,5,-54.74286,860.96933)"
       id="g11068">
      <g
         style="font-style:normal;font-variant:normal;font-weight:normal;font-stretch:normal;letter-spacing:normal;word-spacing:normal;text-anchor:start;fill:none;stroke:#000000;stroke-linecap:butt;stroke-linejoin:miter;stroke-miterlimit:10.43299961;stroke-opacity:1;stroke-dasharray:none;stroke-dashoffset:0"
         id="g11070"
         transform="matrix(0.42857143,0,0,-0.42857143,-75,300)"
         xml:space="preserve"
         stroke-miterlimit="10.433"
         font-style="normal"
         font-variant="normal"
         font-weight="normal"
         font-stretch="normal"
         font-size-adjust="none"
         letter-spacing="normal"
         word-spacing="normal"><path
           style="fill:#000000;stroke-width:0"
           d="m 296.66,648.98 h 0.85 c 0.2,0 0.3,0 0.3,0.2 0,0.11 -0.1,0.11 -0.27,0.11 h -0.83 l 0.22,1.14 c 0.03,0.21 0.18,0.92 0.23,1.04 0.09,0.19 0.26,0.33 0.47,0.33 0.04,0 0.3,0 0.49,-0.17 -0.44,-0.04 -0.54,-0.39 -0.54,-0.54 0,-0.23 0.18,-0.35 0.37,-0.35 0.26,0 0.55,0.22 0.55,0.6 0,0.45 -0.46,0.68 -0.87,0.68 -0.34,0 -0.96,-0.18 -1.26,-1.16 -0.06,-0.21 -0.09,-0.31 -0.33,-1.57 h -0.69 c -0.19,0 -0.3,0 -0.3,-0.19 0,-0.12 0.09,-0.12 0.28,-0.12 h 0.66 l -0.75,-3.93 c -0.18,-0.97 -0.35,-1.87 -0.86,-1.87 -0.04,0 -0.29,0 -0.48,0.17 0.46,0.04 0.55,0.4 0.55,0.55 0,0.23 -0.18,0.34 -0.38,0.34 -0.25,0 -0.54,-0.22 -0.54,-0.59 0,-0.45 0.43,-0.69 0.85,-0.69 0.54,0 0.94,0.59 1.12,0.97 0.32,0.62 0.55,1.83 0.56,1.9 z"
           id="path11072" /><path
           style="fill:#000000;stroke-width:0"
           d="m 301.5,646.38 0.06,0.01 0.06,0.02 0.06,0.02 0.05,0.02 0.06,0.02 0.06,0.02 0.06,0.02 0.05,0.03 0.06,0.02 0.05,0.03 0.05,0.03 0.05,0.03 0.05,0.03 0.05,0.03 0.05,0.04 0.04,0.03 0.05,0.04 0.04,0.04 0.04,0.04 0.04,0.04 0.03,0.04 0.03,0.04 0.03,0.04 0.03,0.05 0.02,0.04 0.03,0.05 0.01,0.05 0.02,0.05 0.01,0.05 0.01,0.05 0.01,0.05 0,0.05 c 0,0.7 -0.92,1.26 -2.01,1.26 h -2.34 v -0.25 h 0.16 c 0.54,0 0.55,-0.07 0.55,-0.31 v -3.63 c 0,-0.24 -0.01,-0.32 -0.55,-0.32 h -0.16 V 644 h 2.07 v 0.25 h -0.17 c -0.54,0 -0.55,0.07 -0.55,0.32 v 1.72 0.19 1.76 c 0,0.19 0.01,0.24 0.19,0.26 0.05,0.01 0.29,0.01 0.44,0.01 0.66,0 1.62,0 1.62,-1.01 0,-0.78 -0.61,-1.02 -1.35,-1.02 h 0 -0.9 v -0.19 h 0.92 c 0.13,0 0.49,0 0.8,-0.29 0.24,-0.22 0.24,-0.39 0.24,-0.85 0,-0.46 0,-0.74 0.32,-1.01 0.3,-0.24 0.72,-0.28 0.91,-0.28 0.59,0 0.75,0.57 0.75,0.77 0,0.05 0,0.14 -0.12,0.14 -0.11,0 -0.11,-0.07 -0.12,-0.14 -0.03,-0.4 -0.26,-0.58 -0.48,-0.58 -0.4,0 -0.45,0.42 -0.54,1.05 -0.07,0.56 -0.1,0.67 -0.3,0.9 -0.07,0.08 -0.26,0.26 -0.64,0.38 z"
           id="path11074" /><path
           style="fill:#000000;stroke-width:0"
           d="m 306.02,645.01 0,0.06 0,0.06 0,0.06 -0.01,0.06 0,0.05 -0.01,0.05 -0.01,0.05 -0.01,0.05 -0.01,0.05 -0.02,0.04 -0.01,0.05 -0.02,0.04 -0.01,0.04 -0.02,0.04 -0.02,0.04 -0.02,0.03 -0.02,0.03 -0.02,0.03 -0.03,0.03 -0.02,0.03 -0.03,0.02 -0.02,0.03 -0.03,0.02 -0.03,0.01 -0.03,0.02 -0.03,0.01 -0.03,0.02 -0.03,0.01 -0.04,0 -0.03,0.01 -0.04,0 -0.03,0 c -0.34,0 -0.53,-0.24 -0.53,-0.52 0,-0.27 0.19,-0.53 0.53,-0.53 0.11,0 0.24,0.04 0.34,0.13 0.03,0.02 0.04,0.03 0.06,0.03 0,0 0.01,-0.01 0.01,-0.15 0,-0.74 -0.35,-1.33 -0.67,-1.66 -0.11,-0.11 -0.11,-0.13 -0.11,-0.16 0,-0.07 0.05,-0.11 0.1,-0.11 0.11,0 0.9,0.76 0.9,1.93 z"
           id="path11076" /><path
           style="fill:#000000;stroke-width:0"
           d="m 311.66,648.98 h 0.85 c 0.2,0 0.3,0 0.3,0.2 0,0.11 -0.1,0.11 -0.27,0.11 h -0.83 l 0.22,1.14 c 0.03,0.21 0.18,0.92 0.23,1.04 0.09,0.19 0.26,0.33 0.47,0.33 0.04,0 0.3,0 0.49,-0.17 -0.44,-0.04 -0.54,-0.39 -0.54,-0.54 0,-0.23 0.18,-0.35 0.37,-0.35 0.26,0 0.55,0.22 0.55,0.6 0,0.45 -0.46,0.68 -0.87,0.68 -0.34,0 -0.96,-0.18 -1.26,-1.16 -0.06,-0.21 -0.09,-0.31 -0.33,-1.57 h -0.69 c -0.19,0 -0.3,0 -0.3,-0.19 0,-0.12 0.09,-0.12 0.28,-0.12 h 0.66 l -0.75,-3.93 c -0.18,-0.97 -0.35,-1.87 -0.86,-1.87 -0.04,0 -0.29,0 -0.48,0.17 0.46,0.04 0.55,0.4 0.55,0.55 0,0.23 -0.18,0.34 -0.38,0.34 -0.25,0 -0.54,-0.22 -0.54,-0.59 0,-0.45 0.43,-0.69 0.85,-0.69 0.54,0 0.94,0.59 1.12,0.97 0.32,0.62 0.55,1.83 0.56,1.9 z"
           id="path11078" /><path
           style="fill:#000000;stroke-width:0"
           d="m 317.54,645.84 h -0.24 c -0.07,-0.69 -0.18,-1.59 -1.5,-1.59 h -0.69 c -0.33,0 -0.34,0.06 -0.34,0.27 v 3.67 c 0,0.23 0,0.32 0.66,0.32 h 0.24 v 0.25 h -2.28 v -0.25 h 0.17 c 0.53,0 0.55,-0.07 0.55,-0.31 v -3.63 c 0,-0.24 -0.02,-0.32 -0.55,-0.32 h -0.17 V 644 h 3.94 z"
           id="path11080" /></g>    </g>
    <g
       id="g11200"
       transform="matrix(5,0,0,5,54.792855,847.36933)">
      <g
         word-spacing="normal"
         letter-spacing="normal"
         font-size-adjust="none"
         font-stretch="normal"
         font-weight="normal"
         font-variant="normal"
         font-style="normal"
         stroke-miterlimit="10.433"
         xml:space="preserve"
         transform="matrix(0.42857143,0,0,-0.42857143,-75,300)"
         id="g11202"
         style="font-style:normal;font-variant:normal;font-weight:normal;font-stretch:normal;letter-spacing:normal;word-spacing:normal;text-anchor:start;fill:none;stroke:#000000;stroke-linecap:butt;stroke-linejoin:miter;stroke-miterlimit:10.43299961;stroke-opacity:1;stroke-dasharray:none;stroke-dashoffset:0"><path
           id="path11204"
           d="m 303.88,645.59 -0.01,-0.02 0,-0.01 0,-0.02 -0.01,-0.01 0,-0.03 -0.01,-0.04 -0.01,-0.03 -0.01,-0.03 0,-0.03 -0.01,-0.03 0,-0.02 -0.01,-0.01 0,-0.02 0,-0.01 -0.01,-0.02 0,-0.01 0,-0.01 0,-0.01 -0.01,-0.01 0,-0.01 0,-0.01 0,-0.01 0,-0.01 0,-0.01 0,0 0,-0.01 c 0,-0.18 0.14,-0.27 0.28,-0.27 0.13,0 0.31,0.08 0.38,0.28 0.01,0.04 0.35,1.39 0.39,1.57 0.08,0.33 0.26,1.03 0.32,1.3 0.04,0.13 0.32,0.6 0.56,0.81 0.08,0.08 0.37,0.33 0.8,0.33 0.26,0 0.41,-0.11 0.41,-0.11 -0.29,-0.05 -0.51,-0.29 -0.51,-0.55 0,-0.17 0.11,-0.35 0.38,-0.35 0.27,0 0.54,0.23 0.54,0.59 0,0.34 -0.32,0.64 -0.82,0.64 -0.65,0 -1.09,-0.49 -1.28,-0.76 -0.08,0.45 -0.44,0.76 -0.9,0.76 -0.46,0 -0.65,-0.38 -0.74,-0.56 -0.18,-0.34 -0.31,-0.94 -0.31,-0.97 0,-0.1 0.1,-0.1 0.12,-0.1 0.1,0 0.11,0.01 0.17,0.23 0.17,0.71 0.37,1.18 0.72,1.18 0.17,0 0.31,-0.08 0.31,-0.45 0,-0.21 -0.02,-0.32 -0.16,-0.84 z"
           style="fill:#000000;stroke-width:0" /></g>    </g>
  </g>
</svg>
