<?xml version="1.0" encoding="UTF-8" standalone="no"?>
<!-- Created with Inkscape (http://www.inkscape.org/) -->

<svg
   xmlns:dc="http://purl.org/dc/elements/1.1/"
   xmlns:cc="http://creativecommons.org/ns#"
   xmlns:rdf="http://www.w3.org/1999/02/22-rdf-syntax-ns#"
   xmlns:svg="http://www.w3.org/2000/svg"
   xmlns="http://www.w3.org/2000/svg"
   xmlns:sodipodi="http://sodipodi.sourceforge.net/DTD/sodipodi-0.dtd"
   xmlns:inkscape="http://www.inkscape.org/namespaces/inkscape"
   width="400"
   height="300"
   id="svg2"
   version="1.1"
   inkscape:version="0.47 r22583"
   sodipodi:docname="line-circle1.svg">
  <sodipodi:namedview
     id="base"
     pagecolor="#ffffff"
     bordercolor="#666666"
     borderopacity="1.0"
     inkscape:pageopacity="0"
     inkscape:pageshadow="2"
     inkscape:zoom="1.4142136"
     inkscape:cx="238.88578"
     inkscape:cy="40.684385"
     inkscape:document-units="px"
     inkscape:current-layer="layer1"
     showgrid="false"
     showguides="true"
     inkscape:guide-bbox="true"
     inkscape:window-width="1024"
     inkscape:window-height="749"
     inkscape:window-x="-4"
     inkscape:window-y="-4"
     inkscape:window-maximized="1">
    <sodipodi:guide
       id="guide2869"
       position="173,145"
       orientation="0,1" />
    <sodipodi:guide
       id="guide2871"
       position="173,145"
       orientation="1,0" />
    <sodipodi:guide
       id="guide2875"
       position="136.93273,10.395112"
       orientation="-0.5,0.8660254" />
    <sodipodi:guide
       id="guide2877"
       position="173,145"
       orientation="0.8660254,0.5" />
    <sodipodi:guide
       id="guide2879"
       position="173,145"
       orientation="0.96592583,-0.25881905" />
    <sodipodi:guide
       id="guide2881"
       position="173,145"
       orientation="0.25881905,0.96592583" />
  </sodipodi:namedview>
  <defs
     id="defs4">
    <marker
       style="overflow:visible;"
       id="Arrow1Lend"
       refX="0.0"
       refY="0.0"
       orient="auto"
       inkscape:stockid="Arrow1Lend">
      <path
         transform="scale(0.8) rotate(180) translate(12.5,0)"
         style="fill-rule:evenodd;stroke:#000000;stroke-width:1.0pt;marker-start:none;"
         d="M 0.0,0.0 L 5.0,-5.0 L -12.5,0.0 L 5.0,5.0 L 0.0,0.0 z "
         id="path3606" />
    </marker>
    <marker
       style="overflow:visible"
       id="Arrow1Lstart"
       refX="0.0"
       refY="0.0"
       orient="auto"
       inkscape:stockid="Arrow1Lstart">
      <path
         transform="scale(0.8) translate(12.5,0)"
         style="fill-rule:evenodd;stroke:#000000;stroke-width:1.0pt;marker-start:none"
         d="M 0.0,0.0 L 5.0,-5.0 L -12.5,0.0 L 5.0,5.0 L 0.0,0.0 z "
         id="path3603" />
    </marker>
    <inkscape:perspective
       id="perspective10"
       inkscape:persp3d-origin="372.04724 : 350.78739 : 1"
       inkscape:vp_z="744.09448 : 526.18109 : 1"
       inkscape:vp_y="0 : 1000 : 0"
       inkscape:vp_x="0 : 526.18109 : 1"
       sodipodi:type="inkscape:persp3d" />
    <inkscape:perspective
       sodipodi:type="inkscape:persp3d"
       inkscape:vp_x="0 : 0.5 : 1"
       inkscape:vp_y="0 : 1000 : 0"
       inkscape:vp_z="1 : 0.5 : 1"
       inkscape:persp3d-origin="0.5 : 0.33333333 : 1"
       id="perspective3867" />
    <marker
       style="overflow:visible"
       id="Arrow1Lend-4"
       refX="0"
       refY="0"
       orient="auto"
       inkscape:stockid="Arrow1Lend">
      <path
         transform="matrix(-0.8,0,0,-0.8,-10,0)"
         style="fill-rule:evenodd;stroke:#000000;stroke-width:1pt;marker-start:none"
         d="M 0,0 5,-5 -12.5,0 5,5 0,0 z"
         id="path3606-4" />
    </marker>
  </defs>
  <metadata
     id="metadata7">
    <rdf:RDF>
      <cc:Work
         rdf:about="">
        <dc:format>image/svg+xml</dc:format>
        <dc:type
           rdf:resource="http://purl.org/dc/dcmitype/StillImage" />
        <dc:title />
      </cc:Work>
    </rdf:RDF>
  </metadata>
  <g
     transform="translate(0,-752.36218)"
     id="layer1"
     inkscape:groupmode="layer"
     inkscape:label="レイヤー 1">
    <path
       transform="translate(2,748.19061)"
       d="M 310.01219,160 C 310.01219,236.77431 247.77431,299.01219 171,299.01219 94.225686,299.01219 31.987808,236.77431 31.987808,160 31.987808,83.225686 94.225686,20.987808 171,20.987808 c 76.77431,0 139.01219,62.237878 139.01219,139.012192 z"
       sodipodi:ry="139.01219"
       sodipodi:rx="139.01219"
       sodipodi:cy="160"
       sodipodi:cx="171"
       id="path2867"
       style="fill:none;stroke:#000000;stroke-width:1;stroke-miterlimit:4;stroke-opacity:1;stroke-dasharray:none;stroke-dashoffset:0"
       sodipodi:type="arc" />
    <path
       sodipodi:nodetypes="cc"
       id="path2873"
       d="M 123.5639,1049.6856 394.02444,893.5351"
       style="fill:none;stroke:#000000;stroke-width:1px;stroke-linecap:butt;stroke-linejoin:miter;stroke-opacity:1" />
    <rect
       transform="matrix(0.8660254,-0.5,0.5,0.8660254,0,0)"
       y="960.58325"
       x="-303.8587"
       height="10.253048"
       width="10.253048"
       id="rect2883"
       style="fill:none;stroke:#000000;stroke-width:1;stroke-miterlimit:4;stroke-opacity:1;stroke-dasharray:none;stroke-dashoffset:0" />
    <path
       transform="translate(0,752.36218)"
       id="path2885"
       d="M 222.26881,240.33608 173,155 c 0,0 146.64605,39.57425 134.60489,36.06727"
       style="fill:none;stroke:#000000;stroke-width:0.5;stroke-linecap:butt;stroke-linejoin:miter;stroke-opacity:1;stroke-miterlimit:4;stroke-dasharray:none"
       sodipodi:nodetypes="ccc" />
    <path
       sodipodi:nodetypes="cc"
       id="path2887"
       d="m 222.26881,992.69826 41.86338,-24.16983"
       style="fill:none;stroke:#000000;stroke-width:1.5;stroke-linecap:butt;stroke-linejoin:miter;stroke-miterlimit:4;stroke-opacity:1;stroke-dasharray:none;marker-end:url(#Arrow1Lend)" />
    <path
       inkscape:transform-center-x="-6.2555688"
       sodipodi:nodetypes="cc"
       id="path2887-6"
       d="M 222.26881,992.69826 198.09897,950.83488"
       style="fill:none;stroke:#000000;stroke-width:1.5;stroke-linecap:butt;stroke-linejoin:miter;stroke-miterlimit:4;stroke-opacity:1;stroke-dasharray:none;marker-end:url(#Arrow1Lend)" />
    <path
       transform="translate(0,752.36218)"
       id="path3887"
       d="M 173,155 136.93273,289.60489"
       style="fill:none;stroke:#000000;stroke-width:0.5;stroke-linecap:butt;stroke-linejoin:miter;stroke-opacity:1;stroke-miterlimit:4;stroke-dasharray:none"
       sodipodi:nodetypes="cc" />
    <g
       id="g3915"
       transform="matrix(5,0,0,5,-38.356787,801.75504)">
      <g
         word-spacing="normal"
         letter-spacing="normal"
         font-size-adjust="none"
         font-stretch="normal"
         font-weight="normal"
         font-variant="normal"
         font-style="normal"
         stroke-miterlimit="10.433"
         xml:space="preserve"
         transform="matrix(0.42857143,0,0,-0.42857143,-75,300)"
         id="content"
         style="font-style:normal;font-variant:normal;font-weight:normal;font-stretch:normal;letter-spacing:normal;word-spacing:normal;text-anchor:start;fill:none;stroke:#000000;stroke-linecap:butt;stroke-linejoin:miter;stroke-miterlimit:10.43299961;stroke-opacity:1;stroke-dasharray:none;stroke-dashoffset:0"><path
           id="path3918"
           d="m 303.88,645.59 -0.01,-0.02 0,-0.01 0,-0.02 -0.01,-0.01 0,-0.03 -0.01,-0.04 -0.01,-0.03 -0.01,-0.03 0,-0.03 -0.01,-0.03 0,-0.02 -0.01,-0.01 0,-0.02 0,-0.01 -0.01,-0.02 0,-0.01 0,-0.01 0,-0.01 -0.01,-0.01 0,-0.01 0,-0.01 0,-0.01 0,-0.01 0,-0.01 0,0 0,-0.01 c 0,-0.18 0.14,-0.27 0.28,-0.27 0.13,0 0.31,0.08 0.38,0.28 0.01,0.04 0.35,1.39 0.39,1.57 0.08,0.33 0.26,1.03 0.32,1.3 0.04,0.13 0.32,0.6 0.56,0.81 0.08,0.08 0.37,0.33 0.8,0.33 0.26,0 0.41,-0.11 0.41,-0.11 -0.29,-0.05 -0.51,-0.29 -0.51,-0.55 0,-0.17 0.11,-0.35 0.38,-0.35 0.27,0 0.54,0.23 0.54,0.59 0,0.34 -0.32,0.64 -0.82,0.64 -0.65,0 -1.09,-0.49 -1.28,-0.76 -0.08,0.45 -0.44,0.76 -0.9,0.76 -0.46,0 -0.65,-0.38 -0.74,-0.56 -0.18,-0.34 -0.31,-0.94 -0.31,-0.97 0,-0.1 0.1,-0.1 0.12,-0.1 0.1,0 0.11,0.01 0.17,0.23 0.17,0.71 0.37,1.18 0.72,1.18 0.17,0 0.31,-0.08 0.31,-0.45 0,-0.21 -0.02,-0.32 -0.16,-0.84 z"
           style="fill:#000000;stroke-width:0" /></g>    </g>
    <g
       id="g3976"
       transform="matrix(5,0,0,5,-90.199004,867.15283)">
      <g
         id="g3978"
         transform="matrix(0.42857143,0,0,-0.42857143,-75,300)"
         xml:space="preserve"
         stroke-miterlimit="10.433"
         font-style="normal"
         font-variant="normal"
         font-weight="normal"
         font-stretch="normal"
         font-size-adjust="none"
         letter-spacing="normal"
         word-spacing="normal"
         style="font-style:normal;font-variant:normal;font-weight:normal;font-stretch:normal;letter-spacing:normal;word-spacing:normal;text-anchor:start;fill:none;stroke:#000000;stroke-linecap:butt;stroke-linejoin:miter;stroke-miterlimit:10.43299961;stroke-opacity:1;stroke-dasharray:none;stroke-dashoffset:0"><path
           d="m 307.57,652.29 0.03,0 0.03,0 0.03,0 0.02,0.01 0.01,0 0.02,0 0.01,0 0.02,0 0.01,0 0.01,0.01 0.02,0 0.01,0 0.01,0.01 0.02,0 0.01,0.01 0.01,0 0.01,0.01 0.01,0.01 0.01,0.01 0.01,0.01 0,0.01 0.01,0 0,0.01 0,0 0.01,0.01 0,0.01 0,0 0,0.01 0.01,0.01 0,0 0,0.01 0,0.01 0,0.01 0,0.01 0,0 0,0.01 0,0.01 c 0,0.2 -0.18,0.2 -0.34,0.2 h -5.39 c -0.17,0 -0.35,0 -0.35,-0.2 0,-0.2 0.18,-0.2 0.35,-0.2 z"
           id="path3980"
           style="fill:#000000;stroke-width:0" /><path
           d="m 309.31,652.29 -0.05,-0.04 -0.05,-0.04 -0.05,-0.04 -0.04,-0.03 -0.05,-0.04 -0.04,-0.04 -0.04,-0.04 -0.04,-0.04 -0.04,-0.03 -0.04,-0.04 -0.03,-0.04 -0.03,-0.03 -0.04,-0.04 -0.03,-0.03 -0.03,-0.03 -0.02,-0.04 -0.03,-0.03 -0.03,-0.03 -0.02,-0.03 -0.02,-0.03 -0.02,-0.02 -0.02,-0.03 -0.02,-0.03 -0.02,-0.02 -0.02,-0.02 -0.01,-0.02 -0.02,-0.02 -0.01,-0.02 -0.01,-0.02 -0.01,-0.02 -0.01,-0.01 -0.01,-0.01 c -0.45,-0.69 -0.53,-1.32 -0.53,-1.33 0,-0.12 0.12,-0.12 0.2,-0.12 0.17,0 0.18,0.02 0.22,0.2 0.23,0.98 0.82,1.81 1.95,2.27 0.11,0.04 0.14,0.06 0.14,0.13 0,0.07 -0.05,0.1 -0.07,0.11 -0.44,0.17 -1.65,0.67 -2.03,2.34 -0.03,0.12 -0.04,0.15 -0.21,0.15 -0.08,0 -0.2,0 -0.2,-0.12 0,-0.02 0.09,-0.65 0.51,-1.31 0.2,-0.31 0.49,-0.65 0.92,-0.97 h -7.4 c -0.18,0 -0.36,0 -0.36,-0.2 0,-0.2 0.18,-0.2 0.36,-0.2 z"
           id="path3982"
           style="fill:#000000;stroke-width:0" /><path
           d="m 307.66,648.71 0,0.02 0,0.03 0,0.02 0,0.02 0,0.03 0,0.02 0,0.02 -0.01,0.02 0,0.04 -0.01,0.04 -0.01,0.04 -0.01,0.03 -0.01,0.03 -0.01,0.04 -0.01,0.02 -0.02,0.03 -0.01,0.03 -0.02,0.02 -0.01,0.02 -0.02,0.03 -0.02,0.01 -0.01,0.02 -0.02,0.02 -0.02,0.01 -0.02,0.02 -0.02,0.01 -0.01,0.01 -0.02,0.01 -0.02,0.01 -0.02,0 -0.02,0.01 -0.02,0 -0.01,0.01 -0.02,0 -0.02,0 -0.02,0 c -0.24,0 -0.49,-0.25 -0.49,-0.47 0,-0.13 0.06,-0.2 0.16,-0.3 0.22,-0.2 0.34,-0.46 0.34,-0.82 0,-0.42 -0.6,-2.7 -1.77,-2.7 -0.51,0 -0.74,0.35 -0.74,0.87 0,0.55 0.27,1.28 0.58,2.11 0.07,0.17 0.12,0.31 0.12,0.5 0,0.44 -0.32,0.81 -0.81,0.81 -0.94,0 -1.32,-1.44 -1.32,-1.53 0,-0.1 0.1,-0.1 0.12,-0.1 0.1,0 0.11,0.02 0.16,0.18 0.29,1.01 0.72,1.23 1,1.23 0.08,0 0.25,0 0.25,-0.31 0,-0.25 -0.1,-0.52 -0.17,-0.7 -0.44,-1.16 -0.56,-1.62 -0.56,-2.04 0,-1.08 0.87,-1.24 1.33,-1.24 1.67,0 2.24,3.3 2.24,3.82 z"
           id="path3984"
           style="fill:#000000;stroke-width:0" /></g>    </g>
    <g
       id="g4052"
       transform="matrix(5,0,0,5,-12.488269,882.33421)">
      <g
         word-spacing="normal"
         letter-spacing="normal"
         font-size-adjust="none"
         font-stretch="normal"
         font-weight="normal"
         font-variant="normal"
         font-style="normal"
         stroke-miterlimit="10.433"
         xml:space="preserve"
         transform="matrix(0.42857143,0,0,-0.42857143,-75,300)"
         id="g4054"
         style="font-style:normal;font-variant:normal;font-weight:normal;font-stretch:normal;letter-spacing:normal;word-spacing:normal;text-anchor:start;fill:none;stroke:#000000;stroke-linecap:butt;stroke-linejoin:miter;stroke-miterlimit:10.43299961;stroke-opacity:1;stroke-dasharray:none;stroke-dashoffset:0"><path
           id="path4056"
           d="m 307.57,652.29 0.03,0 0.03,0 0.03,0 0.02,0.01 0.01,0 0.02,0 0.01,0 0.02,0 0.01,0 0.01,0.01 0.02,0 0.01,0 0.01,0.01 0.02,0 0.01,0.01 0.01,0 0.01,0.01 0.01,0.01 0.01,0.01 0.01,0.01 0,0.01 0.01,0 0,0.01 0,0 0.01,0.01 0,0.01 0,0 0,0.01 0.01,0.01 0,0 0,0.01 0,0.01 0,0.01 0,0.01 0,0 0,0.01 0,0.01 c 0,0.2 -0.18,0.2 -0.34,0.2 h -5.39 c -0.17,0 -0.35,0 -0.35,-0.2 0,-0.2 0.18,-0.2 0.35,-0.2 z"
           style="fill:#000000;stroke-width:0" /><path
           id="path4058"
           d="m 309.31,652.29 -0.05,-0.04 -0.05,-0.04 -0.05,-0.04 -0.04,-0.03 -0.05,-0.04 -0.04,-0.04 -0.04,-0.04 -0.04,-0.04 -0.04,-0.03 -0.04,-0.04 -0.03,-0.04 -0.03,-0.03 -0.04,-0.04 -0.03,-0.03 -0.03,-0.03 -0.02,-0.04 -0.03,-0.03 -0.03,-0.03 -0.02,-0.03 -0.02,-0.03 -0.02,-0.02 -0.02,-0.03 -0.02,-0.03 -0.02,-0.02 -0.02,-0.02 -0.01,-0.02 -0.02,-0.02 -0.01,-0.02 -0.01,-0.02 -0.01,-0.02 -0.01,-0.01 -0.01,-0.01 c -0.45,-0.69 -0.53,-1.32 -0.53,-1.33 0,-0.12 0.12,-0.12 0.2,-0.12 0.17,0 0.18,0.02 0.22,0.2 0.23,0.98 0.82,1.81 1.95,2.27 0.11,0.04 0.14,0.06 0.14,0.13 0,0.07 -0.05,0.1 -0.07,0.11 -0.44,0.17 -1.65,0.67 -2.03,2.34 -0.03,0.12 -0.04,0.15 -0.21,0.15 -0.08,0 -0.2,0 -0.2,-0.12 0,-0.02 0.09,-0.65 0.51,-1.31 0.2,-0.31 0.49,-0.65 0.92,-0.97 h -7.4 c -0.18,0 -0.36,0 -0.36,-0.2 0,-0.2 0.18,-0.2 0.36,-0.2 z"
           style="fill:#000000;stroke-width:0" /><path
           id="path4060"
           d="m 306.6,648.38 0.01,0.02 0,0.02 0.01,0.02 0,0.03 0.01,0.02 0,0.02 0.02,0.05 0.01,0.05 0.01,0.05 0.01,0.05 0.02,0.05 0,0.02 0.01,0.03 0,0.02 0.01,0.02 0,0.02 0.01,0.02 0,0.02 0.01,0.02 0,0.02 0,0.01 0.01,0.01 0,0.02 0,0.01 0,0.01 0,0.01 0,0 c 0,0.18 -0.14,0.27 -0.29,0.27 -0.12,0 -0.3,-0.07 -0.37,-0.27 -0.02,-0.07 -0.49,-1.98 -0.56,-2.24 -0.07,-0.3 -0.09,-0.48 -0.09,-0.65 0,-0.11 0,-0.13 0.01,-0.18 -0.23,-0.53 -0.53,-0.84 -0.92,-0.84 -0.8,0 -0.8,0.74 -0.8,0.91 0,0.32 0.06,0.7 0.52,1.93 0.11,0.3 0.17,0.44 0.17,0.64 0,0.44 -0.33,0.81 -0.81,0.81 -0.95,0 -1.32,-1.44 -1.32,-1.53 0,-0.1 0.1,-0.1 0.12,-0.1 0.1,0 0.11,0.02 0.16,0.18 0.27,0.93 0.66,1.23 1,1.23 0.09,0 0.25,0 0.25,-0.33 0,-0.25 -0.11,-0.52 -0.18,-0.69 -0.43,-1.18 -0.55,-1.64 -0.55,-2.01 0,-0.91 0.66,-1.26 1.41,-1.26 0.17,0 0.64,0 1.04,0.7 0.26,-0.64 0.94,-0.7 1.24,-0.7 0.75,0 1.19,0.63 1.45,1.23 0.34,0.78 0.65,2.11 0.65,2.59 0,0.54 -0.27,0.69 -0.43,0.69 -0.25,0 -0.5,-0.25 -0.5,-0.47 0,-0.13 0.06,-0.2 0.15,-0.27 0.11,-0.11 0.36,-0.37 0.36,-0.85 0,-0.34 -0.29,-1.31 -0.55,-1.83 -0.26,-0.52 -0.61,-0.87 -1.1,-0.87 -0.47,0 -0.74,0.3 -0.74,0.87 0,0.27 0.07,0.58 0.11,0.72 z"
           style="fill:#000000;stroke-width:0" /></g>    </g>
    <g
       id="g4138"
       transform="matrix(5,0,0,5,215.66428,809.88361)">
      <g
         id="g4140"
         transform="matrix(0.42857143,0,0,-0.42857143,-75,300)"
         xml:space="preserve"
         stroke-miterlimit="10.433"
         font-style="normal"
         font-variant="normal"
         font-weight="normal"
         font-stretch="normal"
         font-size-adjust="none"
         letter-spacing="normal"
         word-spacing="normal"
         style="font-style:normal;font-variant:normal;font-weight:normal;font-stretch:normal;letter-spacing:normal;word-spacing:normal;text-anchor:start;fill:none;stroke:#000000;stroke-linecap:butt;stroke-linejoin:miter;stroke-miterlimit:10.43299961;stroke-opacity:1;stroke-dasharray:none;stroke-dashoffset:0"><path
           d="m 151.26,660.15 -0.03,0.26 v 2.69 c 0,0.33 0.02,0.4 0.49,0.4 h 0.88 c 1.59,0 1.59,-1.06 1.59,-1.55 0,-0.47 0,-1.54 -1.59,-1.54 h -1.37 l 0.03,-0.26 h 1.69 c 1.19,0 2.26,0.81 2.26,1.8 0,0.98 -0.98,1.85 -2.34,1.85 h -3.52 v -0.3 h 0.24 c 0.76,0 0.79,-0.11 0.79,-0.47 v -5.25 c 0,-0.36 -0.03,-0.47 -0.79,-0.47 h -0.24 V 657 h 2.94 v 0.31 h -0.24 c -0.77,0 -0.79,0.11 -0.79,0.47 z"
           id="path4142"
           style="fill:#000000;stroke-width:0" /></g>    </g>
    <g
       id="g4324"
       transform="matrix(5,0,0,5,274.98309,920.48398)">
      <g
         id="g4326"
         transform="matrix(0.42857143,0,0,-0.42857143,-75,300)"
         xml:space="preserve"
         stroke-miterlimit="10.433"
         font-style="normal"
         font-variant="normal"
         font-weight="normal"
         font-stretch="normal"
         font-size-adjust="none"
         letter-spacing="normal"
         word-spacing="normal"
         style="font-style:normal;font-variant:normal;font-weight:normal;font-stretch:normal;letter-spacing:normal;word-spacing:normal;text-anchor:start;fill:none;stroke:#000000;stroke-linecap:butt;stroke-linejoin:miter;stroke-miterlimit:10.43299961;stroke-opacity:1;stroke-dasharray:none;stroke-dashoffset:0"><path
           d="m 155.1,663.03 0.01,0.03 0,0.03 0,0.03 0,0.03 0,0.03 0,0.02 0.01,0.03 0,0.02 0.01,0.02 0,0.03 0.01,0.02 0.01,0.01 0.02,0.02 0.01,0.02 0.01,0.01 0.02,0.02 0.02,0.01 0.03,0.01 0.01,0.01 0.01,0 0.01,0.01 0.02,0 0.01,0.01 0.02,0 0.02,0.01 0.01,0 0.02,0 0.02,0.01 0.02,0 0.02,0 0.02,0.01 0.02,0 0.02,0 0.03,0 0.02,0.01 0.03,0 0.02,0 0.03,0 0.03,0 0.03,0 0.03,0 0.03,0 0.03,0.01 0.04,0 0.03,0 0.04,0 h 0.23 v 0.3 h -2.93 v -0.3 h 0.23 c 0.77,0 0.79,-0.11 0.79,-0.47 v -2.33 h -2.98 v 2.33 c 0,0.36 0.02,0.47 0.79,0.47 h 0.24 v 0.3 h -2.94 v -0.3 h 0.24 c 0.77,0 0.78,-0.11 0.78,-0.47 v -5.25 c 0,-0.36 -0.01,-0.47 -0.78,-0.47 h -0.24 V 657 h 2.94 v 0.31 h -0.24 c -0.77,0 -0.79,0.11 -0.79,0.47 v 2.61 h 2.98 v -2.61 c 0,-0.36 -0.02,-0.47 -0.79,-0.47 H 153.2 V 657 h 2.93 v 0.31 h -0.23 c -0.77,0 -0.8,0.11 -0.8,0.47 z"
           id="path4328"
           style="fill:#000000;stroke-width:0" /></g>    </g>
    <g
       id="g4824"
       transform="matrix(5,0,0,5,346.74774,842.90803)">
      <g
         id="g4826"
         transform="matrix(0.42857143,0,0,-0.42857143,-75,300)"
         xml:space="preserve"
         stroke-miterlimit="10.433"
         font-style="normal"
         font-variant="normal"
         font-weight="normal"
         font-stretch="normal"
         font-size-adjust="none"
         letter-spacing="normal"
         word-spacing="normal"
         style="font-style:normal;font-variant:normal;font-weight:normal;font-stretch:normal;letter-spacing:normal;word-spacing:normal;text-anchor:start;fill:none;stroke:#000000;stroke-linecap:butt;stroke-linejoin:miter;stroke-miterlimit:10.43299961;stroke-opacity:1;stroke-dasharray:none;stroke-dashoffset:0"><path
           d="m 154.16,657.07 0.11,0.05 0.11,0.06 0.1,0.06 0.1,0.06 0.11,0.07 0.09,0.07 0.1,0.08 0.09,0.08 0.09,0.08 0.09,0.09 0.09,0.09 0.08,0.09 0.08,0.1 0.07,0.1 0.07,0.1 0.07,0.11 0.07,0.11 0.06,0.11 0.06,0.11 0.05,0.12 0.05,0.12 0.05,0.12 0.04,0.12 0.04,0.13 0.04,0.13 0.03,0.13 0.02,0.13 0.03,0.14 0.01,0.13 0.01,0.14 0.01,0.14 0,0.14 c 0,2.03 -1.5,3.64 -3.31,3.64 v -0.25 c 0.96,0 2.32,-0.85 2.32,-3.39 0,-0.78 -0.12,-2.18 -1.18,-2.96 -0.22,0.56 -0.54,1.05 -1.12,1.05 v -0.22 c 0.53,0 0.76,-0.41 0.86,-0.99 h 0 c -0.34,-0.19 -0.66,-0.23 -0.87,-0.23 -0.51,0 -0.59,0.46 -0.59,0.61 0,0.29 0.21,0.61 0.6,0.61 v 0.22 c -0.51,0 -0.82,-0.42 -0.82,-0.83 0,-0.27 0.13,-0.46 0.14,-0.48 h 0 c -0.54,0.2 -1.66,0.93 -1.66,3.22 0,2.59 1.4,3.39 2.32,3.39 v 0.25 c -1.79,0 -3.31,-1.59 -3.31,-3.64 0,-2.02 1.5,-3.6 3.32,-3.6 0.3,0 0.65,0.06 0.94,0.15 0.15,-0.95 0.29,-1.86 1.22,-1.86 1.01,0 1.2,1.32 1.2,1.83 0,0.1 0,0.21 -0.11,0.21 -0.09,0 -0.09,-0.08 -0.11,-0.18 -0.06,-0.54 -0.47,-0.84 -0.9,-0.84 -0.47,0 -0.72,0.34 -0.96,0.98 z"
           id="path4828"
           style="fill:#000000;stroke-width:0" /></g>    </g>
    <g
       id="g4924"
       transform="matrix(5,0,0,5,175.04726,941.17358)">
      <g
         word-spacing="normal"
         letter-spacing="normal"
         font-size-adjust="none"
         font-stretch="normal"
         font-weight="normal"
         font-variant="normal"
         font-style="normal"
         stroke-miterlimit="10.433"
         xml:space="preserve"
         transform="matrix(0.42857143,0,0,-0.42857143,-75,300)"
         id="g4926"
         style="font-style:normal;font-variant:normal;font-weight:normal;font-stretch:normal;letter-spacing:normal;word-spacing:normal;text-anchor:start;fill:none;stroke:#000000;stroke-linecap:butt;stroke-linejoin:miter;stroke-miterlimit:10.43299961;stroke-opacity:1;stroke-dasharray:none;stroke-dashoffset:0"><path
           id="path4928"
           d="m 154.16,657.07 0.11,0.05 0.11,0.06 0.1,0.06 0.1,0.06 0.11,0.07 0.09,0.07 0.1,0.08 0.09,0.08 0.09,0.08 0.09,0.09 0.09,0.09 0.08,0.09 0.08,0.1 0.07,0.1 0.07,0.1 0.07,0.11 0.07,0.11 0.06,0.11 0.06,0.11 0.05,0.12 0.05,0.12 0.05,0.12 0.04,0.12 0.04,0.13 0.04,0.13 0.03,0.13 0.02,0.13 0.03,0.14 0.01,0.13 0.01,0.14 0.01,0.14 0,0.14 c 0,2.03 -1.5,3.64 -3.31,3.64 v -0.25 c 0.96,0 2.32,-0.85 2.32,-3.39 0,-0.78 -0.12,-2.18 -1.18,-2.96 -0.22,0.56 -0.54,1.05 -1.12,1.05 v -0.22 c 0.53,0 0.76,-0.41 0.86,-0.99 h 0 c -0.34,-0.19 -0.66,-0.23 -0.87,-0.23 -0.51,0 -0.59,0.46 -0.59,0.61 0,0.29 0.21,0.61 0.6,0.61 v 0.22 c -0.51,0 -0.82,-0.42 -0.82,-0.83 0,-0.27 0.13,-0.46 0.14,-0.48 h 0 c -0.54,0.2 -1.66,0.93 -1.66,3.22 0,2.59 1.4,3.39 2.32,3.39 v 0.25 c -1.79,0 -3.31,-1.59 -3.31,-3.64 0,-2.02 1.5,-3.6 3.32,-3.6 0.3,0 0.65,0.06 0.94,0.15 0.15,-0.95 0.29,-1.86 1.22,-1.86 1.01,0 1.2,1.32 1.2,1.83 0,0.1 0,0.21 -0.11,0.21 -0.09,0 -0.09,-0.08 -0.11,-0.18 -0.06,-0.54 -0.47,-0.84 -0.9,-0.84 -0.47,0 -0.72,0.34 -0.96,0.98 z"
           style="fill:#000000;stroke-width:0" /><path
           id="path4930"
           d="m 158.05,662.87 0,0.05 0,0.06 -0.01,0.05 0,0.05 -0.01,0.06 0,0.05 -0.01,0.04 -0.01,0.05 -0.01,0.05 -0.02,0.04 -0.01,0.05 -0.02,0.04 -0.01,0.04 -0.02,0.04 -0.02,0.04 -0.02,0.03 -0.02,0.04 -0.03,0.03 -0.02,0.03 -0.03,0.03 -0.02,0.03 -0.03,0.02 -0.03,0.02 -0.03,0.02 -0.03,0.02 -0.03,0.02 -0.04,0.01 -0.03,0.01 -0.04,0.01 -0.04,0.01 -0.03,0 -0.04,0 c -0.35,0 -0.54,-0.26 -0.54,-0.52 0,-0.26 0.18,-0.53 0.54,-0.53 0.2,0 0.33,0.1 0.4,0.16 0,0.02 0.01,0.03 0.02,0.03 0.02,0 0.02,-0.14 0.02,-0.18 0,-0.32 -0.07,-1.04 -0.69,-1.65 -0.12,-0.13 -0.12,-0.15 -0.12,-0.18 0,-0.06 0.05,-0.11 0.1,-0.11 0.11,0 0.93,0.76 0.93,1.94 z"
           style="fill:#000000;stroke-width:0" /></g>    </g>
  </g>
</svg>
