<?xml version="1.0" encoding="UTF-8" standalone="no"?>
<!-- Created with Inkscape (http://www.inkscape.org/) -->

<svg
   xmlns:dc="http://purl.org/dc/elements/1.1/"
   xmlns:cc="http://creativecommons.org/ns#"
   xmlns:rdf="http://www.w3.org/1999/02/22-rdf-syntax-ns#"
   xmlns:svg="http://www.w3.org/2000/svg"
   xmlns="http://www.w3.org/2000/svg"
   xmlns:sodipodi="http://sodipodi.sourceforge.net/DTD/sodipodi-0.dtd"
   xmlns:inkscape="http://www.inkscape.org/namespaces/inkscape"
   width="400"
   height="300"
   id="svg2"
   version="1.1"
   inkscape:version="0.47 r22583"
   sodipodi:docname="line-point2.svg">
  <sodipodi:namedview
     id="base"
     pagecolor="#ffffff"
     bordercolor="#666666"
     borderopacity="1.0"
     inkscape:pageopacity="0"
     inkscape:pageshadow="2"
     inkscape:zoom="0.70710678"
     inkscape:cx="-71.732739"
     inkscape:cy="9.1206348"
     inkscape:document-units="px"
     inkscape:current-layer="layer1"
     showgrid="false"
     showguides="true"
     inkscape:guide-bbox="true"
     inkscape:window-width="1024"
     inkscape:window-height="749"
     inkscape:window-x="-4"
     inkscape:window-y="-4"
     inkscape:window-maximized="1">
    <sodipodi:guide
       id="guide2867"
       position="74,40"
       orientation="-0.5,0.8660254" />
    <sodipodi:guide
       id="guide3869"
       position="74,40"
       orientation="-0.8660254,0.5" />
    <sodipodi:guide
       id="guide3871"
       position="213.39349,281.43661"
       orientation="0.8660254,0.5" />
    <sodipodi:guide
       orientation="0.8660254,0.5"
       position="74,40"
       id="guide4207" />
  </sodipodi:namedview>
  <defs
     id="defs4">
    <marker
       style="overflow:visible;"
       id="Arrow1Lend"
       refX="0.0"
       refY="0.0"
       orient="auto"
       inkscape:stockid="Arrow1Lend">
      <path
         transform="scale(0.8) rotate(180) translate(12.5,0)"
         style="fill-rule:evenodd;stroke:#000000;stroke-width:1.0pt;marker-start:none;"
         d="M 0.0,0.0 L 5.0,-5.0 L -12.5,0.0 L 5.0,5.0 L 0.0,0.0 z "
         id="path3606" />
    </marker>
    <marker
       style="overflow:visible"
       id="Arrow1Lstart"
       refX="0.0"
       refY="0.0"
       orient="auto"
       inkscape:stockid="Arrow1Lstart">
      <path
         transform="scale(0.8) translate(12.5,0)"
         style="fill-rule:evenodd;stroke:#000000;stroke-width:1.0pt;marker-start:none"
         d="M 0.0,0.0 L 5.0,-5.0 L -12.5,0.0 L 5.0,5.0 L 0.0,0.0 z "
         id="path3603" />
    </marker>
    <inkscape:perspective
       id="perspective10"
       inkscape:persp3d-origin="372.04724 : 350.78739 : 1"
       inkscape:vp_z="744.09448 : 526.18109 : 1"
       inkscape:vp_y="0 : 1000 : 0"
       inkscape:vp_x="0 : 526.18109 : 1"
       sodipodi:type="inkscape:persp3d" />
    <inkscape:perspective
       sodipodi:type="inkscape:persp3d"
       inkscape:vp_x="0 : 0.5 : 1"
       inkscape:vp_y="0 : 1000 : 0"
       inkscape:vp_z="1 : 0.5 : 1"
       inkscape:persp3d-origin="0.5 : 0.33333333 : 1"
       id="perspective3855" />
    <inkscape:perspective
       id="perspective2875"
       inkscape:persp3d-origin="0.5 : 0.33333333 : 1"
       inkscape:vp_z="1 : 0.5 : 1"
       inkscape:vp_y="0 : 1000 : 0"
       inkscape:vp_x="0 : 0.5 : 1"
       sodipodi:type="inkscape:persp3d" />
    <inkscape:perspective
       id="perspective2898"
       inkscape:persp3d-origin="0.5 : 0.33333333 : 1"
       inkscape:vp_z="1 : 0.5 : 1"
       inkscape:vp_y="0 : 1000 : 0"
       inkscape:vp_x="0 : 0.5 : 1"
       sodipodi:type="inkscape:persp3d" />
    <inkscape:perspective
       id="perspective2915"
       inkscape:persp3d-origin="0.5 : 0.33333333 : 1"
       inkscape:vp_z="1 : 0.5 : 1"
       inkscape:vp_y="0 : 1000 : 0"
       inkscape:vp_x="0 : 0.5 : 1"
       sodipodi:type="inkscape:persp3d" />
  </defs>
  <metadata
     id="metadata7">
    <rdf:RDF>
      <cc:Work
         rdf:about="">
        <dc:format>image/svg+xml</dc:format>
        <dc:type
           rdf:resource="http://purl.org/dc/dcmitype/StillImage" />
        <dc:title />
      </cc:Work>
    </rdf:RDF>
  </metadata>
  <g
     transform="translate(0,-752.36218)"
     id="layer1"
     inkscape:groupmode="layer"
     inkscape:label="レイヤー 1">
    <path
       transform="translate(0,752.36218)"
       id="path2869"
       d="M 16.960581,292.93172 388.94229,78.167986"
       style="fill:none;stroke:#000000;stroke-width:1px;stroke-linecap:butt;stroke-linejoin:miter;stroke-opacity:1" />
    <path
       transform="matrix(0.37532545,0,0,0.4908102,67.237907,915.05906)"
       d="M 31.5,198.25 C 31.5,203.63478 25.791631,208 18.75,208 11.708369,208 6,203.63478 6,198.25 c 0,-5.38478 5.708369,-9.75 12.75,-9.75 7.041631,0 12.75,4.36522 12.75,9.75 z"
       sodipodi:ry="9.75"
       sodipodi:rx="12.75"
       sodipodi:cy="198.25"
       sodipodi:cx="18.75"
       id="path2873"
       style="fill:#ffffff;fill-opacity:1;stroke:#000000;stroke-width:2.32991028;stroke-miterlimit:4;stroke-opacity:1;stroke-dasharray:none;stroke-dashoffset:0"
       sodipodi:type="arc" />
    <path
       transform="matrix(0.37532545,0,0,0.4908102,206.35614,673.70074)"
       d="M 31.5,198.25 C 31.5,203.63478 25.791631,208 18.75,208 11.708369,208 6,203.63478 6,198.25 c 0,-5.38478 5.708369,-9.75 12.75,-9.75 7.041631,0 12.75,4.36522 12.75,9.75 z"
       sodipodi:ry="9.75"
       sodipodi:rx="12.75"
       sodipodi:cy="198.25"
       sodipodi:cx="18.75"
       id="path2873-8"
       style="fill:#ffffff;fill-opacity:1;stroke:#000000;stroke-width:2.32991028;stroke-miterlimit:4;stroke-opacity:1;stroke-dasharray:none;stroke-dashoffset:0"
       sodipodi:type="arc" />
    <path
       transform="translate(0,752.36218)"
       id="path3873"
       d="M 74,260 213.39349,18.563392"
       style="fill:none;stroke:#000000;stroke-width:1.50000000000000000;stroke-linecap:butt;stroke-linejoin:miter;stroke-opacity:1;stroke-miterlimit:4;stroke-dasharray:none;marker-end:url(#Arrow1Lend)" />
    <path
       transform="translate(0,752.36218)"
       id="path2875"
       d="m 74,260 58.22243,-33.61474"
       style="fill:none;stroke:#000000;stroke-width:1.5;stroke-linecap:butt;stroke-linejoin:miter;stroke-opacity:1;stroke-miterlimit:4;stroke-dasharray:none;marker-end:url(#Arrow1Lend)" />
    <path
       transform="translate(0,752.36218)"
       id="path4061"
       d="M 213.39349,18.563392 283.09024,139.2817"
       style="fill:none;stroke:#000000;stroke-width:1px;stroke-linecap:butt;stroke-linejoin:miter;stroke-opacity:1" />
    <rect
       transform="matrix(0.8660254,-0.5,0.5,0.8660254,0,0)"
       y="901.00342"
       x="-213.38652"
       height="12.727922"
       width="12.727922"
       id="rect4063"
       style="fill:#ffffff;fill-opacity:1;stroke:#000000;stroke-width:1;stroke-miterlimit:4;stroke-opacity:1;stroke-dasharray:none;stroke-dashoffset:0" />
    <path
       sodipodi:open="true"
       sodipodi:end="5.7420843"
       sodipodi:start="5.24209"
       transform="translate(0,752.36218)"
       d="m 94.489573,225.00592 c 5.862847,3.43279 10.769257,8.28358 14.268657,14.10692"
       sodipodi:ry="40.5513"
       sodipodi:rx="40.5513"
       sodipodi:cy="260"
       sodipodi:cx="74"
       id="path4065"
       style="fill:none;fill-opacity:1;stroke:#000000;stroke-width:1;stroke-miterlimit:4;stroke-opacity:1;stroke-dasharray:none;stroke-dashoffset:0"
       sodipodi:type="arc" />
    <g
       id="g4089"
       transform="matrix(5,0,0,5,-160.35456,746.13977)">
      <g
         word-spacing="normal"
         letter-spacing="normal"
         font-size-adjust="none"
         font-stretch="normal"
         font-weight="normal"
         font-variant="normal"
         font-style="normal"
         stroke-miterlimit="10.433"
         xml:space="preserve"
         transform="matrix(0.42857143,0,0,-0.42857143,-75,300)"
         id="content"
         style="font-style:normal;font-variant:normal;font-weight:normal;font-stretch:normal;letter-spacing:normal;word-spacing:normal;text-anchor:start;fill:none;stroke:#000000;stroke-linecap:butt;stroke-linejoin:miter;stroke-miterlimit:10.43299961;stroke-opacity:1;stroke-dasharray:none;stroke-dashoffset:0"><path
           id="path4092"
           d="m 296.57,652.29 0.03,0 0.03,0 0.03,0 0.02,0.01 0.01,0 0.02,0 0.01,0 0.02,0 0.01,0 0.01,0.01 0.02,0 0.01,0 0.01,0.01 0.02,0 0.01,0.01 0.01,0 0.01,0.01 0.01,0.01 0.01,0.01 0.01,0.01 0,0.01 0.01,0 0,0.01 0,0 0.01,0.01 0,0.01 0,0 0,0.01 0.01,0.01 0,0 0,0.01 0,0.01 0,0.01 0,0.01 0,0 0,0.01 0,0.01 c 0,0.2 -0.18,0.2 -0.34,0.2 h -5.39 c -0.17,0 -0.35,0 -0.35,-0.2 0,-0.2 0.18,-0.2 0.35,-0.2 z"
           style="fill:#000000;stroke-width:0" /><path
           id="path4094"
           d="m 298.31,652.29 -0.05,-0.04 -0.05,-0.04 -0.05,-0.04 -0.04,-0.03 -0.05,-0.04 -0.04,-0.04 -0.04,-0.04 -0.04,-0.04 -0.04,-0.03 -0.04,-0.04 -0.03,-0.04 -0.03,-0.03 -0.04,-0.04 -0.03,-0.03 -0.03,-0.03 -0.02,-0.04 -0.03,-0.03 -0.03,-0.03 -0.02,-0.03 -0.02,-0.03 -0.02,-0.02 -0.02,-0.03 -0.02,-0.03 -0.02,-0.02 -0.02,-0.02 -0.01,-0.02 -0.02,-0.02 -0.01,-0.02 -0.01,-0.02 -0.01,-0.02 -0.01,-0.01 -0.01,-0.01 c -0.45,-0.69 -0.53,-1.32 -0.53,-1.33 0,-0.12 0.12,-0.12 0.2,-0.12 0.17,0 0.18,0.02 0.22,0.2 0.23,0.98 0.82,1.81 1.95,2.27 0.11,0.04 0.14,0.06 0.14,0.13 0,0.07 -0.05,0.1 -0.07,0.11 -0.44,0.17 -1.65,0.67 -2.03,2.34 -0.03,0.12 -0.04,0.15 -0.21,0.15 -0.08,0 -0.2,0 -0.2,-0.12 0,-0.02 0.09,-0.65 0.51,-1.31 0.2,-0.31 0.49,-0.65 0.92,-0.97 h -7.4 c -0.18,0 -0.36,0 -0.36,-0.2 0,-0.2 0.18,-0.2 0.36,-0.2 z"
           style="fill:#000000;stroke-width:0" /><path
           id="path4096"
           d="m 292.45,643.78 -0.01,-0.03 -0.01,-0.03 0,-0.02 -0.01,-0.03 -0.01,-0.03 0,-0.02 -0.01,-0.02 -0.01,-0.02 -0.01,-0.02 0,-0.02 -0.01,-0.02 -0.01,-0.01 -0.01,-0.02 -0.01,-0.01 -0.01,-0.02 -0.02,-0.01 -0.01,-0.01 -0.02,-0.01 -0.01,-0.01 -0.02,0 -0.02,-0.01 -0.02,-0.01 -0.02,0 -0.02,-0.01 -0.03,0 -0.02,-0.01 -0.02,0 -0.01,0 -0.02,0 -0.01,0 -0.02,0 -0.02,0 -0.01,0 -0.02,0 -0.02,0 -0.02,0 -0.02,0 -0.02,0 c -0.12,0 -0.23,0 -0.23,-0.19 0,-0.09 0.05,-0.12 0.13,-0.12 h 1.82 c 0.05,0 0.18,0 0.18,0.2 0,0.11 -0.1,0.11 -0.24,0.11 -0.5,0 -0.5,0.07 -0.5,0.15 0,0.13 0.43,1.75 0.49,2 0.14,-0.29 0.41,-0.64 0.92,-0.64 l -0.01,0.22 c -0.66,0 -0.79,0.83 -0.79,0.89 0,0.02 0,0.03 0.03,0.16 l 0.49,1.95 c 0.07,0.27 0.34,0.55 0.52,0.69 0.35,0.31 0.64,0.38 0.81,0.38 0.4,0 0.63,-0.34 0.63,-0.93 0,-0.59 -0.32,-1.73 -0.5,-2.11 -0.34,-0.7 -0.82,-1.03 -1.19,-1.03 l 0.01,-0.22 c 1.16,0 2.4,1.45 2.4,2.92 0,0.94 -0.57,1.59 -1.32,1.59 -0.5,0 -0.98,-0.36 -1.31,-0.74 -0.1,0.54 -0.53,0.74 -0.89,0.74 -0.46,0 -0.65,-0.38 -0.74,-0.56 -0.18,-0.34 -0.31,-0.94 -0.31,-0.97 0,-0.1 0.1,-0.1 0.12,-0.1 0.1,0 0.11,0.01 0.17,0.23 0.17,0.71 0.36,1.18 0.72,1.18 0.18,0 0.31,-0.08 0.31,-0.45 0,-0.23 -0.02,-0.34 -0.07,-0.51 z"
           style="fill:#000000;stroke-width:0" /><path
           id="path4098"
           d="m 308.57,647.29 0.03,0 0.03,0 0.03,0 0.02,0.01 0.01,0 0.02,0 0.01,0 0.02,0 0.01,0 0.01,0.01 0.02,0 0.01,0 0.01,0.01 0.02,0 0.01,0.01 0.01,0 0.01,0.01 0.01,0.01 0.01,0.01 0.01,0.01 0,0.01 0.01,0 0,0.01 0,0 0.01,0.01 0,0.01 0,0 0,0.01 0.01,0.01 0,0 0,0.01 0,0.01 0,0.01 0,0.01 0,0 0,0.01 0,0.01 c 0,0.2 -0.18,0.2 -0.34,0.2 h -5.39 c -0.17,0 -0.35,0 -0.35,-0.2 0,-0.2 0.18,-0.2 0.35,-0.2 z"
           style="fill:#000000;stroke-width:0" /><path
           id="path4100"
           d="m 318.57,652.29 0.03,0 0.03,0 0.03,0 0.02,0.01 0.01,0 0.02,0 0.01,0 0.02,0 0.01,0 0.01,0.01 0.02,0 0.01,0 0.01,0.01 0.02,0 0.01,0.01 0.01,0 0.01,0.01 0.01,0.01 0.01,0.01 0.01,0.01 0,0.01 0.01,0 0,0.01 0,0 0.01,0.01 0,0.01 0,0 0,0.01 0.01,0.01 0,0 0,0.01 0,0.01 0,0.01 0,0.01 0,0 0,0.01 0,0.01 c 0,0.2 -0.18,0.2 -0.34,0.2 h -5.39 c -0.17,0 -0.35,0 -0.35,-0.2 0,-0.2 0.18,-0.2 0.35,-0.2 z"
           style="fill:#000000;stroke-width:0" /><path
           id="path4102"
           d="m 320.31,652.29 -0.05,-0.04 -0.05,-0.04 -0.05,-0.04 -0.04,-0.03 -0.05,-0.04 -0.04,-0.04 -0.04,-0.04 -0.04,-0.04 -0.04,-0.03 -0.04,-0.04 -0.03,-0.04 -0.03,-0.03 -0.04,-0.04 -0.03,-0.03 -0.03,-0.03 -0.02,-0.04 -0.03,-0.03 -0.03,-0.03 -0.02,-0.03 -0.02,-0.03 -0.02,-0.02 -0.02,-0.03 -0.02,-0.03 -0.02,-0.02 -0.02,-0.02 -0.01,-0.02 -0.02,-0.02 -0.01,-0.02 -0.01,-0.02 -0.01,-0.02 -0.01,-0.01 -0.01,-0.01 c -0.45,-0.69 -0.53,-1.32 -0.53,-1.33 0,-0.12 0.12,-0.12 0.2,-0.12 0.17,0 0.18,0.02 0.22,0.2 0.23,0.98 0.82,1.81 1.95,2.27 0.11,0.04 0.14,0.06 0.14,0.13 0,0.07 -0.05,0.1 -0.07,0.11 -0.44,0.17 -1.65,0.67 -2.03,2.34 -0.03,0.12 -0.04,0.15 -0.21,0.15 -0.08,0 -0.2,0 -0.2,-0.12 0,-0.02 0.09,-0.65 0.51,-1.31 0.2,-0.31 0.49,-0.65 0.92,-0.97 h -7.4 c -0.18,0 -0.36,0 -0.36,-0.2 0,-0.2 0.18,-0.2 0.36,-0.2 z"
           style="fill:#000000;stroke-width:0" /><path
           id="path4104"
           d="m 312.45,643.78 -0.01,-0.03 -0.01,-0.03 0,-0.02 -0.01,-0.03 -0.01,-0.03 0,-0.02 -0.01,-0.02 -0.01,-0.02 -0.01,-0.02 0,-0.02 -0.01,-0.02 -0.01,-0.01 -0.01,-0.02 -0.01,-0.01 -0.01,-0.02 -0.02,-0.01 -0.01,-0.01 -0.02,-0.01 -0.01,-0.01 -0.02,0 -0.02,-0.01 -0.02,-0.01 -0.02,0 -0.02,-0.01 -0.03,0 -0.02,-0.01 -0.02,0 -0.01,0 -0.02,0 -0.01,0 -0.02,0 -0.02,0 -0.01,0 -0.02,0 -0.02,0 -0.02,0 -0.02,0 -0.02,0 c -0.12,0 -0.23,0 -0.23,-0.19 0,-0.09 0.05,-0.12 0.13,-0.12 h 1.82 c 0.05,0 0.18,0 0.18,0.2 0,0.11 -0.1,0.11 -0.24,0.11 -0.5,0 -0.5,0.07 -0.5,0.15 0,0.13 0.43,1.75 0.49,2 0.14,-0.29 0.41,-0.64 0.92,-0.64 l -0.01,0.22 c -0.66,0 -0.79,0.83 -0.79,0.89 0,0.02 0,0.03 0.03,0.16 l 0.49,1.95 c 0.07,0.27 0.34,0.55 0.52,0.69 0.35,0.31 0.64,0.38 0.81,0.38 0.4,0 0.63,-0.34 0.63,-0.93 0,-0.59 -0.32,-1.73 -0.5,-2.11 -0.34,-0.7 -0.82,-1.03 -1.19,-1.03 l 0.01,-0.22 c 1.16,0 2.4,1.45 2.4,2.92 0,0.94 -0.57,1.59 -1.32,1.59 -0.5,0 -0.98,-0.36 -1.31,-0.74 -0.1,0.54 -0.53,0.74 -0.89,0.74 -0.46,0 -0.65,-0.38 -0.74,-0.56 -0.18,-0.34 -0.31,-0.94 -0.31,-0.97 0,-0.1 0.1,-0.1 0.12,-0.1 0.1,0 0.11,0.01 0.17,0.23 0.17,0.71 0.36,1.18 0.72,1.18 0.18,0 0.31,-0.08 0.31,-0.45 0,-0.23 -0.02,-0.34 -0.07,-0.51 z"
           style="fill:#000000;stroke-width:0" /><path
           id="path4106"
           d="m 320.6,646.23 0,0.14 -0.01,0.13 0,0.14 -0.01,0.12 -0.01,0.13 -0.02,0.12 -0.02,0.11 -0.02,0.11 -0.02,0.11 -0.03,0.11 -0.04,0.1 -0.03,0.1 -0.05,0.1 -0.04,0.09 -0.05,0.1 -0.03,0.05 -0.03,0.04 c -0.22,0.32 -0.65,0.6 -1.21,0.6 v -0.2 c 0.38,0 0.74,-0.22 0.86,-0.63 0.12,-0.37 0.12,-0.88 0.12,-1.48 0,-0.52 0,-1.04 -0.08,-1.48 -0.15,-0.63 -0.62,-0.79 -0.9,-0.79 h 0 c -0.32,0 -0.75,0.19 -0.89,0.77 -0.09,0.41 -0.09,0.98 -0.09,1.5 0,0.5 0,1.03 0.1,1.42 0.15,0.55 0.6,0.69 0.88,0.69 v 0.2 c -1.62,0 -1.62,-1.9 -1.62,-2.4 0,-0.51 0,-2.37 1.62,-2.37 1.62,0 1.62,1.86 1.62,2.37 z"
           style="fill:#000000;stroke-width:0" /></g>    </g>
    <text
       xml:space="preserve"
       style="font-size:16px;font-style:normal;font-weight:normal;fill:#000000;fill-opacity:1;stroke:none;font-family:Century;-inkscape-font-specification:Century"
       x="223.39349"
       y="770.9256"
       id="text4138"><tspan
         sodipodi:role="line"
         id="tspan4140"
         x="223.39349"
         y="770.9256">P</tspan></text>
    <text
       xml:space="preserve"
       style="font-size:16px;font-style:normal;font-weight:normal;fill:#000000;fill-opacity:1;stroke:none;font-family:Century;-inkscape-font-specification:Century"
       x="50.041801"
       y="1012.421"
       id="text4142"><tspan
         sodipodi:role="line"
         id="tspan4144"
         x="50.041801"
         y="1012.421">P<tspan
   style="font-size:9px"
   id="tspan4146">0</tspan></tspan></text>
    <g
       transform="matrix(5,0,0,5,-174.1799,901.38131)"
       id="g6348">
      <g
         style="font-style:normal;font-variant:normal;font-weight:normal;font-stretch:normal;letter-spacing:normal;word-spacing:normal;text-anchor:start;fill:none;stroke:#000000;stroke-linecap:butt;stroke-linejoin:miter;stroke-miterlimit:10.43299961;stroke-opacity:1;stroke-dasharray:none;stroke-dashoffset:0"
         id="g6350"
         transform="matrix(0.42857143,0,0,-0.42857143,-75,300)"
         xml:space="preserve"
         stroke-miterlimit="10.433"
         font-style="normal"
         font-variant="normal"
         font-weight="normal"
         font-stretch="normal"
         font-size-adjust="none"
         letter-spacing="normal"
         word-spacing="normal"><path
           style="fill:#000000;stroke-width:0"
           d="m 307.57,652.29 0.03,0 0.03,0 0.03,0 0.02,0.01 0.01,0 0.02,0 0.01,0 0.02,0 0.01,0 0.01,0.01 0.02,0 0.01,0 0.01,0.01 0.02,0 0.01,0.01 0.01,0 0.01,0.01 0.01,0.01 0.01,0.01 0.01,0.01 0,0.01 0.01,0 0,0.01 0,0 0.01,0.01 0,0.01 0,0 0,0.01 0.01,0.01 0,0 0,0.01 0,0.01 0,0.01 0,0.01 0,0 0,0.01 0,0.01 c 0,0.2 -0.18,0.2 -0.34,0.2 h -5.39 c -0.17,0 -0.35,0 -0.35,-0.2 0,-0.2 0.18,-0.2 0.35,-0.2 z"
           id="path6352" /><path
           style="fill:#000000;stroke-width:0"
           d="m 309.31,652.29 -0.05,-0.04 -0.05,-0.04 -0.05,-0.04 -0.04,-0.03 -0.05,-0.04 -0.04,-0.04 -0.04,-0.04 -0.04,-0.04 -0.04,-0.03 -0.04,-0.04 -0.03,-0.04 -0.03,-0.03 -0.04,-0.04 -0.03,-0.03 -0.03,-0.03 -0.02,-0.04 -0.03,-0.03 -0.03,-0.03 -0.02,-0.03 -0.02,-0.03 -0.02,-0.02 -0.02,-0.03 -0.02,-0.03 -0.02,-0.02 -0.02,-0.02 -0.01,-0.02 -0.02,-0.02 -0.01,-0.02 -0.01,-0.02 -0.01,-0.02 -0.01,-0.01 -0.01,-0.01 c -0.45,-0.69 -0.53,-1.32 -0.53,-1.33 0,-0.12 0.12,-0.12 0.2,-0.12 0.17,0 0.18,0.02 0.22,0.2 0.23,0.98 0.82,1.81 1.95,2.27 0.11,0.04 0.14,0.06 0.14,0.13 0,0.07 -0.05,0.1 -0.07,0.11 -0.44,0.17 -1.65,0.67 -2.03,2.34 -0.03,0.12 -0.04,0.15 -0.21,0.15 -0.08,0 -0.2,0 -0.2,-0.12 0,-0.02 0.09,-0.65 0.51,-1.31 0.2,-0.31 0.49,-0.65 0.92,-0.97 h -7.4 c -0.18,0 -0.36,0 -0.36,-0.2 0,-0.2 0.18,-0.2 0.36,-0.2 z"
           id="path6354" /><path
           style="fill:#000000;stroke-width:0"
           d="m 307.66,648.71 0,0.02 0,0.03 0,0.02 0,0.02 0,0.03 0,0.02 0,0.02 -0.01,0.02 0,0.04 -0.01,0.04 -0.01,0.04 -0.01,0.03 -0.01,0.03 -0.01,0.04 -0.01,0.02 -0.02,0.03 -0.01,0.03 -0.02,0.02 -0.01,0.02 -0.02,0.03 -0.02,0.01 -0.01,0.02 -0.02,0.02 -0.02,0.01 -0.02,0.02 -0.02,0.01 -0.01,0.01 -0.02,0.01 -0.02,0.01 -0.02,0 -0.02,0.01 -0.02,0 -0.01,0.01 -0.02,0 -0.02,0 -0.02,0 c -0.24,0 -0.49,-0.25 -0.49,-0.47 0,-0.13 0.06,-0.2 0.16,-0.3 0.22,-0.2 0.34,-0.46 0.34,-0.82 0,-0.42 -0.6,-2.7 -1.77,-2.7 -0.51,0 -0.74,0.35 -0.74,0.87 0,0.55 0.27,1.28 0.58,2.11 0.07,0.17 0.12,0.31 0.12,0.5 0,0.44 -0.32,0.81 -0.81,0.81 -0.94,0 -1.32,-1.44 -1.32,-1.53 0,-0.1 0.1,-0.1 0.12,-0.1 0.1,0 0.11,0.02 0.16,0.18 0.29,1.01 0.72,1.23 1,1.23 0.08,0 0.25,0 0.25,-0.31 0,-0.25 -0.1,-0.52 -0.17,-0.7 -0.44,-1.16 -0.56,-1.62 -0.56,-2.04 0,-1.08 0.87,-1.24 1.33,-1.24 1.67,0 2.24,3.3 2.24,3.82 z"
           id="path6356" /></g>    </g>
    <g
       id="g6672"
       transform="matrix(5,0,0,5,-169.21466,861.26301)">
      <g
         word-spacing="normal"
         letter-spacing="normal"
         font-size-adjust="none"
         font-stretch="normal"
         font-weight="normal"
         font-variant="normal"
         font-style="normal"
         stroke-miterlimit="10.433"
         xml:space="preserve"
         transform="matrix(0.42857143,0,0,-0.42857143,-75,300)"
         id="g6674"
         style="font-style:normal;font-variant:normal;font-weight:normal;font-stretch:normal;letter-spacing:normal;word-spacing:normal;text-anchor:start;fill:none;stroke:#000000;stroke-linecap:butt;stroke-linejoin:miter;stroke-miterlimit:10.43299961;stroke-opacity:1;stroke-dasharray:none;stroke-dashoffset:0"><path
           id="path6676"
           d="m 307.53,649.98 0,0.06 0,0.07 0,0.07 -0.01,0.08 0,0.07 -0.01,0.08 -0.01,0.09 -0.01,0.08 -0.02,0.08 -0.01,0.09 -0.02,0.08 -0.02,0.09 -0.02,0.08 -0.03,0.09 -0.02,0.08 -0.03,0.08 -0.04,0.08 -0.03,0.08 -0.04,0.07 -0.05,0.07 -0.04,0.07 -0.06,0.06 -0.05,0.06 -0.06,0.06 -0.06,0.05 -0.03,0.02 -0.04,0.02 -0.03,0.02 -0.04,0.02 -0.03,0.02 -0.04,0.01 -0.04,0.02 -0.04,0.01 -0.04,0.01 -0.04,0.01 -0.05,0 -0.04,0.01 -0.05,0 -0.04,0 -0.01,-0.22 c 0.49,0 0.55,-0.63 0.55,-1.2 0,-0.49 -0.08,-1 -0.32,-1.98 h -2.09 c 0.17,0.63 0.37,1.43 0.77,2.14 0.27,0.49 0.64,1.04 1.09,1.04 l 0.01,0.22 c -1.39,0 -2.92,-2.8 -2.92,-5.09 0,-0.93 0.29,-2.04 1.19,-2.04 v 0.22 c -0.32,0 -0.54,0.29 -0.54,1.21 0,0.42 0.07,1 0.32,1.98 h 2.08 c -0.11,-0.46 -0.32,-1.31 -0.7,-2.03 -0.35,-0.67 -0.73,-1.16 -1.16,-1.16 v -0.22 c 1.41,0 2.92,2.86 2.92,5.09 z"
           style="fill:#000000;stroke-width:0" /></g>    </g>
    <g
       id="g2950"
       transform="matrix(5,0,0,5,29.198903,700.91354)">
      <g
         id="g2952"
         transform="matrix(0.42857143,0,0,-0.42857143,-75,300)"
         xml:space="preserve"
         stroke-miterlimit="10.433"
         font-style="normal"
         font-variant="normal"
         font-weight="normal"
         font-stretch="normal"
         font-size-adjust="none"
         letter-spacing="normal"
         word-spacing="normal"
         style="font-style:normal;font-variant:normal;font-weight:normal;font-stretch:normal;letter-spacing:normal;word-spacing:normal;text-anchor:start;fill:none;stroke:#000000;stroke-linecap:butt;stroke-linejoin:miter;stroke-miterlimit:10.43299961;stroke-opacity:1;stroke-dasharray:none;stroke-dashoffset:0"><path
           d="m 278.59,652.11 0,0.04 0,0.03 -0.01,0.03 0,0.02 0,0.02 0,0.01 0,0.02 0,0.01 0,0.02 -0.01,0.01 0,0.01 0,0.02 -0.01,0.01 0,0.01 -0.01,0.01 -0.01,0.02 0,0.01 -0.01,0.01 -0.01,0.01 -0.01,0 -0.01,0.01 -0.01,0.01 0,0 -0.01,0.01 -0.01,0 0,0 -0.01,0 -0.01,0 0,0.01 -0.01,0 -0.01,0 -0.01,0 -0.01,0 0,0 -0.01,0 -0.01,0 c -0.2,0 -0.2,-0.18 -0.2,-0.36 v -9.24 c 0,-0.18 0,-0.36 0.2,-0.36 0.2,0 0.2,0.18 0.2,0.36 z"
           id="path2954"
           style="fill:#000000;stroke-width:0" /><path
           d="m 285.57,652.29 0.03,0 0.03,0 0.03,0 0.02,0.01 0.01,0 0.02,0 0.01,0 0.02,0 0.01,0 0.01,0.01 0.02,0 0.01,0 0.01,0.01 0.02,0 0.01,0.01 0.01,0 0.01,0.01 0.01,0.01 0.01,0.01 0.01,0.01 0,0.01 0.01,0 0,0.01 0,0 0.01,0.01 0,0.01 0,0 0,0.01 0.01,0.01 0,0 0,0.01 0,0.01 0,0.01 0,0.01 0,0 0,0.01 0,0.01 c 0,0.2 -0.18,0.2 -0.34,0.2 h -5.39 c -0.17,0 -0.35,0 -0.35,-0.2 0,-0.2 0.18,-0.2 0.35,-0.2 z"
           id="path2956"
           style="fill:#000000;stroke-width:0" /><path
           d="m 287.31,652.29 -0.05,-0.04 -0.05,-0.04 -0.05,-0.04 -0.04,-0.03 -0.05,-0.04 -0.04,-0.04 -0.04,-0.04 -0.04,-0.04 -0.04,-0.03 -0.04,-0.04 -0.03,-0.04 -0.03,-0.03 -0.04,-0.04 -0.03,-0.03 -0.03,-0.03 -0.02,-0.04 -0.03,-0.03 -0.03,-0.03 -0.02,-0.03 -0.02,-0.03 -0.02,-0.02 -0.02,-0.03 -0.02,-0.03 -0.02,-0.02 -0.02,-0.02 -0.01,-0.02 -0.02,-0.02 -0.01,-0.02 -0.01,-0.02 -0.01,-0.02 -0.01,-0.01 -0.01,-0.01 c -0.45,-0.69 -0.53,-1.32 -0.53,-1.33 0,-0.12 0.12,-0.12 0.2,-0.12 0.17,0 0.18,0.02 0.22,0.2 0.23,0.98 0.82,1.81 1.95,2.27 0.11,0.04 0.14,0.06 0.14,0.13 0,0.07 -0.05,0.1 -0.07,0.11 -0.44,0.17 -1.65,0.67 -2.03,2.34 -0.03,0.12 -0.04,0.15 -0.21,0.15 -0.08,0 -0.2,0 -0.2,-0.12 0,-0.02 0.09,-0.65 0.51,-1.31 0.2,-0.31 0.49,-0.65 0.92,-0.97 h -7.4 c -0.18,0 -0.36,0 -0.36,-0.2 0,-0.2 0.18,-0.2 0.36,-0.2 z"
           id="path2958"
           style="fill:#000000;stroke-width:0" /><path
           d="m 282.45,643.78 -0.01,-0.03 -0.01,-0.03 0,-0.02 -0.01,-0.03 -0.01,-0.03 0,-0.02 -0.01,-0.02 -0.01,-0.02 -0.01,-0.02 0,-0.02 -0.01,-0.02 -0.01,-0.01 -0.01,-0.02 -0.01,-0.01 -0.01,-0.02 -0.02,-0.01 -0.01,-0.01 -0.02,-0.01 -0.01,-0.01 -0.02,0 -0.02,-0.01 -0.02,-0.01 -0.02,0 -0.02,-0.01 -0.03,0 -0.02,-0.01 -0.02,0 -0.01,0 -0.02,0 -0.01,0 -0.02,0 -0.02,0 -0.01,0 -0.02,0 -0.02,0 -0.02,0 -0.02,0 -0.02,0 c -0.12,0 -0.23,0 -0.23,-0.19 0,-0.09 0.05,-0.12 0.13,-0.12 h 1.82 c 0.05,0 0.18,0 0.18,0.2 0,0.11 -0.1,0.11 -0.24,0.11 -0.5,0 -0.5,0.07 -0.5,0.15 0,0.13 0.43,1.75 0.49,2 0.14,-0.29 0.41,-0.64 0.92,-0.64 l -0.01,0.22 c -0.66,0 -0.79,0.83 -0.79,0.89 0,0.02 0,0.03 0.03,0.16 l 0.49,1.95 c 0.07,0.27 0.34,0.55 0.52,0.69 0.35,0.31 0.64,0.38 0.81,0.38 0.4,0 0.63,-0.34 0.63,-0.93 0,-0.59 -0.32,-1.73 -0.5,-2.11 -0.34,-0.7 -0.82,-1.03 -1.19,-1.03 l 0.01,-0.22 c 1.16,0 2.4,1.45 2.4,2.92 0,0.94 -0.57,1.59 -1.32,1.59 -0.5,0 -0.98,-0.36 -1.31,-0.74 -0.1,0.54 -0.53,0.74 -0.89,0.74 -0.46,0 -0.65,-0.38 -0.74,-0.56 -0.18,-0.34 -0.31,-0.94 -0.31,-0.97 0,-0.1 0.1,-0.1 0.12,-0.1 0.1,0 0.11,0.01 0.17,0.23 0.17,0.71 0.36,1.18 0.72,1.18 0.18,0 0.31,-0.08 0.31,-0.45 0,-0.23 -0.02,-0.34 -0.07,-0.51 z"
           id="path2960"
           style="fill:#000000;stroke-width:0" /><path
           d="m 297.57,647.29 0.03,0 0.03,0 0.03,0 0.02,0.01 0.01,0 0.02,0 0.01,0 0.02,0 0.01,0 0.01,0.01 0.02,0 0.01,0 0.01,0.01 0.02,0 0.01,0.01 0.01,0 0.01,0.01 0.01,0.01 0.01,0.01 0.01,0.01 0,0.01 0.01,0 0,0.01 0,0 0.01,0.01 0,0.01 0,0 0,0.01 0.01,0.01 0,0 0,0.01 0,0.01 0,0.01 0,0.01 0,0 0,0.01 0,0.01 c 0,0.2 -0.18,0.2 -0.34,0.2 h -5.39 c -0.17,0 -0.35,0 -0.35,-0.2 0,-0.2 0.18,-0.2 0.35,-0.2 z"
           id="path2962"
           style="fill:#000000;stroke-width:0" /><path
           d="m 307.57,652.29 0.03,0 0.03,0 0.03,0 0.02,0.01 0.01,0 0.02,0 0.01,0 0.02,0 0.01,0 0.01,0.01 0.02,0 0.01,0 0.01,0.01 0.02,0 0.01,0.01 0.01,0 0.01,0.01 0.01,0.01 0.01,0.01 0.01,0.01 0,0.01 0.01,0 0,0.01 0,0 0.01,0.01 0,0.01 0,0 0,0.01 0.01,0.01 0,0 0,0.01 0,0.01 0,0.01 0,0.01 0,0 0,0.01 0,0.01 c 0,0.2 -0.18,0.2 -0.34,0.2 h -5.39 c -0.17,0 -0.35,0 -0.35,-0.2 0,-0.2 0.18,-0.2 0.35,-0.2 z"
           id="path2964"
           style="fill:#000000;stroke-width:0" /><path
           d="m 309.31,652.29 -0.05,-0.04 -0.05,-0.04 -0.05,-0.04 -0.04,-0.03 -0.05,-0.04 -0.04,-0.04 -0.04,-0.04 -0.04,-0.04 -0.04,-0.03 -0.04,-0.04 -0.03,-0.04 -0.03,-0.03 -0.04,-0.04 -0.03,-0.03 -0.03,-0.03 -0.02,-0.04 -0.03,-0.03 -0.03,-0.03 -0.02,-0.03 -0.02,-0.03 -0.02,-0.02 -0.02,-0.03 -0.02,-0.03 -0.02,-0.02 -0.02,-0.02 -0.01,-0.02 -0.02,-0.02 -0.01,-0.02 -0.01,-0.02 -0.01,-0.02 -0.01,-0.01 -0.01,-0.01 c -0.45,-0.69 -0.53,-1.32 -0.53,-1.33 0,-0.12 0.12,-0.12 0.2,-0.12 0.17,0 0.18,0.02 0.22,0.2 0.23,0.98 0.82,1.81 1.95,2.27 0.11,0.04 0.14,0.06 0.14,0.13 0,0.07 -0.05,0.1 -0.07,0.11 -0.44,0.17 -1.65,0.67 -2.03,2.34 -0.03,0.12 -0.04,0.15 -0.21,0.15 -0.08,0 -0.2,0 -0.2,-0.12 0,-0.02 0.09,-0.65 0.51,-1.31 0.2,-0.31 0.49,-0.65 0.92,-0.97 h -7.4 c -0.18,0 -0.36,0 -0.36,-0.2 0,-0.2 0.18,-0.2 0.36,-0.2 z"
           id="path2966"
           style="fill:#000000;stroke-width:0" /><path
           d="m 302.45,643.78 -0.01,-0.03 -0.01,-0.03 0,-0.02 -0.01,-0.03 -0.01,-0.03 0,-0.02 -0.01,-0.02 -0.01,-0.02 -0.01,-0.02 0,-0.02 -0.01,-0.02 -0.01,-0.01 -0.01,-0.02 -0.01,-0.01 -0.01,-0.02 -0.02,-0.01 -0.01,-0.01 -0.02,-0.01 -0.01,-0.01 -0.02,0 -0.02,-0.01 -0.02,-0.01 -0.02,0 -0.02,-0.01 -0.03,0 -0.02,-0.01 -0.02,0 -0.01,0 -0.02,0 -0.01,0 -0.02,0 -0.02,0 -0.01,0 -0.02,0 -0.02,0 -0.02,0 -0.02,0 -0.02,0 c -0.12,0 -0.23,0 -0.23,-0.19 0,-0.09 0.05,-0.12 0.13,-0.12 h 1.82 c 0.05,0 0.18,0 0.18,0.2 0,0.11 -0.1,0.11 -0.24,0.11 -0.5,0 -0.5,0.07 -0.5,0.15 0,0.13 0.43,1.75 0.49,2 0.14,-0.29 0.41,-0.64 0.92,-0.64 l -0.01,0.22 c -0.66,0 -0.79,0.83 -0.79,0.89 0,0.02 0,0.03 0.03,0.16 l 0.49,1.95 c 0.07,0.27 0.34,0.55 0.52,0.69 0.35,0.31 0.64,0.38 0.81,0.38 0.4,0 0.63,-0.34 0.63,-0.93 0,-0.59 -0.32,-1.73 -0.5,-2.11 -0.34,-0.7 -0.82,-1.03 -1.19,-1.03 l 0.01,-0.22 c 1.16,0 2.4,1.45 2.4,2.92 0,0.94 -0.57,1.59 -1.32,1.59 -0.5,0 -0.98,-0.36 -1.31,-0.74 -0.1,0.54 -0.53,0.74 -0.89,0.74 -0.46,0 -0.65,-0.38 -0.74,-0.56 -0.18,-0.34 -0.31,-0.94 -0.31,-0.97 0,-0.1 0.1,-0.1 0.12,-0.1 0.1,0 0.11,0.01 0.17,0.23 0.17,0.71 0.36,1.18 0.72,1.18 0.18,0 0.31,-0.08 0.31,-0.45 0,-0.23 -0.02,-0.34 -0.07,-0.51 z"
           id="path2968"
           style="fill:#000000;stroke-width:0" /><path
           d="m 310.6,646.23 0,0.14 -0.01,0.13 0,0.14 -0.01,0.12 -0.01,0.13 -0.02,0.12 -0.02,0.11 -0.02,0.11 -0.02,0.11 -0.03,0.11 -0.04,0.1 -0.03,0.1 -0.05,0.1 -0.04,0.09 -0.05,0.1 -0.03,0.05 -0.03,0.04 c -0.22,0.32 -0.65,0.6 -1.21,0.6 v -0.2 c 0.38,0 0.74,-0.22 0.86,-0.63 0.12,-0.37 0.12,-0.88 0.12,-1.48 0,-0.52 0,-1.04 -0.08,-1.48 -0.15,-0.63 -0.62,-0.79 -0.9,-0.79 h 0 c -0.32,0 -0.75,0.19 -0.89,0.77 -0.09,0.41 -0.09,0.98 -0.09,1.5 0,0.5 0,1.03 0.1,1.42 0.15,0.55 0.6,0.69 0.88,0.69 v 0.2 c -1.62,0 -1.62,-1.9 -1.62,-2.4 0,-0.51 0,-2.37 1.62,-2.37 1.62,0 1.62,1.86 1.62,2.37 z"
           id="path2970"
           style="fill:#000000;stroke-width:0" /><path
           d="m 312.59,652.11 0,0.04 0,0.03 -0.01,0.03 0,0.02 0,0.02 0,0.01 0,0.02 0,0.01 0,0.02 -0.01,0.01 0,0.01 0,0.02 -0.01,0.01 0,0.01 -0.01,0.01 -0.01,0.02 0,0.01 -0.01,0.01 -0.01,0.01 -0.01,0 -0.01,0.01 -0.01,0.01 0,0 -0.01,0.01 -0.01,0 0,0 -0.01,0 -0.01,0 0,0.01 -0.01,0 -0.01,0 -0.01,0 -0.01,0 0,0 -0.01,0 -0.01,0 c -0.2,0 -0.2,-0.18 -0.2,-0.36 v -9.24 c 0,-0.18 0,-0.36 0.2,-0.36 0.2,0 0.2,0.18 0.2,0.36 z"
           id="path2972"
           style="fill:#000000;stroke-width:0" /><path
           d="m 318.07,646.93 0.02,0 0.03,0 0.03,-0.01 0.03,-0.01 0.03,0 0.04,-0.01 0.04,-0.01 0.04,-0.01 0.04,-0.02 0.04,-0.01 0.04,-0.02 0.05,-0.01 0.04,-0.02 0.05,-0.02 0.04,-0.03 0.04,-0.02 0.05,-0.03 0.04,-0.03 0.04,-0.03 0.04,-0.03 0.04,-0.03 0.03,-0.04 0.04,-0.04 0.03,-0.04 0.03,-0.05 0.01,-0.02 0.01,-0.03 0.01,-0.02 0.01,-0.03 0.01,-0.02 0.01,-0.03 0.01,-0.03 0.01,-0.03 0,-0.03 0.01,-0.03 0,-0.03 0.01,-0.03 0,-0.03 0,-0.03 c 0,-0.51 -0.35,-0.91 -1.13,-0.91 -0.84,0 -1.19,0.57 -1.38,1.41 -0.03,0.13 -0.04,0.18 -0.14,0.18 -0.13,0 -0.13,-0.07 -0.13,-0.25 v -1.32 c 0,-0.17 0,-0.24 0.11,-0.24 0.05,0 0.06,0.01 0.25,0.2 0.02,0.02 0.02,0.04 0.2,0.23 0.43,-0.42 0.88,-0.43 1.09,-0.43 1.15,0 1.61,0.67 1.61,1.38 0,0.53 -0.3,0.83 -0.42,0.95 -0.33,0.32 -0.72,0.4 -1.14,0.48 -0.56,0.11 -1.22,0.24 -1.22,0.82 0,0.35 0.26,0.75 1.11,0.75 1.1,0 1.15,-0.89 1.17,-1.2 0.01,-0.09 0.1,-0.09 0.12,-0.09 0.13,0 0.13,0.05 0.13,0.24 v 1 c 0,0.18 0,0.25 -0.11,0.25 -0.05,0 -0.07,0 -0.2,-0.13 -0.03,-0.04 -0.13,-0.12 -0.17,-0.16 -0.38,0.29 -0.79,0.29 -0.94,0.29 -1.21,0 -1.59,-0.67 -1.59,-1.23 0,-0.35 0.16,-0.63 0.43,-0.85 0.31,-0.26 0.6,-0.32 1.31,-0.46 z"
           id="path2974"
           style="fill:#000000;stroke-width:0" /><path
           d="m 321.76,649.4 -1.39,-0.11 v -0.31 c 0.65,0 0.74,-0.05 0.74,-0.54 v -2.68 c 0,-0.45 -0.11,-0.45 -0.78,-0.45 V 645 h 2.13 v 0.31 c -0.66,0 -0.7,0.05 -0.7,0.44 z"
           id="path2976"
           style="fill:#000000;stroke-width:0" /><path
           d="m 321.8,651.14 0,0.03 0,0.03 0,0.02 -0.01,0.03 0,0.03 -0.01,0.02 -0.01,0.03 -0.01,0.02 -0.01,0.03 -0.01,0.02 -0.01,0.02 -0.02,0.02 -0.01,0.02 -0.02,0.02 -0.02,0.02 -0.02,0.02 -0.01,0.02 -0.02,0.01 -0.02,0.02 -0.02,0.01 -0.03,0.01 -0.02,0.02 -0.02,0.01 -0.02,0.01 -0.03,0.01 -0.02,0 -0.03,0.01 -0.02,0 -0.03,0.01 -0.02,0 -0.03,0 -0.03,0 c -0.31,0 -0.52,-0.26 -0.52,-0.52 0,-0.27 0.21,-0.53 0.52,-0.53 0.28,0 0.53,0.21 0.53,0.53 z"
           id="path2978"
           style="fill:#000000;stroke-width:0" /><path
           d="m 324.1,648.43 v -2.67 c 0,-0.45 -0.12,-0.45 -0.78,-0.45 V 645 h 2.24 v 0.31 c -0.67,0 -0.77,0 -0.77,0.45 v 1.83 c 0,1.04 0.7,1.59 1.34,1.59 0.63,0 0.74,-0.53 0.74,-1.1 v -2.32 c 0,-0.45 -0.11,-0.45 -0.78,-0.45 V 645 h 2.24 v 0.31 c -0.52,0 -0.77,0 -0.78,0.3 v 1.9 c 0,0.86 0,1.17 -0.31,1.52 -0.13,0.17 -0.46,0.37 -1.04,0.37 -0.73,0 -1.2,-0.42 -1.48,-1.05 v 1.05 l -1.4,-0.11 v -0.31 c 0.7,0 0.78,-0.07 0.78,-0.55 z"
           id="path2980"
           style="fill:#000000;stroke-width:0" /><path
           d="m 334.53,649.98 0,0.06 0,0.07 0,0.07 -0.01,0.08 0,0.07 -0.01,0.08 -0.01,0.09 -0.01,0.08 -0.02,0.08 -0.01,0.09 -0.02,0.08 -0.02,0.09 -0.02,0.08 -0.03,0.09 -0.02,0.08 -0.03,0.08 -0.04,0.08 -0.03,0.08 -0.04,0.07 -0.05,0.07 -0.04,0.07 -0.06,0.06 -0.05,0.06 -0.06,0.06 -0.06,0.05 -0.03,0.02 -0.04,0.02 -0.03,0.02 -0.04,0.02 -0.03,0.02 -0.04,0.01 -0.04,0.02 -0.04,0.01 -0.04,0.01 -0.04,0.01 -0.05,0 -0.04,0.01 -0.05,0 -0.04,0 -0.01,-0.22 c 0.49,0 0.55,-0.63 0.55,-1.2 0,-0.49 -0.08,-1 -0.32,-1.98 h -2.09 c 0.17,0.63 0.37,1.43 0.77,2.14 0.27,0.49 0.64,1.04 1.09,1.04 l 0.01,0.22 c -1.39,0 -2.92,-2.8 -2.92,-5.09 0,-0.93 0.29,-2.04 1.19,-2.04 v 0.22 c -0.32,0 -0.54,0.29 -0.54,1.21 0,0.42 0.07,1 0.32,1.98 h 2.08 c -0.11,-0.46 -0.32,-1.31 -0.7,-2.03 -0.35,-0.67 -0.73,-1.16 -1.16,-1.16 v -0.22 c 1.41,0 2.92,2.86 2.92,5.09 z"
           id="path2982"
           style="fill:#000000;stroke-width:0" /></g>    </g>
    <g
       id="g3160"
       transform="matrix(5,0,0,5,-34.971053,855.71728)">
      <g
         word-spacing="normal"
         letter-spacing="normal"
         font-size-adjust="none"
         font-stretch="normal"
         font-weight="normal"
         font-variant="normal"
         font-style="normal"
         stroke-miterlimit="10.433"
         xml:space="preserve"
         transform="matrix(0.42857143,0,0,-0.42857143,-75,300)"
         id="g3162"
         style="font-style:normal;font-variant:normal;font-weight:normal;font-stretch:normal;letter-spacing:normal;word-spacing:normal;text-anchor:start;fill:none;stroke:#000000;stroke-linecap:butt;stroke-linejoin:miter;stroke-miterlimit:10.43299961;stroke-opacity:1;stroke-dasharray:none;stroke-dashoffset:0"><path
           id="path3164"
           d="m 277.59,652.11 0,0.04 0,0.03 -0.01,0.03 0,0.02 0,0.02 0,0.01 0,0.02 0,0.01 0,0.02 -0.01,0.01 0,0.01 0,0.02 -0.01,0.01 0,0.01 -0.01,0.01 -0.01,0.02 0,0.01 -0.01,0.01 -0.01,0.01 -0.01,0 -0.01,0.01 -0.01,0.01 0,0 -0.01,0.01 -0.01,0 0,0 -0.01,0 -0.01,0 0,0.01 -0.01,0 -0.01,0 -0.01,0 -0.01,0 0,0 -0.01,0 -0.01,0 c -0.2,0 -0.2,-0.18 -0.2,-0.36 v -9.24 c 0,-0.18 0,-0.36 0.2,-0.36 0.2,0 0.2,0.18 0.2,0.36 z"
           style="fill:#000000;stroke-width:0" /><path
           id="path3166"
           d="m 285.57,652.29 0.03,0 0.03,0 0.03,0 0.02,0.01 0.01,0 0.02,0 0.01,0 0.02,0 0.01,0 0.01,0.01 0.02,0 0.01,0 0.01,0.01 0.02,0 0.01,0.01 0.01,0 0.01,0.01 0.01,0.01 0.01,0.01 0.01,0.01 0,0.01 0.01,0 0,0.01 0,0 0.01,0.01 0,0.01 0,0 0,0.01 0.01,0.01 0,0 0,0.01 0,0.01 0,0.01 0,0.01 0,0 0,0.01 0,0.01 c 0,0.2 -0.18,0.2 -0.34,0.2 h -5.39 c -0.17,0 -0.35,0 -0.35,-0.2 0,-0.2 0.18,-0.2 0.35,-0.2 z"
           style="fill:#000000;stroke-width:0" /><path
           id="path3168"
           d="m 287.31,652.29 -0.05,-0.04 -0.05,-0.04 -0.05,-0.04 -0.04,-0.03 -0.05,-0.04 -0.04,-0.04 -0.04,-0.04 -0.04,-0.04 -0.04,-0.03 -0.04,-0.04 -0.03,-0.04 -0.03,-0.03 -0.04,-0.04 -0.03,-0.03 -0.03,-0.03 -0.02,-0.04 -0.03,-0.03 -0.03,-0.03 -0.02,-0.03 -0.02,-0.03 -0.02,-0.02 -0.02,-0.03 -0.02,-0.03 -0.02,-0.02 -0.02,-0.02 -0.01,-0.02 -0.02,-0.02 -0.01,-0.02 -0.01,-0.02 -0.01,-0.02 -0.01,-0.01 -0.01,-0.01 c -0.45,-0.69 -0.53,-1.32 -0.53,-1.33 0,-0.12 0.12,-0.12 0.2,-0.12 0.17,0 0.18,0.02 0.22,0.2 0.23,0.98 0.82,1.81 1.95,2.27 0.11,0.04 0.14,0.06 0.14,0.13 0,0.07 -0.05,0.1 -0.07,0.11 -0.44,0.17 -1.65,0.67 -2.03,2.34 -0.03,0.12 -0.04,0.15 -0.21,0.15 -0.08,0 -0.2,0 -0.2,-0.12 0,-0.02 0.09,-0.65 0.51,-1.31 0.2,-0.31 0.49,-0.65 0.92,-0.97 h -7.4 c -0.18,0 -0.36,0 -0.36,-0.2 0,-0.2 0.18,-0.2 0.36,-0.2 z"
           style="fill:#000000;stroke-width:0" /><path
           id="path3170"
           d="m 281.45,643.78 -0.01,-0.03 -0.01,-0.03 0,-0.02 -0.01,-0.03 -0.01,-0.03 0,-0.02 -0.01,-0.02 -0.01,-0.02 -0.01,-0.02 0,-0.02 -0.01,-0.02 -0.01,-0.01 -0.01,-0.02 -0.01,-0.01 -0.01,-0.02 -0.02,-0.01 -0.01,-0.01 -0.02,-0.01 -0.01,-0.01 -0.02,0 -0.02,-0.01 -0.02,-0.01 -0.02,0 -0.02,-0.01 -0.03,0 -0.02,-0.01 -0.02,0 -0.01,0 -0.02,0 -0.01,0 -0.02,0 -0.02,0 -0.01,0 -0.02,0 -0.02,0 -0.02,0 -0.02,0 -0.02,0 c -0.12,0 -0.23,0 -0.23,-0.19 0,-0.09 0.05,-0.12 0.13,-0.12 h 1.82 c 0.05,0 0.18,0 0.18,0.2 0,0.11 -0.1,0.11 -0.24,0.11 -0.5,0 -0.5,0.07 -0.5,0.15 0,0.13 0.43,1.75 0.49,2 0.14,-0.29 0.41,-0.64 0.92,-0.64 l -0.01,0.22 c -0.66,0 -0.79,0.83 -0.79,0.89 0,0.02 0,0.03 0.03,0.16 l 0.49,1.95 c 0.07,0.27 0.34,0.55 0.52,0.69 0.35,0.31 0.64,0.38 0.81,0.38 0.4,0 0.63,-0.34 0.63,-0.93 0,-0.59 -0.32,-1.73 -0.5,-2.11 -0.34,-0.7 -0.82,-1.03 -1.19,-1.03 l 0.01,-0.22 c 1.16,0 2.4,1.45 2.4,2.92 0,0.94 -0.57,1.59 -1.32,1.59 -0.5,0 -0.98,-0.36 -1.31,-0.74 -0.1,0.54 -0.53,0.74 -0.89,0.74 -0.46,0 -0.65,-0.38 -0.74,-0.56 -0.18,-0.34 -0.31,-0.94 -0.31,-0.97 0,-0.1 0.1,-0.1 0.12,-0.1 0.1,0 0.11,0.01 0.17,0.23 0.17,0.71 0.36,1.18 0.72,1.18 0.18,0 0.31,-0.08 0.31,-0.45 0,-0.23 -0.02,-0.34 -0.07,-0.51 z"
           style="fill:#000000;stroke-width:0" /><path
           id="path3172"
           d="m 297.57,647.29 0.03,0 0.03,0 0.03,0 0.02,0.01 0.01,0 0.02,0 0.01,0 0.02,0 0.01,0 0.01,0.01 0.02,0 0.01,0 0.01,0.01 0.02,0 0.01,0.01 0.01,0 0.01,0.01 0.01,0.01 0.01,0.01 0.01,0.01 0,0.01 0.01,0 0,0.01 0,0 0.01,0.01 0,0.01 0,0 0,0.01 0.01,0.01 0,0 0,0.01 0,0.01 0,0.01 0,0.01 0,0 0,0.01 0,0.01 c 0,0.2 -0.18,0.2 -0.34,0.2 h -5.39 c -0.17,0 -0.35,0 -0.35,-0.2 0,-0.2 0.18,-0.2 0.35,-0.2 z"
           style="fill:#000000;stroke-width:0" /><path
           id="path3174"
           d="m 307.57,652.29 0.03,0 0.03,0 0.03,0 0.02,0.01 0.01,0 0.02,0 0.01,0 0.02,0 0.01,0 0.01,0.01 0.02,0 0.01,0 0.01,0.01 0.02,0 0.01,0.01 0.01,0 0.01,0.01 0.01,0.01 0.01,0.01 0.01,0.01 0,0.01 0.01,0 0,0.01 0,0 0.01,0.01 0,0.01 0,0 0,0.01 0.01,0.01 0,0 0,0.01 0,0.01 0,0.01 0,0.01 0,0 0,0.01 0,0.01 c 0,0.2 -0.18,0.2 -0.34,0.2 h -5.39 c -0.17,0 -0.35,0 -0.35,-0.2 0,-0.2 0.18,-0.2 0.35,-0.2 z"
           style="fill:#000000;stroke-width:0" /><path
           id="path3176"
           d="m 309.31,652.29 -0.05,-0.04 -0.05,-0.04 -0.05,-0.04 -0.04,-0.03 -0.05,-0.04 -0.04,-0.04 -0.04,-0.04 -0.04,-0.04 -0.04,-0.03 -0.04,-0.04 -0.03,-0.04 -0.03,-0.03 -0.04,-0.04 -0.03,-0.03 -0.03,-0.03 -0.02,-0.04 -0.03,-0.03 -0.03,-0.03 -0.02,-0.03 -0.02,-0.03 -0.02,-0.02 -0.02,-0.03 -0.02,-0.03 -0.02,-0.02 -0.02,-0.02 -0.01,-0.02 -0.02,-0.02 -0.01,-0.02 -0.01,-0.02 -0.01,-0.02 -0.01,-0.01 -0.01,-0.01 c -0.45,-0.69 -0.53,-1.32 -0.53,-1.33 0,-0.12 0.12,-0.12 0.2,-0.12 0.17,0 0.18,0.02 0.22,0.2 0.23,0.98 0.82,1.81 1.95,2.27 0.11,0.04 0.14,0.06 0.14,0.13 0,0.07 -0.05,0.1 -0.07,0.11 -0.44,0.17 -1.65,0.67 -2.03,2.34 -0.03,0.12 -0.04,0.15 -0.21,0.15 -0.08,0 -0.2,0 -0.2,-0.12 0,-0.02 0.09,-0.65 0.51,-1.31 0.2,-0.31 0.49,-0.65 0.92,-0.97 h -7.4 c -0.18,0 -0.36,0 -0.36,-0.2 0,-0.2 0.18,-0.2 0.36,-0.2 z"
           style="fill:#000000;stroke-width:0" /><path
           id="path3178"
           d="m 301.45,643.78 -0.01,-0.03 -0.01,-0.03 0,-0.02 -0.01,-0.03 -0.01,-0.03 0,-0.02 -0.01,-0.02 -0.01,-0.02 -0.01,-0.02 0,-0.02 -0.01,-0.02 -0.01,-0.01 -0.01,-0.02 -0.01,-0.01 -0.01,-0.02 -0.02,-0.01 -0.01,-0.01 -0.02,-0.01 -0.01,-0.01 -0.02,0 -0.02,-0.01 -0.02,-0.01 -0.02,0 -0.02,-0.01 -0.03,0 -0.02,-0.01 -0.02,0 -0.01,0 -0.02,0 -0.01,0 -0.02,0 -0.02,0 -0.01,0 -0.02,0 -0.02,0 -0.02,0 -0.02,0 -0.02,0 c -0.12,0 -0.23,0 -0.23,-0.19 0,-0.09 0.05,-0.12 0.13,-0.12 h 1.82 c 0.05,0 0.18,0 0.18,0.2 0,0.11 -0.1,0.11 -0.24,0.11 -0.5,0 -0.5,0.07 -0.5,0.15 0,0.13 0.43,1.75 0.49,2 0.14,-0.29 0.41,-0.64 0.92,-0.64 l -0.01,0.22 c -0.66,0 -0.79,0.83 -0.79,0.89 0,0.02 0,0.03 0.03,0.16 l 0.49,1.95 c 0.07,0.27 0.34,0.55 0.52,0.69 0.35,0.31 0.64,0.38 0.81,0.38 0.4,0 0.63,-0.34 0.63,-0.93 0,-0.59 -0.32,-1.73 -0.5,-2.11 -0.34,-0.7 -0.82,-1.03 -1.19,-1.03 l 0.01,-0.22 c 1.16,0 2.4,1.45 2.4,2.92 0,0.94 -0.57,1.59 -1.32,1.59 -0.5,0 -0.98,-0.36 -1.31,-0.74 -0.1,0.54 -0.53,0.74 -0.89,0.74 -0.46,0 -0.65,-0.38 -0.74,-0.56 -0.18,-0.34 -0.31,-0.94 -0.31,-0.97 0,-0.1 0.1,-0.1 0.12,-0.1 0.1,0 0.11,0.01 0.17,0.23 0.17,0.71 0.36,1.18 0.72,1.18 0.18,0 0.31,-0.08 0.31,-0.45 0,-0.23 -0.02,-0.34 -0.07,-0.51 z"
           style="fill:#000000;stroke-width:0" /><path
           id="path3180"
           d="m 309.6,646.23 0,0.14 -0.01,0.13 0,0.14 -0.01,0.12 -0.01,0.13 -0.02,0.12 -0.02,0.11 -0.02,0.11 -0.02,0.11 -0.03,0.11 -0.04,0.1 -0.03,0.1 -0.05,0.1 -0.04,0.09 -0.05,0.1 -0.03,0.05 -0.03,0.04 c -0.22,0.32 -0.65,0.6 -1.21,0.6 v -0.2 c 0.38,0 0.74,-0.22 0.86,-0.63 0.12,-0.37 0.12,-0.88 0.12,-1.48 0,-0.52 0,-1.04 -0.08,-1.48 -0.15,-0.63 -0.62,-0.79 -0.9,-0.79 h 0 c -0.32,0 -0.75,0.19 -0.89,0.77 -0.09,0.41 -0.09,0.98 -0.09,1.5 0,0.5 0,1.03 0.1,1.42 0.15,0.55 0.6,0.69 0.88,0.69 v 0.2 c -1.62,0 -1.62,-1.9 -1.62,-2.4 0,-0.51 0,-2.37 1.62,-2.37 1.62,0 1.62,1.86 1.62,2.37 z"
           style="fill:#000000;stroke-width:0" /><path
           id="path3182"
           d="m 312.59,652.11 0,0.04 0,0.03 -0.01,0.03 0,0.02 0,0.02 0,0.01 0,0.02 0,0.01 0,0.02 -0.01,0.01 0,0.01 0,0.02 -0.01,0.01 0,0.01 -0.01,0.01 -0.01,0.02 0,0.01 -0.01,0.01 -0.01,0.01 -0.01,0 -0.01,0.01 -0.01,0.01 0,0 -0.01,0.01 -0.01,0 0,0 -0.01,0 -0.01,0 0,0.01 -0.01,0 -0.01,0 -0.01,0 -0.01,0 0,0 -0.01,0 -0.01,0 c -0.2,0 -0.2,-0.18 -0.2,-0.36 v -9.24 c 0,-0.18 0,-0.36 0.2,-0.36 0.2,0 0.2,0.18 0.2,0.36 z"
           style="fill:#000000;stroke-width:0" /><path
           id="path3184"
           d="m 316.16,647.17 0,0.08 0.01,0.07 0,0.07 0,0.07 0.01,0.07 0,0.07 0.01,0.06 0.01,0.07 0.01,0.06 0.01,0.06 0.01,0.06 0.01,0.05 0.03,0.11 0.03,0.11 0.03,0.09 0.04,0.1 0.04,0.08 0.04,0.08 0.05,0.08 0.04,0.07 0.05,0.06 0.05,0.06 0.05,0.06 0.05,0.05 0.06,0.05 0.05,0.04 0.06,0.03 0.06,0.04 0.05,0.03 0.06,0.02 0.06,0.03 0.05,0.02 0.06,0.01 0.05,0.01 0.06,0.01 0.05,0.01 0.05,0 0.05,0.01 c 0.09,0 0.72,-0.02 1.07,-0.38 -0.41,-0.02 -0.47,-0.32 -0.47,-0.45 0,-0.26 0.18,-0.46 0.46,-0.46 0.25,0 0.45,0.17 0.45,0.47 0,0.67 -0.75,1.07 -1.52,1.07 -1.25,0 -2.16,-1.08 -2.16,-2.32 0,-1.27 0.98,-2.26 2.14,-2.26 1.34,0 1.65,1.2 1.65,1.3 0,0.09 -0.09,0.09 -0.13,0.09 -0.09,0 -0.11,-0.03 -0.12,-0.09 -0.29,-0.93 -0.94,-1.05 -1.31,-1.05 -0.53,0 -1.41,0.43 -1.41,2.03 z"
           style="fill:#000000;stroke-width:0" /><path
           id="path3186"
           d="m 324.69,647.13 0,0.12 -0.01,0.12 -0.01,0.11 -0.02,0.12 -0.03,0.11 -0.03,0.11 -0.03,0.11 -0.04,0.1 -0.05,0.11 -0.05,0.1 -0.05,0.1 -0.06,0.09 -0.06,0.09 -0.06,0.09 -0.07,0.09 -0.08,0.08 -0.07,0.07 -0.08,0.08 -0.09,0.07 -0.08,0.06 -0.09,0.06 -0.09,0.06 -0.1,0.05 -0.1,0.05 -0.1,0.04 -0.1,0.04 -0.1,0.03 -0.11,0.03 -0.11,0.02 -0.11,0.01 -0.11,0.01 -0.11,0.01 -0.01,-0.23 c 0.44,0 0.87,-0.22 1.13,-0.64 0.26,-0.43 0.26,-1.01 0.26,-1.39 0,-0.36 0,-0.89 -0.23,-1.33 -0.21,-0.45 -0.65,-0.74 -1.15,-0.74 h 0 c -0.43,0 -0.86,0.21 -1.13,0.67 -0.25,0.44 -0.25,1.04 -0.25,1.4 0,0.39 0,0.93 0.23,1.37 0.27,0.45 0.74,0.66 1.14,0.66 l 0.01,0.23 c -1.24,0 -2.21,-1.09 -2.21,-2.34 0,-1.28 1.04,-2.24 2.2,-2.24 1.21,0 2.21,0.98 2.21,2.24 z"
           style="fill:#000000;stroke-width:0" /><path
           id="path3188"
           d="m 327.07,646.93 0.02,0 0.03,0 0.03,-0.01 0.03,-0.01 0.03,0 0.04,-0.01 0.04,-0.01 0.04,-0.01 0.04,-0.02 0.04,-0.01 0.04,-0.02 0.05,-0.01 0.04,-0.02 0.05,-0.02 0.04,-0.03 0.04,-0.02 0.05,-0.03 0.04,-0.03 0.04,-0.03 0.04,-0.03 0.04,-0.03 0.03,-0.04 0.04,-0.04 0.03,-0.04 0.03,-0.05 0.01,-0.02 0.01,-0.03 0.01,-0.02 0.01,-0.03 0.01,-0.02 0.01,-0.03 0.01,-0.03 0.01,-0.03 0,-0.03 0.01,-0.03 0,-0.03 0.01,-0.03 0,-0.03 0,-0.03 c 0,-0.51 -0.35,-0.91 -1.13,-0.91 -0.84,0 -1.19,0.57 -1.38,1.41 -0.03,0.13 -0.04,0.18 -0.14,0.18 -0.13,0 -0.13,-0.07 -0.13,-0.25 v -1.32 c 0,-0.17 0,-0.24 0.11,-0.24 0.05,0 0.06,0.01 0.25,0.2 0.02,0.02 0.02,0.04 0.2,0.23 0.43,-0.42 0.88,-0.43 1.09,-0.43 1.15,0 1.61,0.67 1.61,1.38 0,0.53 -0.3,0.83 -0.42,0.95 -0.33,0.32 -0.72,0.4 -1.14,0.48 -0.56,0.11 -1.22,0.24 -1.22,0.82 0,0.35 0.26,0.75 1.11,0.75 1.1,0 1.15,-0.89 1.17,-1.2 0.01,-0.09 0.1,-0.09 0.12,-0.09 0.13,0 0.13,0.05 0.13,0.24 v 1 c 0,0.18 0,0.25 -0.11,0.25 -0.05,0 -0.07,0 -0.2,-0.13 -0.03,-0.04 -0.13,-0.12 -0.17,-0.16 -0.38,0.29 -0.79,0.29 -0.94,0.29 -1.21,0 -1.59,-0.67 -1.59,-1.23 0,-0.35 0.16,-0.63 0.43,-0.85 0.31,-0.26 0.6,-0.32 1.31,-0.46 z"
           style="fill:#000000;stroke-width:0" /><path
           id="path3190"
           d="m 334.53,649.98 0,0.06 0,0.07 0,0.07 -0.01,0.08 0,0.07 -0.01,0.08 -0.01,0.09 -0.01,0.08 -0.02,0.08 -0.01,0.09 -0.02,0.08 -0.02,0.09 -0.02,0.08 -0.03,0.09 -0.02,0.08 -0.03,0.08 -0.04,0.08 -0.03,0.08 -0.04,0.07 -0.05,0.07 -0.04,0.07 -0.06,0.06 -0.05,0.06 -0.06,0.06 -0.06,0.05 -0.03,0.02 -0.04,0.02 -0.03,0.02 -0.04,0.02 -0.03,0.02 -0.04,0.01 -0.04,0.02 -0.04,0.01 -0.04,0.01 -0.04,0.01 -0.05,0 -0.04,0.01 -0.05,0 -0.04,0 -0.01,-0.22 c 0.49,0 0.55,-0.63 0.55,-1.2 0,-0.49 -0.08,-1 -0.32,-1.98 h -2.09 c 0.17,0.63 0.37,1.43 0.77,2.14 0.27,0.49 0.64,1.04 1.09,1.04 l 0.01,0.22 c -1.39,0 -2.92,-2.8 -2.92,-5.09 0,-0.93 0.29,-2.04 1.19,-2.04 v 0.22 c -0.32,0 -0.54,0.29 -0.54,1.21 0,0.42 0.07,1 0.32,1.98 h 2.08 c -0.11,-0.46 -0.32,-1.31 -0.7,-2.03 -0.35,-0.67 -0.73,-1.16 -1.16,-1.16 v -0.22 c 1.41,0 2.92,2.86 2.92,5.09 z"
           style="fill:#000000;stroke-width:0" /></g>    </g>
  </g>
</svg>
