<?xml version="1.0" encoding="UTF-8" standalone="no"?>
<!-- Created with Inkscape (http://www.inkscape.org/) -->

<svg
   xmlns:dc="http://purl.org/dc/elements/1.1/"
   xmlns:cc="http://creativecommons.org/ns#"
   xmlns:rdf="http://www.w3.org/1999/02/22-rdf-syntax-ns#"
   xmlns:svg="http://www.w3.org/2000/svg"
   xmlns="http://www.w3.org/2000/svg"
   xmlns:sodipodi="http://sodipodi.sourceforge.net/DTD/sodipodi-0.dtd"
   xmlns:inkscape="http://www.inkscape.org/namespaces/inkscape"
   width="400"
   height="300"
   id="svg2"
   version="1.1"
   inkscape:version="0.47 r22583"
   sodipodi:docname="新規ドキュメント 1">
  <sodipodi:namedview
     id="base"
     pagecolor="#ffffff"
     bordercolor="#666666"
     borderopacity="1.0"
     inkscape:pageopacity="0"
     inkscape:pageshadow="2"
     inkscape:zoom="1"
     inkscape:cx="133.07097"
     inkscape:cy="194.69172"
     inkscape:document-units="px"
     inkscape:current-layer="layer1"
     showgrid="false"
     showguides="true"
     inkscape:guide-bbox="true"
     inkscape:window-width="1024"
     inkscape:window-height="749"
     inkscape:window-x="-4"
     inkscape:window-y="-4"
     inkscape:window-maximized="1">
    <sodipodi:guide
       orientation="1,0"
       position="155,108"
       id="guide2820" />
    <sodipodi:guide
       orientation="0,1"
       position="155,108"
       id="guide2822" />
    <sodipodi:guide
       orientation="-0.5,-0.8660254"
       position="155,108"
       id="guide2826" />
    <sodipodi:guide
       orientation="-0.8660254,0.5"
       position="155,108"
       id="guide5918" />
    <sodipodi:guide
       orientation="-0.5,0.8660254"
       position="155,108"
       id="guide6110" />
    <sodipodi:guide
       orientation="-0.5,-0.8660254"
       position="247.90599,268.9179"
       id="guide6114" />
  </sodipodi:namedview>
  <defs
     id="defs4">
    <marker
       inkscape:stockid="Arrow1Lend"
       orient="auto"
       refY="0.0"
       refX="0.0"
       id="Arrow1Lend"
       style="overflow:visible;">
      <path
         id="path3606"
         d="M 0.0,0.0 L 5.0,-5.0 L -12.5,0.0 L 5.0,5.0 L 0.0,0.0 z "
         style="fill-rule:evenodd;stroke:#000000;stroke-width:1.0pt;marker-start:none;"
         transform="scale(0.8) rotate(180) translate(12.5,0)" />
    </marker>
    <marker
       inkscape:stockid="Arrow1Lstart"
       orient="auto"
       refY="0.0"
       refX="0.0"
       id="Arrow1Lstart"
       style="overflow:visible">
      <path
         id="path3603"
         d="M 0.0,0.0 L 5.0,-5.0 L -12.5,0.0 L 5.0,5.0 L 0.0,0.0 z "
         style="fill-rule:evenodd;stroke:#000000;stroke-width:1.0pt;marker-start:none"
         transform="scale(0.8) translate(12.5,0)" />
    </marker>
    <inkscape:perspective
       sodipodi:type="inkscape:persp3d"
       inkscape:vp_x="0 : 526.18109 : 1"
       inkscape:vp_y="0 : 1000 : 0"
       inkscape:vp_z="744.09448 : 526.18109 : 1"
       inkscape:persp3d-origin="372.04724 : 350.78739 : 1"
       id="perspective10" />
  </defs>
  <metadata
     id="metadata7">
    <rdf:RDF>
      <cc:Work
         rdf:about="">
        <dc:format>image/svg+xml</dc:format>
        <dc:type
           rdf:resource="http://purl.org/dc/dcmitype/StillImage" />
        <dc:title></dc:title>
      </cc:Work>
    </rdf:RDF>
  </metadata>
  <g
     inkscape:label="レイヤー 1"
     inkscape:groupmode="layer"
     id="layer1"
     transform="translate(0,-752.36218)">
    <path
       style="fill:none;stroke:#000000;stroke-width:1px;stroke-linecap:butt;stroke-linejoin:miter;stroke-opacity:1;marker-start:none;marker-end:url(#Arrow1Lend)"
       d="m 15,192 370,0"
       id="path4788"
       transform="translate(0,752.36218)" />
    <path
       style="fill:none;stroke:#000000;stroke-width:1px;stroke-linecap:butt;stroke-linejoin:miter;stroke-opacity:1;marker-end:url(#Arrow1Lend)"
       d="M 155,286 155,13"
       id="path4790"
       transform="translate(0,752.36218)" />
    <path
       style="fill:none;stroke:#000000;stroke-width:2;stroke-linecap:butt;stroke-linejoin:miter;stroke-opacity:1;stroke-miterlimit:4;stroke-dasharray:none"
       d="M 4.903233,105.34159 317.11272,285.59582"
       id="path5350"
       transform="translate(0,752.36218)"
       sodipodi:nodetypes="cc" />
    <g
       id="g5874"
       transform="matrix(5,0,0,5,-208.35766,737.6211)">
      <g
         word-spacing="normal"
         letter-spacing="normal"
         font-size-adjust="none"
         font-stretch="normal"
         font-weight="normal"
         font-variant="normal"
         font-style="normal"
         stroke-miterlimit="10.433"
         xml:space="preserve"
         transform="matrix(0.42857143,0,0,-0.42857143,-75,300)"
         id="content"
         style="font-style:normal;font-variant:normal;font-weight:normal;font-stretch:normal;letter-spacing:normal;word-spacing:normal;text-anchor:start;fill:none;stroke:#000000;stroke-linecap:butt;stroke-linejoin:miter;stroke-miterlimit:10.43299961;stroke-opacity:1;stroke-dasharray:none;stroke-dashoffset:0"><path
           id="path5877"
           d="m 283.71,648.77 -0.01,0.03 -0.02,0.03 -0.02,0.04 -0.02,0.03 -0.02,0.03 -0.02,0.03 -0.02,0.03 -0.02,0.03 -0.02,0.03 -0.03,0.03 -0.02,0.02 -0.03,0.03 -0.02,0.02 -0.03,0.03 -0.02,0.02 -0.03,0.02 -0.03,0.02 -0.03,0.02 -0.03,0.02 -0.03,0.02 -0.03,0.01 -0.04,0.02 -0.03,0.01 -0.03,0.01 -0.04,0.02 -0.03,0 -0.04,0.01 -0.04,0.01 -0.04,0.01 -0.04,0 -0.04,0 -0.04,0 0.01,-0.22 c 0.65,0 0.79,-0.81 0.79,-0.87 0,-0.06 -0.02,-0.12 -0.03,-0.17 l -0.5,-1.95 c -0.05,-0.18 -0.05,-0.21 -0.2,-0.37 -0.44,-0.55 -0.85,-0.71 -1.13,-0.71 -0.49,0 -0.63,0.55 -0.63,0.94 0,0.49 0.32,1.72 0.54,2.18 0.31,0.59 0.76,0.95 1.16,0.95 l -0.01,0.22 c -1.17,0 -2.4,-1.46 -2.4,-2.92 0,-0.93 0.55,-1.59 1.32,-1.59 0.2,0 0.7,0.04 1.3,0.75 0.08,-0.42 0.43,-0.75 0.91,-0.75 0.34,0 0.57,0.23 0.73,0.55 0.17,0.36 0.3,0.97 0.3,0.99 0,0.09 -0.09,0.09 -0.12,0.09 -0.1,0 -0.11,-0.04 -0.14,-0.18 -0.17,-0.64 -0.34,-1.23 -0.75,-1.23 -0.27,0 -0.31,0.26 -0.31,0.46 0,0.21 0.03,0.3 0.14,0.73 0.11,0.42 0.13,0.52 0.22,0.9 l 0.36,1.4 c 0.06,0.28 0.06,0.3 0.06,0.33 0,0.17 -0.12,0.27 -0.29,0.27 -0.24,0 -0.38,-0.22 -0.42,-0.43 z"
           style="fill:#000000;stroke-width:0" /><path
           id="path5879"
           d="m 288.33,648.01 0,0.02 0.01,0.03 0.01,0.04 0.01,0.03 0.01,0.04 0.01,0.04 0.01,0.05 0.02,0.04 0.01,0.05 0.02,0.05 0.02,0.05 0.02,0.05 0.02,0.05 0.03,0.05 0.02,0.04 0.03,0.05 0.03,0.05 0.03,0.05 0.04,0.05 0.03,0.04 0.04,0.04 0.04,0.04 0.04,0.04 0.04,0.04 0.05,0.03 0.05,0.03 0.02,0.01 0.03,0.01 0.03,0.01 0.02,0.01 0.03,0.01 0.03,0.01 0.03,0.01 0.03,0 0.03,0.01 0.03,0 0.03,0 0.03,0 c 0.05,0 0.29,0 0.5,-0.13 -0.28,-0.05 -0.48,-0.29 -0.48,-0.53 0,-0.17 0.11,-0.35 0.38,-0.35 0.22,0 0.54,0.18 0.54,0.58 0,0.52 -0.59,0.65 -0.93,0.65 -0.57,0 -0.92,-0.52 -1.04,-0.75 -0.25,0.65 -0.79,0.75 -1.08,0.75 -1.04,0 -1.6,-1.28 -1.6,-1.53 0,-0.1 0.1,-0.1 0.12,-0.1 0.08,0 0.11,0.02 0.13,0.11 0.34,1.05 0.99,1.3 1.33,1.3 0.19,0 0.54,-0.09 0.54,-0.66 0,-0.31 -0.17,-0.98 -0.54,-2.37 -0.16,-0.62 -0.51,-1.04 -0.95,-1.04 -0.05,0 -0.28,0 -0.49,0.13 0.24,0.05 0.47,0.26 0.47,0.54 0,0.27 -0.23,0.35 -0.37,0.35 -0.3,0 -0.55,-0.26 -0.55,-0.58 0,-0.46 0.5,-0.66 0.94,-0.66 0.65,0 1.01,0.7 1.04,0.76 0.12,-0.37 0.48,-0.76 1.08,-0.76 1.03,0 1.59,1.29 1.59,1.54 0,0.09 -0.09,0.09 -0.12,0.09 -0.09,0 -0.11,-0.04 -0.13,-0.11 -0.33,-1.06 -1,-1.3 -1.32,-1.3 -0.39,0 -0.55,0.32 -0.55,0.66 0,0.21 0.06,0.44 0.17,0.88 z"
           style="fill:#000000;stroke-width:0" /><path
           id="path5881"
           d="m 297.07,647.29 h 2.79 c 0.13,0 0.32,0 0.32,0.2 0,0.2 -0.19,0.2 -0.32,0.2 h -2.79 v 2.79 c 0,0.14 0,0.33 -0.19,0.33 -0.2,0 -0.2,-0.19 -0.2,-0.33 v -2.79 h -2.79 c -0.14,0 -0.33,0 -0.33,-0.2 0,-0.2 0.19,-0.2 0.33,-0.2 h 2.79 v -2.79 c 0,-0.14 0,-0.33 0.2,-0.33 0.19,0 0.19,0.19 0.19,0.33 z"
           style="fill:#000000;stroke-width:0" /><path
           id="path5883"
           d="m 305.38,651.8 0,0.01 0,0 0,0 0,0 0,0 0,0 0,0.01 0,0 0,0.01 0,0 0,0 0,0.01 0,0 -0.01,0.01 0,0 0,0.01 0,0 -0.01,0.01 0,0 0,0.01 -0.01,0 0,0 0,0.01 -0.01,0 0,0 0,0 -0.01,0 0,0.01 0,0 -0.01,0 0,0 0,0 -0.01,0 0,0.01 -0.01,0 0,0 -0.01,0 0,0 -0.01,0 0,0 -0.01,0 0,0 -0.01,0 0,0 -0.01,0 c -0.23,0 -0.95,-0.07 -1.21,-0.1 -0.08,-0.01 -0.19,-0.02 -0.19,-0.2 0,-0.11 0.09,-0.11 0.24,-0.11 0.47,0 0.5,-0.07 0.5,-0.17 0,-0.07 -0.09,-0.41 -0.14,-0.62 l -0.82,-3.25 c -0.12,-0.5 -0.16,-0.66 -0.16,-1.01 0,-0.94 0.53,-1.56 1.26,-1.56 v 0.22 c -0.34,0 -0.66,0.27 -0.66,1.01 0,0.18 0,0.38 0.16,1 l 0.22,0.92 c 0.05,0.22 0.05,0.24 0.14,0.35 0.49,0.64 0.94,0.79 1.2,0.79 0.36,0 0.63,-0.29 0.63,-0.93 0,-0.59 -0.33,-1.73 -0.51,-2.11 -0.33,-0.67 -0.79,-1.03 -1.18,-1.03 v -0.22 c 1.18,0 2.4,1.49 2.4,2.92 0,0.91 -0.52,1.59 -1.32,1.59 -0.46,0 -0.87,-0.29 -1.17,-0.6 z"
           style="fill:#000000;stroke-width:0" /><path
           id="path5885"
           d="m 312.84,648.8 0.01,0 0,0.01 0,0.01 0,0.01 0.01,0.01 0,0.01 0,0.01 0,0.01 0.01,0.01 0,0.01 0,0.01 0,0 0,0.01 0,0.01 0.01,0 0,0.01 0,0.01 0,0 0,0.01 0,0 0,0.01 0,0.01 0,0.01 0,0.01 0,0.01 0,0.01 0,0 0,0.01 0,0 c 0,0.18 -0.14,0.27 -0.29,0.27 -0.1,0 -0.26,-0.06 -0.35,-0.2 -0.02,-0.06 -0.1,-0.36 -0.13,-0.54 -0.07,-0.26 -0.15,-0.53 -0.2,-0.8 l -0.45,-1.79 c -0.04,-0.15 -0.47,-0.85 -1.13,-0.85 -0.51,0 -0.62,0.44 -0.62,0.81 0,0.46 0.17,1.07 0.51,1.95 0.16,0.41 0.2,0.52 0.2,0.72 0,0.44 -0.32,0.81 -0.81,0.81 -0.95,0 -1.32,-1.44 -1.32,-1.53 0,-0.1 0.1,-0.1 0.12,-0.1 0.1,0 0.11,0.02 0.16,0.18 0.27,0.94 0.66,1.23 1,1.23 0.08,0 0.25,0 0.25,-0.31 0,-0.25 -0.1,-0.52 -0.17,-0.7 -0.4,-1.06 -0.58,-1.63 -0.58,-2.1 0,-0.88 0.63,-1.18 1.22,-1.18 0.39,0 0.73,0.17 1.01,0.45 -0.13,-0.52 -0.25,-1.01 -0.65,-1.54 -0.26,-0.33 -0.64,-0.62 -1.1,-0.62 -0.14,0 -0.59,0.03 -0.75,0.41 0.16,0 0.29,0 0.43,0.13 0.09,0.08 0.2,0.21 0.2,0.41 0,0.3 -0.27,0.34 -0.38,0.34 -0.22,0 -0.55,-0.16 -0.55,-0.65 0,-0.49 0.44,-0.86 1.05,-0.86 1.03,0 2.06,0.9 2.34,2.03 z"
           style="fill:#000000;stroke-width:0" /><path
           id="path5887"
           d="m 322.84,648.26 0.03,0 0.03,0 0.03,0 0.01,0 0.02,0 0.01,0 0.02,0 0.01,0.01 0.02,0 0.01,0 0.01,0 0.02,0.01 0.01,0 0.01,0.01 0.01,0 0.01,0.01 0.02,0.01 0.01,0 0,0.01 0.01,0.01 0.01,0.01 0.01,0.01 0,0 0,0.01 0.01,0 0,0.01 0,0.01 0,0 0.01,0.01 0,0.01 0,0.01 0,0 0,0.01 0,0.01 0,0.01 0,0.01 0,0.01 c 0,0.2 -0.19,0.2 -0.32,0.2 h -5.97 c -0.14,0 -0.33,0 -0.33,-0.2 0,-0.2 0.19,-0.2 0.34,-0.2 z"
           style="fill:#000000;stroke-width:0" /><path
           id="path5889"
           d="m 322.86,646.32 0.01,0 0.01,0 0.03,0 0.03,0.01 0.01,0 0.01,0 0.02,0 0.01,0 0.02,0 0.01,0 0.01,0.01 0.02,0 0.01,0 0.01,0.01 0.01,0 0.01,0.01 0.02,0.01 0.01,0 0.01,0.01 0.01,0.01 0,0.01 0.01,0 0,0.01 0.01,0 0,0.01 0,0 0.01,0.01 0,0.01 0,0 0,0.01 0.01,0.01 0,0 0,0.01 0,0.01 0,0.01 0,0.01 0,0 0,0.01 0,0.01 c 0,0.2 -0.19,0.2 -0.34,0.2 h -5.94 c -0.15,0 -0.34,0 -0.34,-0.2 0,-0.2 0.19,-0.2 0.33,-0.2 z"
           style="fill:#000000;stroke-width:0" /><path
           id="path5891"
           d="m 330.58,648.19 0,0.15 0,0.15 0,0.15 -0.01,0.14 -0.01,0.15 -0.01,0.15 -0.02,0.15 -0.02,0.15 -0.02,0.14 -0.03,0.15 -0.03,0.14 -0.04,0.15 -0.04,0.14 -0.05,0.14 -0.05,0.14 -0.07,0.14 c -0.45,0.96 -1.27,1.12 -1.69,1.12 -0.6,0 -1.33,-0.26 -1.73,-1.19 -0.32,-0.69 -0.37,-1.47 -0.37,-2.26 0,-0.75 0.04,-1.65 0.45,-2.41 0.43,-0.8 1.15,-1 1.64,-1 V 645 c -0.39,0 -0.98,0.25 -1.16,1.21 -0.11,0.59 -0.11,1.51 -0.11,2.1 0,0.64 0,1.29 0.09,1.83 0.18,1.19 0.93,1.27 1.18,1.27 0.33,0 0.99,-0.17 1.18,-1.16 0.1,-0.56 0.1,-1.32 0.1,-1.94 0,-0.75 0,-1.43 -0.12,-2.06 -0.14,-0.95 -0.71,-1.25 -1.16,-1.25 h 0 v -0.22 c 0.54,0 1.3,0.21 1.73,1.16 0.32,0.69 0.37,1.46 0.37,2.25 z"
           style="fill:#000000;stroke-width:0" /></g>    </g>
    <path
       style="fill:none;stroke:#000000;stroke-width:1.5;stroke-linecap:butt;stroke-linejoin:miter;stroke-opacity:1;marker-end:url(#Arrow1Lend);stroke-miterlimit:4;stroke-dasharray:none"
       d="m 155,192 27.8516,-48.24038"
       id="path5920"
       transform="translate(0,752.36218)" />
    <path
       sodipodi:type="arc"
       style="fill:none;stroke:#000000;stroke-width:4.70000029;stroke-miterlimit:4;stroke-opacity:1;stroke-dasharray:none;stroke-dashoffset:0"
       id="path6108"
       sodipodi:cx="312"
       sodipodi:cy="73"
       sodipodi:rx="11"
       sodipodi:ry="11"
       d="m 323,73 c 0,6.075132 -4.92487,11 -11,11 -6.07513,0 -11,-4.924868 -11,-11 0,-6.075132 4.92487,-11 11,-11 6.07513,0 11,4.924868 11,11 z"
       transform="matrix(0.42553191,0,0,0.42553191,208.04603,806.7006)" />
    <path
       style="fill:none;stroke:#000000;stroke-width:1.50000000000000000;stroke-linecap:butt;stroke-linejoin:miter;stroke-opacity:1;stroke-miterlimit:4;stroke-dasharray:none;marker-end:url(#Arrow1Lend)"
       d="M 154.14928,191.81266 340.81198,84.721401"
       id="path6112"
       sodipodi:nodetypes="cc"
       transform="translate(0,752.36218)" />
    <path
       style="fill:none;stroke:#000000;stroke-width:1px;stroke-linecap:butt;stroke-linejoin:miter;stroke-opacity:1"
       d="m 155,944.36218 92.90599,-160.9179 92.90599,53.6393"
       id="path6116"
       sodipodi:nodetypes="ccc" />
    <rect
       style="fill:none;stroke:#000000;stroke-width:1;stroke-miterlimit:4;stroke-opacity:1;stroke-dasharray:none;stroke-dashoffset:0"
       id="rect6306"
       width="11.5"
       height="11.5"
       x="606.41504"
       y="554.52966"
       transform="matrix(0.8660254,0.5,-0.5,0.8660254,0,0)" />
    <text
       xml:space="preserve"
       style="font-size:16px;font-style:normal;font-weight:normal;fill:#000000;fill-opacity:1;stroke:none;font-family:Century;-inkscape-font-specification:Century"
       x="335"
       y="824.86218"
       id="text6308"><tspan
         sodipodi:role="line"
         id="tspan6310"
         x="335"
         y="824.86218">P</tspan></text>
    <g
       transform="matrix(5,0,0,5,-115.26175,785.1133)"
       id="g6348">
      <g
         style="font-style:normal;font-variant:normal;font-weight:normal;font-stretch:normal;letter-spacing:normal;word-spacing:normal;text-anchor:start;fill:none;stroke:#000000;stroke-linecap:butt;stroke-linejoin:miter;stroke-miterlimit:10.43299961;stroke-opacity:1;stroke-dasharray:none;stroke-dashoffset:0"
         id="g6350"
         transform="matrix(0.42857143,0,0,-0.42857143,-75,300)"
         xml:space="preserve"
         stroke-miterlimit="10.433"
         font-style="normal"
         font-variant="normal"
         font-weight="normal"
         font-stretch="normal"
         font-size-adjust="none"
         letter-spacing="normal"
         word-spacing="normal"><path
           style="fill:#000000;stroke-width:0"
           d="m 307.57,652.29 0.03,0 0.03,0 0.03,0 0.02,0.01 0.01,0 0.02,0 0.01,0 0.02,0 0.01,0 0.01,0.01 0.02,0 0.01,0 0.01,0.01 0.02,0 0.01,0.01 0.01,0 0.01,0.01 0.01,0.01 0.01,0.01 0.01,0.01 0,0.01 0.01,0 0,0.01 0,0 0.01,0.01 0,0.01 0,0 0,0.01 0.01,0.01 0,0 0,0.01 0,0.01 0,0.01 0,0.01 0,0 0,0.01 0,0.01 c 0,0.2 -0.18,0.2 -0.34,0.2 h -5.39 c -0.17,0 -0.35,0 -0.35,-0.2 0,-0.2 0.18,-0.2 0.35,-0.2 z"
           id="path6352" /><path
           style="fill:#000000;stroke-width:0"
           d="m 309.31,652.29 -0.05,-0.04 -0.05,-0.04 -0.05,-0.04 -0.04,-0.03 -0.05,-0.04 -0.04,-0.04 -0.04,-0.04 -0.04,-0.04 -0.04,-0.03 -0.04,-0.04 -0.03,-0.04 -0.03,-0.03 -0.04,-0.04 -0.03,-0.03 -0.03,-0.03 -0.02,-0.04 -0.03,-0.03 -0.03,-0.03 -0.02,-0.03 -0.02,-0.03 -0.02,-0.02 -0.02,-0.03 -0.02,-0.03 -0.02,-0.02 -0.02,-0.02 -0.01,-0.02 -0.02,-0.02 -0.01,-0.02 -0.01,-0.02 -0.01,-0.02 -0.01,-0.01 -0.01,-0.01 c -0.45,-0.69 -0.53,-1.32 -0.53,-1.33 0,-0.12 0.12,-0.12 0.2,-0.12 0.17,0 0.18,0.02 0.22,0.2 0.23,0.98 0.82,1.81 1.95,2.27 0.11,0.04 0.14,0.06 0.14,0.13 0,0.07 -0.05,0.1 -0.07,0.11 -0.44,0.17 -1.65,0.67 -2.03,2.34 -0.03,0.12 -0.04,0.15 -0.21,0.15 -0.08,0 -0.2,0 -0.2,-0.12 0,-0.02 0.09,-0.65 0.51,-1.31 0.2,-0.31 0.49,-0.65 0.92,-0.97 h -7.4 c -0.18,0 -0.36,0 -0.36,-0.2 0,-0.2 0.18,-0.2 0.36,-0.2 z"
           id="path6354" /><path
           style="fill:#000000;stroke-width:0"
           d="m 307.66,648.71 0,0.02 0,0.03 0,0.02 0,0.02 0,0.03 0,0.02 0,0.02 -0.01,0.02 0,0.04 -0.01,0.04 -0.01,0.04 -0.01,0.03 -0.01,0.03 -0.01,0.04 -0.01,0.02 -0.02,0.03 -0.01,0.03 -0.02,0.02 -0.01,0.02 -0.02,0.03 -0.02,0.01 -0.01,0.02 -0.02,0.02 -0.02,0.01 -0.02,0.02 -0.02,0.01 -0.01,0.01 -0.02,0.01 -0.02,0.01 -0.02,0 -0.02,0.01 -0.02,0 -0.01,0.01 -0.02,0 -0.02,0 -0.02,0 c -0.24,0 -0.49,-0.25 -0.49,-0.47 0,-0.13 0.06,-0.2 0.16,-0.3 0.22,-0.2 0.34,-0.46 0.34,-0.82 0,-0.42 -0.6,-2.7 -1.77,-2.7 -0.51,0 -0.74,0.35 -0.74,0.87 0,0.55 0.27,1.28 0.58,2.11 0.07,0.17 0.12,0.31 0.12,0.5 0,0.44 -0.32,0.81 -0.81,0.81 -0.94,0 -1.32,-1.44 -1.32,-1.53 0,-0.1 0.1,-0.1 0.12,-0.1 0.1,0 0.11,0.02 0.16,0.18 0.29,1.01 0.72,1.23 1,1.23 0.08,0 0.25,0 0.25,-0.31 0,-0.25 -0.1,-0.52 -0.17,-0.7 -0.44,-1.16 -0.56,-1.62 -0.56,-2.04 0,-1.08 0.87,-1.24 1.33,-1.24 1.67,0 2.24,3.3 2.24,3.82 z"
           id="path6356" /></g>    </g>
    <g
       id="g6672"
       transform="matrix(5,0,0,5,-62.73261,765.52041)">
      <g
         word-spacing="normal"
         letter-spacing="normal"
         font-size-adjust="none"
         font-stretch="normal"
         font-weight="normal"
         font-variant="normal"
         font-style="normal"
         stroke-miterlimit="10.433"
         xml:space="preserve"
         transform="matrix(0.42857143,0,0,-0.42857143,-75,300)"
         id="g6674"
         style="font-style:normal;font-variant:normal;font-weight:normal;font-stretch:normal;letter-spacing:normal;word-spacing:normal;text-anchor:start;fill:none;stroke:#000000;stroke-linecap:butt;stroke-linejoin:miter;stroke-miterlimit:10.43299961;stroke-opacity:1;stroke-dasharray:none;stroke-dashoffset:0"><path
           id="path6676"
           d="m 307.53,649.98 0,0.06 0,0.07 0,0.07 -0.01,0.08 0,0.07 -0.01,0.08 -0.01,0.09 -0.01,0.08 -0.02,0.08 -0.01,0.09 -0.02,0.08 -0.02,0.09 -0.02,0.08 -0.03,0.09 -0.02,0.08 -0.03,0.08 -0.04,0.08 -0.03,0.08 -0.04,0.07 -0.05,0.07 -0.04,0.07 -0.06,0.06 -0.05,0.06 -0.06,0.06 -0.06,0.05 -0.03,0.02 -0.04,0.02 -0.03,0.02 -0.04,0.02 -0.03,0.02 -0.04,0.01 -0.04,0.02 -0.04,0.01 -0.04,0.01 -0.04,0.01 -0.05,0 -0.04,0.01 -0.05,0 -0.04,0 -0.01,-0.22 c 0.49,0 0.55,-0.63 0.55,-1.2 0,-0.49 -0.08,-1 -0.32,-1.98 h -2.09 c 0.17,0.63 0.37,1.43 0.77,2.14 0.27,0.49 0.64,1.04 1.09,1.04 l 0.01,0.22 c -1.39,0 -2.92,-2.8 -2.92,-5.09 0,-0.93 0.29,-2.04 1.19,-2.04 v 0.22 c -0.32,0 -0.54,0.29 -0.54,1.21 0,0.42 0.07,1 0.32,1.98 h 2.08 c -0.11,-0.46 -0.32,-1.31 -0.7,-2.03 -0.35,-0.67 -0.73,-1.16 -1.16,-1.16 v -0.22 c 1.41,0 2.92,2.86 2.92,5.09 z"
           style="fill:#000000;stroke-width:0" /></g>    </g>
    <path
       sodipodi:type="arc"
       style="fill:none;stroke:#000000;stroke-width:1;stroke-miterlimit:4;stroke-opacity:1;stroke-dasharray:none;stroke-dashoffset:0"
       id="path6736"
       sodipodi:cx="155"
       sodipodi:cy="192"
       sodipodi:rx="79"
       sodipodi:ry="79"
       d="m 194.43292,123.54531 c 11.84196,6.82149 21.71181,16.59828 28.64516,28.37509"
       transform="translate(0,752.36218)"
       sodipodi:start="5.2350076"
       sodipodi:end="5.7510939"
       sodipodi:open="true" />
    <g
       transform="matrix(5,0,0,5,-84.372581,686.06571)"
       id="g6783">
      <g
         style="font-style:normal;font-variant:normal;font-weight:normal;font-stretch:normal;letter-spacing:normal;word-spacing:normal;text-anchor:start;fill:none;stroke:#000000;stroke-linecap:butt;stroke-linejoin:miter;stroke-miterlimit:10.43299961;stroke-opacity:1;stroke-dasharray:none;stroke-dashoffset:0"
         id="g6785"
         transform="matrix(0.42857143,0,0,-0.42857143,-75,300)"
         xml:space="preserve"
         stroke-miterlimit="10.433"
         font-style="normal"
         font-variant="normal"
         font-weight="normal"
         font-stretch="normal"
         font-size-adjust="none"
         letter-spacing="normal"
         word-spacing="normal"><path
           style="fill:#000000;stroke-width:0"
           d="m 288.59,652.11 0,0.04 0,0.03 -0.01,0.03 0,0.02 0,0.02 0,0.01 0,0.02 0,0.01 0,0.02 -0.01,0.01 0,0.01 0,0.02 -0.01,0.01 0,0.01 -0.01,0.01 -0.01,0.02 0,0.01 -0.01,0.01 -0.01,0.01 -0.01,0 -0.01,0.01 -0.01,0.01 0,0 -0.01,0.01 -0.01,0 0,0 -0.01,0 -0.01,0 0,0.01 -0.01,0 -0.01,0 -0.01,0 -0.01,0 0,0 -0.01,0 -0.01,0 c -0.2,0 -0.2,-0.18 -0.2,-0.36 v -9.24 c 0,-0.18 0,-0.36 0.2,-0.36 0.2,0 0.2,0.18 0.2,0.36 z"
           id="path6787" /><path
           style="fill:#000000;stroke-width:0"
           d="m 296.57,652.29 0.03,0 0.03,0 0.03,0 0.02,0.01 0.01,0 0.02,0 0.01,0 0.02,0 0.01,0 0.01,0.01 0.02,0 0.01,0 0.01,0.01 0.02,0 0.01,0.01 0.01,0 0.01,0.01 0.01,0.01 0.01,0.01 0.01,0.01 0,0.01 0.01,0 0,0.01 0,0 0.01,0.01 0,0.01 0,0 0,0.01 0.01,0.01 0,0 0,0.01 0,0.01 0,0.01 0,0.01 0,0 0,0.01 0,0.01 c 0,0.2 -0.18,0.2 -0.34,0.2 h -5.39 c -0.17,0 -0.35,0 -0.35,-0.2 0,-0.2 0.18,-0.2 0.35,-0.2 z"
           id="path6789" /><path
           style="fill:#000000;stroke-width:0"
           d="m 298.31,652.29 -0.05,-0.04 -0.05,-0.04 -0.05,-0.04 -0.04,-0.03 -0.05,-0.04 -0.04,-0.04 -0.04,-0.04 -0.04,-0.04 -0.04,-0.03 -0.04,-0.04 -0.03,-0.04 -0.03,-0.03 -0.04,-0.04 -0.03,-0.03 -0.03,-0.03 -0.02,-0.04 -0.03,-0.03 -0.03,-0.03 -0.02,-0.03 -0.02,-0.03 -0.02,-0.02 -0.02,-0.03 -0.02,-0.03 -0.02,-0.02 -0.02,-0.02 -0.01,-0.02 -0.02,-0.02 -0.01,-0.02 -0.01,-0.02 -0.01,-0.02 -0.01,-0.01 -0.01,-0.01 c -0.45,-0.69 -0.53,-1.32 -0.53,-1.33 0,-0.12 0.12,-0.12 0.2,-0.12 0.17,0 0.18,0.02 0.22,0.2 0.23,0.98 0.82,1.81 1.95,2.27 0.11,0.04 0.14,0.06 0.14,0.13 0,0.07 -0.05,0.1 -0.07,0.11 -0.44,0.17 -1.65,0.67 -2.03,2.34 -0.03,0.12 -0.04,0.15 -0.21,0.15 -0.08,0 -0.2,0 -0.2,-0.12 0,-0.02 0.09,-0.65 0.51,-1.31 0.2,-0.31 0.49,-0.65 0.92,-0.97 h -7.4 c -0.18,0 -0.36,0 -0.36,-0.2 0,-0.2 0.18,-0.2 0.36,-0.2 z"
           id="path6791" /><path
           style="fill:#000000;stroke-width:0"
           d="m 292.45,643.78 -0.01,-0.03 -0.01,-0.03 0,-0.02 -0.01,-0.03 -0.01,-0.03 0,-0.02 -0.01,-0.02 -0.01,-0.02 -0.01,-0.02 0,-0.02 -0.01,-0.02 -0.01,-0.01 -0.01,-0.02 -0.01,-0.01 -0.01,-0.02 -0.02,-0.01 -0.01,-0.01 -0.02,-0.01 -0.01,-0.01 -0.02,0 -0.02,-0.01 -0.02,-0.01 -0.02,0 -0.02,-0.01 -0.03,0 -0.02,-0.01 -0.02,0 -0.01,0 -0.02,0 -0.01,0 -0.02,0 -0.02,0 -0.01,0 -0.02,0 -0.02,0 -0.02,0 -0.02,0 -0.02,0 c -0.12,0 -0.23,0 -0.23,-0.19 0,-0.09 0.05,-0.12 0.13,-0.12 h 1.82 c 0.05,0 0.18,0 0.18,0.2 0,0.11 -0.1,0.11 -0.24,0.11 -0.5,0 -0.5,0.07 -0.5,0.15 0,0.13 0.43,1.75 0.49,2 0.14,-0.29 0.41,-0.64 0.92,-0.64 l -0.01,0.22 c -0.66,0 -0.79,0.83 -0.79,0.89 0,0.02 0,0.03 0.03,0.16 l 0.49,1.95 c 0.07,0.27 0.34,0.55 0.52,0.69 0.35,0.31 0.64,0.38 0.81,0.38 0.4,0 0.63,-0.34 0.63,-0.93 0,-0.59 -0.32,-1.73 -0.5,-2.11 -0.34,-0.7 -0.82,-1.03 -1.19,-1.03 l 0.01,-0.22 c 1.16,0 2.4,1.45 2.4,2.92 0,0.94 -0.57,1.59 -1.32,1.59 -0.5,0 -0.98,-0.36 -1.31,-0.74 -0.1,0.54 -0.53,0.74 -0.89,0.74 -0.46,0 -0.65,-0.38 -0.74,-0.56 -0.18,-0.34 -0.31,-0.94 -0.31,-0.97 0,-0.1 0.1,-0.1 0.12,-0.1 0.1,0 0.11,0.01 0.17,0.23 0.17,0.71 0.36,1.18 0.72,1.18 0.18,0 0.31,-0.08 0.31,-0.45 0,-0.23 -0.02,-0.34 -0.07,-0.51 z"
           id="path6793" /><path
           style="fill:#000000;stroke-width:0"
           d="m 301.59,652.11 0,0.04 0,0.03 -0.01,0.03 0,0.02 0,0.02 0,0.01 0,0.02 0,0.01 0,0.02 -0.01,0.01 0,0.01 0,0.02 -0.01,0.01 0,0.01 -0.01,0.01 -0.01,0.02 0,0.01 -0.01,0.01 -0.01,0.01 -0.01,0 -0.01,0.01 -0.01,0.01 0,0 -0.01,0.01 -0.01,0 0,0 -0.01,0 -0.01,0 0,0.01 -0.01,0 -0.01,0 -0.01,0 -0.01,0 0,0 -0.01,0 -0.01,0 c -0.2,0 -0.2,-0.18 -0.2,-0.36 v -9.24 c 0,-0.18 0,-0.36 0.2,-0.36 0.2,0 0.2,0.18 0.2,0.36 z"
           id="path6795" /><path
           style="fill:#000000;stroke-width:0"
           d="m 305.16,647.17 0,0.08 0.01,0.07 0,0.07 0,0.07 0.01,0.07 0,0.07 0.01,0.06 0.01,0.07 0.01,0.06 0.01,0.06 0.01,0.06 0.01,0.05 0.03,0.11 0.03,0.11 0.03,0.09 0.04,0.1 0.04,0.08 0.04,0.08 0.05,0.08 0.04,0.07 0.05,0.06 0.05,0.06 0.05,0.06 0.05,0.05 0.06,0.05 0.05,0.04 0.06,0.03 0.06,0.04 0.05,0.03 0.06,0.02 0.06,0.03 0.05,0.02 0.06,0.01 0.05,0.01 0.06,0.01 0.05,0.01 0.05,0 0.05,0.01 c 0.09,0 0.72,-0.02 1.07,-0.38 -0.41,-0.02 -0.47,-0.32 -0.47,-0.45 0,-0.26 0.18,-0.46 0.46,-0.46 0.25,0 0.45,0.17 0.45,0.47 0,0.67 -0.75,1.07 -1.52,1.07 -1.25,0 -2.16,-1.08 -2.16,-2.32 0,-1.27 0.98,-2.26 2.14,-2.26 1.34,0 1.65,1.2 1.65,1.3 0,0.09 -0.09,0.09 -0.13,0.09 -0.09,0 -0.11,-0.03 -0.12,-0.09 -0.29,-0.93 -0.94,-1.05 -1.31,-1.05 -0.53,0 -1.41,0.43 -1.41,2.03 z"
           id="path6797" /><path
           style="fill:#000000;stroke-width:0"
           d="m 313.69,647.13 0,0.12 -0.01,0.12 -0.01,0.11 -0.02,0.12 -0.03,0.11 -0.03,0.11 -0.03,0.11 -0.04,0.1 -0.05,0.11 -0.05,0.1 -0.05,0.1 -0.06,0.09 -0.06,0.09 -0.06,0.09 -0.07,0.09 -0.08,0.08 -0.07,0.07 -0.08,0.08 -0.09,0.07 -0.08,0.06 -0.09,0.06 -0.09,0.06 -0.1,0.05 -0.1,0.05 -0.1,0.04 -0.1,0.04 -0.1,0.03 -0.11,0.03 -0.11,0.02 -0.11,0.01 -0.11,0.01 -0.11,0.01 -0.01,-0.23 c 0.44,0 0.87,-0.22 1.13,-0.64 0.26,-0.43 0.26,-1.01 0.26,-1.39 0,-0.36 0,-0.89 -0.23,-1.33 -0.21,-0.45 -0.65,-0.74 -1.15,-0.74 h 0 c -0.43,0 -0.86,0.21 -1.13,0.67 -0.25,0.44 -0.25,1.04 -0.25,1.4 0,0.39 0,0.93 0.23,1.37 0.27,0.45 0.74,0.66 1.14,0.66 l 0.01,0.23 c -1.24,0 -2.21,-1.09 -2.21,-2.34 0,-1.28 1.04,-2.24 2.2,-2.24 1.21,0 2.21,0.98 2.21,2.24 z"
           id="path6799" /><path
           style="fill:#000000;stroke-width:0"
           d="m 316.07,646.93 0.02,0 0.03,0 0.03,-0.01 0.03,-0.01 0.03,0 0.04,-0.01 0.04,-0.01 0.04,-0.01 0.04,-0.02 0.04,-0.01 0.04,-0.02 0.05,-0.01 0.04,-0.02 0.05,-0.02 0.04,-0.03 0.04,-0.02 0.05,-0.03 0.04,-0.03 0.04,-0.03 0.04,-0.03 0.04,-0.03 0.03,-0.04 0.04,-0.04 0.03,-0.04 0.03,-0.05 0.01,-0.02 0.01,-0.03 0.01,-0.02 0.01,-0.03 0.01,-0.02 0.01,-0.03 0.01,-0.03 0.01,-0.03 0,-0.03 0.01,-0.03 0,-0.03 0.01,-0.03 0,-0.03 0,-0.03 c 0,-0.51 -0.35,-0.91 -1.13,-0.91 -0.84,0 -1.19,0.57 -1.38,1.41 -0.03,0.13 -0.04,0.18 -0.14,0.18 -0.13,0 -0.13,-0.07 -0.13,-0.25 v -1.32 c 0,-0.17 0,-0.24 0.11,-0.24 0.05,0 0.06,0.01 0.25,0.2 0.02,0.02 0.02,0.04 0.2,0.23 0.43,-0.42 0.88,-0.43 1.09,-0.43 1.15,0 1.61,0.67 1.61,1.38 0,0.53 -0.3,0.83 -0.42,0.95 -0.33,0.32 -0.72,0.4 -1.14,0.48 -0.56,0.11 -1.22,0.24 -1.22,0.82 0,0.35 0.26,0.75 1.11,0.75 1.1,0 1.15,-0.89 1.17,-1.2 0.01,-0.09 0.1,-0.09 0.12,-0.09 0.13,0 0.13,0.05 0.13,0.24 v 1 c 0,0.18 0,0.25 -0.11,0.25 -0.05,0 -0.07,0 -0.2,-0.13 -0.03,-0.04 -0.13,-0.12 -0.17,-0.16 -0.38,0.29 -0.79,0.29 -0.94,0.29 -1.21,0 -1.59,-0.67 -1.59,-1.23 0,-0.35 0.16,-0.63 0.43,-0.85 0.31,-0.26 0.6,-0.32 1.31,-0.46 z"
           id="path6801" /><path
           style="fill:#000000;stroke-width:0"
           d="m 323.53,649.98 0,0.06 0,0.07 0,0.07 -0.01,0.08 0,0.07 -0.01,0.08 -0.01,0.09 -0.01,0.08 -0.02,0.08 -0.01,0.09 -0.02,0.08 -0.02,0.09 -0.02,0.08 -0.03,0.09 -0.02,0.08 -0.03,0.08 -0.04,0.08 -0.03,0.08 -0.04,0.07 -0.05,0.07 -0.04,0.07 -0.06,0.06 -0.05,0.06 -0.06,0.06 -0.06,0.05 -0.03,0.02 -0.04,0.02 -0.03,0.02 -0.04,0.02 -0.03,0.02 -0.04,0.01 -0.04,0.02 -0.04,0.01 -0.04,0.01 -0.04,0.01 -0.05,0 -0.04,0.01 -0.05,0 -0.04,0 -0.01,-0.22 c 0.49,0 0.55,-0.63 0.55,-1.2 0,-0.49 -0.08,-1 -0.32,-1.98 h -2.09 c 0.17,0.63 0.37,1.43 0.77,2.14 0.27,0.49 0.64,1.04 1.09,1.04 l 0.01,0.22 c -1.39,0 -2.92,-2.8 -2.92,-5.09 0,-0.93 0.29,-2.04 1.19,-2.04 v 0.22 c -0.32,0 -0.54,0.29 -0.54,1.21 0,0.42 0.07,1 0.32,1.98 h 2.08 c -0.11,-0.46 -0.32,-1.31 -0.7,-2.03 -0.35,-0.67 -0.73,-1.16 -1.16,-1.16 v -0.22 c 1.41,0 2.92,2.86 2.92,5.09 z"
           id="path6803" /></g>    </g>
    <g
       id="g6915"
       transform="matrix(5,0,0,5,-9.828053,789.58655)">
      <g
         word-spacing="normal"
         letter-spacing="normal"
         font-size-adjust="none"
         font-stretch="normal"
         font-weight="normal"
         font-variant="normal"
         font-style="normal"
         stroke-miterlimit="10.433"
         xml:space="preserve"
         transform="matrix(0.42857143,0,0,-0.42857143,-75,300)"
         id="g6917"
         style="font-style:normal;font-variant:normal;font-weight:normal;font-stretch:normal;letter-spacing:normal;word-spacing:normal;text-anchor:start;fill:none;stroke:#000000;stroke-linecap:butt;stroke-linejoin:miter;stroke-miterlimit:10.43299961;stroke-opacity:1;stroke-dasharray:none;stroke-dashoffset:0"><path
           id="path6919"
           d="m 307.57,652.29 0.03,0 0.03,0 0.03,0 0.02,0.01 0.01,0 0.02,0 0.01,0 0.02,0 0.01,0 0.01,0.01 0.02,0 0.01,0 0.01,0.01 0.02,0 0.01,0.01 0.01,0 0.01,0.01 0.01,0.01 0.01,0.01 0.01,0.01 0,0.01 0.01,0 0,0.01 0,0 0.01,0.01 0,0.01 0,0 0,0.01 0.01,0.01 0,0 0,0.01 0,0.01 0,0.01 0,0.01 0,0 0,0.01 0,0.01 c 0,0.2 -0.18,0.2 -0.34,0.2 h -5.39 c -0.17,0 -0.35,0 -0.35,-0.2 0,-0.2 0.18,-0.2 0.35,-0.2 z"
           style="fill:#000000;stroke-width:0" /><path
           id="path6921"
           d="m 309.31,652.29 -0.05,-0.04 -0.05,-0.04 -0.05,-0.04 -0.04,-0.03 -0.05,-0.04 -0.04,-0.04 -0.04,-0.04 -0.04,-0.04 -0.04,-0.03 -0.04,-0.04 -0.03,-0.04 -0.03,-0.03 -0.04,-0.04 -0.03,-0.03 -0.03,-0.03 -0.02,-0.04 -0.03,-0.03 -0.03,-0.03 -0.02,-0.03 -0.02,-0.03 -0.02,-0.02 -0.02,-0.03 -0.02,-0.03 -0.02,-0.02 -0.02,-0.02 -0.01,-0.02 -0.02,-0.02 -0.01,-0.02 -0.01,-0.02 -0.01,-0.02 -0.01,-0.01 -0.01,-0.01 c -0.45,-0.69 -0.53,-1.32 -0.53,-1.33 0,-0.12 0.12,-0.12 0.2,-0.12 0.17,0 0.18,0.02 0.22,0.2 0.23,0.98 0.82,1.81 1.95,2.27 0.11,0.04 0.14,0.06 0.14,0.13 0,0.07 -0.05,0.1 -0.07,0.11 -0.44,0.17 -1.65,0.67 -2.03,2.34 -0.03,0.12 -0.04,0.15 -0.21,0.15 -0.08,0 -0.2,0 -0.2,-0.12 0,-0.02 0.09,-0.65 0.51,-1.31 0.2,-0.31 0.49,-0.65 0.92,-0.97 h -7.4 c -0.18,0 -0.36,0 -0.36,-0.2 0,-0.2 0.18,-0.2 0.36,-0.2 z"
           style="fill:#000000;stroke-width:0" /><path
           id="path6923"
           d="m 303.45,643.78 -0.01,-0.03 -0.01,-0.03 0,-0.02 -0.01,-0.03 -0.01,-0.03 0,-0.02 -0.01,-0.02 -0.01,-0.02 -0.01,-0.02 0,-0.02 -0.01,-0.02 -0.01,-0.01 -0.01,-0.02 -0.01,-0.01 -0.01,-0.02 -0.02,-0.01 -0.01,-0.01 -0.02,-0.01 -0.01,-0.01 -0.02,0 -0.02,-0.01 -0.02,-0.01 -0.02,0 -0.02,-0.01 -0.03,0 -0.02,-0.01 -0.02,0 -0.01,0 -0.02,0 -0.01,0 -0.02,0 -0.02,0 -0.01,0 -0.02,0 -0.02,0 -0.02,0 -0.02,0 -0.02,0 c -0.12,0 -0.23,0 -0.23,-0.19 0,-0.09 0.05,-0.12 0.13,-0.12 h 1.82 c 0.05,0 0.18,0 0.18,0.2 0,0.11 -0.1,0.11 -0.24,0.11 -0.5,0 -0.5,0.07 -0.5,0.15 0,0.13 0.43,1.75 0.49,2 0.14,-0.29 0.41,-0.64 0.92,-0.64 l -0.01,0.22 c -0.66,0 -0.79,0.83 -0.79,0.89 0,0.02 0,0.03 0.03,0.16 l 0.49,1.95 c 0.07,0.27 0.34,0.55 0.52,0.69 0.35,0.31 0.64,0.38 0.81,0.38 0.4,0 0.63,-0.34 0.63,-0.93 0,-0.59 -0.32,-1.73 -0.5,-2.11 -0.34,-0.7 -0.82,-1.03 -1.19,-1.03 l 0.01,-0.22 c 1.16,0 2.4,1.45 2.4,2.92 0,0.94 -0.57,1.59 -1.32,1.59 -0.5,0 -0.98,-0.36 -1.31,-0.74 -0.1,0.54 -0.53,0.74 -0.89,0.74 -0.46,0 -0.65,-0.38 -0.74,-0.56 -0.18,-0.34 -0.31,-0.94 -0.31,-0.97 0,-0.1 0.1,-0.1 0.12,-0.1 0.1,0 0.11,0.01 0.17,0.23 0.17,0.71 0.36,1.18 0.72,1.18 0.18,0 0.31,-0.08 0.31,-0.45 0,-0.23 -0.02,-0.34 -0.07,-0.51 z"
           style="fill:#000000;stroke-width:0" /></g>    </g>
  </g>
</svg>
