<?xml version="1.0" encoding="UTF-8" standalone="no"?>
<!-- Created with Inkscape (http://www.inkscape.org/) -->

<svg
   xmlns:dc="http://purl.org/dc/elements/1.1/"
   xmlns:cc="http://creativecommons.org/ns#"
   xmlns:rdf="http://www.w3.org/1999/02/22-rdf-syntax-ns#"
   xmlns:svg="http://www.w3.org/2000/svg"
   xmlns="http://www.w3.org/2000/svg"
   xmlns:sodipodi="http://sodipodi.sourceforge.net/DTD/sodipodi-0.dtd"
   xmlns:inkscape="http://www.inkscape.org/namespaces/inkscape"
   width="400"
   height="300"
   id="svg2"
   version="1.1"
   inkscape:version="0.47 r22583"
   sodipodi:docname="points.svg">
  <sodipodi:namedview
     id="base"
     pagecolor="#ffffff"
     bordercolor="#666666"
     borderopacity="1.0"
     inkscape:pageopacity="0.0"
     inkscape:pageshadow="2"
     inkscape:zoom="1.4142136"
     inkscape:cx="203.47755"
     inkscape:cy="157.20419"
     inkscape:document-units="px"
     inkscape:current-layer="layer1"
     showgrid="false"
     inkscape:window-width="1024"
     inkscape:window-height="712"
     inkscape:window-x="-4"
     inkscape:window-y="-4"
     inkscape:window-maximized="1"
     inkscape:snap-page="true"
     showguides="true"
     inkscape:guide-bbox="true">
    <sodipodi:guide
       orientation="1,0"
       position="40,0"
       id="guide3837" />
    <sodipodi:guide
       orientation="1,0"
       position="339.5,60.5"
       id="guide4927" />
    <sodipodi:guide
       orientation="1,0"
       position="219.5,60.5"
       id="guide4929" />
    <sodipodi:guide
       orientation="1,0"
       position="100,60.5"
       id="guide4931" />
    <sodipodi:guide
       orientation="0,1"
       position="40,60.5"
       id="guide4933" />
  </sodipodi:namedview>
  <defs
     id="defs4">
    <inkscape:perspective
       id="perspective10"
       inkscape:persp3d-origin="372.04724 : 350.78739 : 1"
       inkscape:vp_z="744.09448 : 526.18109 : 1"
       inkscape:vp_y="0 : 1000 : 0"
       inkscape:vp_x="0 : 526.18109 : 1"
       sodipodi:type="inkscape:persp3d" />
    <inkscape:perspective
       id="perspective4913"
       inkscape:persp3d-origin="0.5 : 0.33333333 : 1"
       inkscape:vp_z="1 : 0.5 : 1"
       inkscape:vp_y="0 : 1000 : 0"
       inkscape:vp_x="0 : 0.5 : 1"
       sodipodi:type="inkscape:persp3d" />
    <inkscape:perspective
       id="perspective4943"
       inkscape:persp3d-origin="0.5 : 0.33333333 : 1"
       inkscape:vp_z="1 : 0.5 : 1"
       inkscape:vp_y="0 : 1000 : 0"
       inkscape:vp_x="0 : 0.5 : 1"
       sodipodi:type="inkscape:persp3d" />
  </defs>
  <metadata
     id="metadata7">
    <rdf:RDF>
      <cc:Work
         rdf:about="">
        <dc:format>image/svg+xml</dc:format>
        <dc:type
           rdf:resource="http://purl.org/dc/dcmitype/StillImage" />
        <dc:title />
      </cc:Work>
    </rdf:RDF>
  </metadata>
  <g
     id="layer1"
     inkscape:groupmode="layer"
     inkscape:label="レイヤー 1"
     transform="translate(0,-752.36218)">
    <path
       style="fill:none;stroke:#000000;stroke-width:0.99500000000000000;stroke-miterlimit:4;stroke-opacity:1;stroke-dasharray:none;stroke-dashoffset:0"
       transform="translate(0,752.36218)"
       d=" M 40.612621 202.5 C 160.408417667 232.41 280.204214333 172.41 400.000011 22.5"
       title="1*(x-3)*(x-5)/8+2*(x-1)*(x-5)/-4+5*(x-1)*(x-3)/8"
       id="path3987" />
    <path
       id="path4011"
       title="0"
       d=" M 0.0 240.0 C 133.333333333 240.0 266.666666667 240.0 400.0 240.0"
       transform="translate(0,752.36218)"
       style="fill:none;stroke:#000000;stroke-width:0.995;stroke-miterlimit:4;stroke-opacity:1;stroke-dasharray:none;stroke-dashoffset:0" />
    <path
       style="fill:none;stroke:#000000;stroke-width:1px;stroke-linecap:butt;stroke-linejoin:miter;stroke-opacity:1"
       d="M 40.402329,0 40,300"
       id="path4023"
       transform="translate(0,752.36218)"
       sodipodi:nodetypes="cc" />
    <g
       id="g4271"
       transform="matrix(5,0,0,5,-169.95715,817.83429)"
       style="stroke:none;fill:#ff0000;fill-opacity:1">
      <g
         word-spacing="normal"
         letter-spacing="normal"
         font-size-adjust="none"
         font-stretch="normal"
         font-weight="normal"
         font-variant="normal"
         font-style="normal"
         stroke-miterlimit="10.433"
         xml:space="preserve"
         transform="matrix(0.42857143,0,0,-0.42857143,-75,300)"
         id="g4273"
         style="font-style:normal;font-variant:normal;font-weight:normal;font-stretch:normal;letter-spacing:normal;word-spacing:normal;text-anchor:start;fill:#ff0000;stroke:none;stroke-linecap:butt;stroke-linejoin:miter;stroke-miterlimit:10.43299961000000000;stroke-opacity:1;stroke-dasharray:none;stroke-dashoffset:0;fill-opacity:1"><path
           id="path4275"
           d="m 293.3,642.61 0,0 0,0.01 0,0 0,0.01 0,0 -0.01,0 0,0.01 0,0 0,0 0,0.01 0,0 -0.01,0.01 0,0 0,0.01 -0.01,0 0,0.01 -0.01,0.01 0,0 -0.01,0.01 0,0 0,0.01 -0.01,0 0,0 -0.01,0.01 0,0 0,0.01 -0.01,0 0,0.01 -0.01,0 0,0.01 -0.01,0 0,0.01 -0.01,0.01 -0.01,0 0,0.01 -0.01,0 0,0.01 -0.01,0.01 -0.01,0.01 -0.01,0 0,0.01 -0.01,0.01 c -1.25,1.25 -1.57,3.14 -1.57,4.66 0,1.73 0.38,3.47 1.61,4.71 0.13,0.12 0.13,0.14 0.13,0.17 0,0.07 -0.04,0.1 -0.1,0.1 -0.1,0 -1,-0.68 -1.59,-1.94 -0.5,-1.1 -0.63,-2.2 -0.63,-3.04 0,-0.77 0.12,-1.98 0.66,-3.11 0.6,-1.22 1.46,-1.87 1.56,-1.87 0.06,0 0.1,0.03 0.1,0.1 z"
           style="fill:#ff0000;stroke-width:0;fill-opacity:1;stroke:none" /><path
           id="path4277"
           d="m 297.33,648.01 0,0.02 0.01,0.03 0.01,0.04 0.01,0.03 0.01,0.04 0.01,0.04 0.01,0.05 0.02,0.04 0.01,0.05 0.02,0.05 0.02,0.05 0.02,0.05 0.02,0.05 0.03,0.05 0.02,0.04 0.03,0.05 0.03,0.05 0.03,0.05 0.04,0.05 0.03,0.04 0.04,0.04 0.04,0.04 0.04,0.04 0.04,0.04 0.05,0.03 0.05,0.03 0.02,0.01 0.03,0.01 0.03,0.01 0.02,0.01 0.03,0.01 0.03,0.01 0.03,0.01 0.03,0 0.03,0.01 0.03,0 0.03,0 0.03,0 c 0.05,0 0.29,0 0.5,-0.13 -0.28,-0.05 -0.48,-0.29 -0.48,-0.53 0,-0.17 0.11,-0.35 0.38,-0.35 0.22,0 0.54,0.18 0.54,0.58 0,0.52 -0.59,0.65 -0.93,0.65 -0.57,0 -0.92,-0.52 -1.04,-0.75 -0.25,0.65 -0.79,0.75 -1.08,0.75 -1.04,0 -1.6,-1.28 -1.6,-1.53 0,-0.1 0.1,-0.1 0.12,-0.1 0.08,0 0.11,0.02 0.13,0.11 0.34,1.05 0.99,1.3 1.33,1.3 0.19,0 0.54,-0.09 0.54,-0.66 0,-0.31 -0.17,-0.98 -0.54,-2.37 -0.16,-0.62 -0.51,-1.04 -0.95,-1.04 -0.05,0 -0.28,0 -0.49,0.13 0.24,0.05 0.47,0.26 0.47,0.54 0,0.27 -0.23,0.35 -0.37,0.35 -0.3,0 -0.55,-0.26 -0.55,-0.58 0,-0.46 0.5,-0.66 0.94,-0.66 0.65,0 1.01,0.7 1.04,0.76 0.12,-0.37 0.48,-0.76 1.08,-0.76 1.03,0 1.59,1.29 1.59,1.54 0,0.09 -0.09,0.09 -0.12,0.09 -0.09,0 -0.11,-0.04 -0.13,-0.11 -0.33,-1.06 -1,-1.3 -1.32,-1.3 -0.39,0 -0.55,0.32 -0.55,0.66 0,0.21 0.06,0.44 0.17,0.88 z"
           style="fill:#ff0000;stroke-width:0;fill-opacity:1;stroke:none" /><path
           id="path4279"
           d="m 302.6,646.23 0,0.14 -0.01,0.13 0,0.14 -0.01,0.12 -0.01,0.13 -0.02,0.12 -0.02,0.11 -0.02,0.11 -0.02,0.11 -0.03,0.11 -0.04,0.1 -0.03,0.1 -0.05,0.1 -0.04,0.09 -0.05,0.1 -0.03,0.05 -0.03,0.04 c -0.22,0.32 -0.65,0.6 -1.21,0.6 v -0.2 c 0.38,0 0.74,-0.22 0.86,-0.63 0.12,-0.37 0.12,-0.88 0.12,-1.48 0,-0.52 0,-1.04 -0.08,-1.48 -0.15,-0.63 -0.62,-0.79 -0.9,-0.79 h 0 c -0.32,0 -0.75,0.19 -0.89,0.77 -0.09,0.41 -0.09,0.98 -0.09,1.5 0,0.5 0,1.03 0.1,1.42 0.15,0.55 0.6,0.69 0.88,0.69 v 0.2 c -1.62,0 -1.62,-1.9 -1.62,-2.4 0,-0.51 0,-2.37 1.62,-2.37 1.62,0 1.62,1.86 1.62,2.37 z"
           style="fill:#ff0000;stroke-width:0;fill-opacity:1;stroke:none" /><path
           id="path4281"
           d="m 306.02,645.01 0,0.06 0,0.06 0,0.06 -0.01,0.06 0,0.05 -0.01,0.05 -0.01,0.05 -0.01,0.05 -0.01,0.05 -0.02,0.04 -0.01,0.05 -0.02,0.04 -0.01,0.04 -0.02,0.04 -0.02,0.04 -0.02,0.03 -0.02,0.03 -0.02,0.03 -0.03,0.03 -0.02,0.03 -0.03,0.02 -0.02,0.03 -0.03,0.02 -0.03,0.01 -0.03,0.02 -0.03,0.01 -0.03,0.02 -0.03,0.01 -0.04,0 -0.03,0.01 -0.04,0 -0.03,0 c -0.34,0 -0.53,-0.24 -0.53,-0.52 0,-0.27 0.19,-0.53 0.53,-0.53 0.11,0 0.24,0.04 0.34,0.13 0.03,0.02 0.04,0.03 0.06,0.03 0,0 0.01,-0.01 0.01,-0.15 0,-0.74 -0.35,-1.33 -0.67,-1.66 -0.11,-0.11 -0.11,-0.13 -0.11,-0.16 0,-0.07 0.05,-0.11 0.1,-0.11 0.11,0 0.9,0.76 0.9,1.93 z"
           style="fill:#ff0000;stroke-width:0;fill-opacity:1;stroke:none" /><path
           id="path4283"
           d="m 312.84,648.8 0.01,0 0,0.01 0,0.01 0,0.01 0.01,0.01 0,0.01 0,0.01 0,0.01 0.01,0.01 0,0.01 0,0.01 0,0 0,0.01 0,0.01 0.01,0 0,0.01 0,0.01 0,0 0,0.01 0,0 0,0.01 0,0.01 0,0.01 0,0.01 0,0.01 0,0.01 0,0 0,0.01 0,0 c 0,0.18 -0.14,0.27 -0.29,0.27 -0.1,0 -0.26,-0.06 -0.35,-0.2 -0.02,-0.06 -0.1,-0.36 -0.13,-0.54 -0.07,-0.26 -0.15,-0.53 -0.2,-0.8 l -0.45,-1.79 c -0.04,-0.15 -0.47,-0.85 -1.13,-0.85 -0.51,0 -0.62,0.44 -0.62,0.81 0,0.46 0.17,1.07 0.51,1.95 0.16,0.41 0.2,0.52 0.2,0.72 0,0.44 -0.32,0.81 -0.81,0.81 -0.95,0 -1.32,-1.44 -1.32,-1.53 0,-0.1 0.1,-0.1 0.12,-0.1 0.1,0 0.11,0.02 0.16,0.18 0.27,0.94 0.66,1.23 1,1.23 0.08,0 0.25,0 0.25,-0.31 0,-0.25 -0.1,-0.52 -0.17,-0.7 -0.4,-1.06 -0.58,-1.63 -0.58,-2.1 0,-0.88 0.63,-1.18 1.22,-1.18 0.39,0 0.73,0.17 1.01,0.45 -0.13,-0.52 -0.25,-1.01 -0.65,-1.54 -0.26,-0.33 -0.64,-0.62 -1.1,-0.62 -0.14,0 -0.59,0.03 -0.75,0.41 0.16,0 0.29,0 0.43,0.13 0.09,0.08 0.2,0.21 0.2,0.41 0,0.3 -0.27,0.34 -0.38,0.34 -0.22,0 -0.55,-0.16 -0.55,-0.65 0,-0.49 0.44,-0.86 1.05,-0.86 1.03,0 2.06,0.9 2.34,2.03 z"
           style="fill:#ff0000;stroke-width:0;fill-opacity:1;stroke:none" /><path
           id="path4285"
           d="m 316.6,646.23 0,0.14 -0.01,0.13 0,0.14 -0.01,0.12 -0.01,0.13 -0.02,0.12 -0.02,0.11 -0.02,0.11 -0.02,0.11 -0.03,0.11 -0.04,0.1 -0.03,0.1 -0.05,0.1 -0.04,0.09 -0.05,0.1 -0.03,0.05 -0.03,0.04 c -0.22,0.32 -0.65,0.6 -1.21,0.6 v -0.2 c 0.38,0 0.74,-0.22 0.86,-0.63 0.12,-0.37 0.12,-0.88 0.12,-1.48 0,-0.52 0,-1.04 -0.08,-1.48 -0.15,-0.63 -0.62,-0.79 -0.9,-0.79 h 0 c -0.32,0 -0.75,0.19 -0.89,0.77 -0.09,0.41 -0.09,0.98 -0.09,1.5 0,0.5 0,1.03 0.1,1.42 0.15,0.55 0.6,0.69 0.88,0.69 v 0.2 c -1.62,0 -1.62,-1.9 -1.62,-2.4 0,-0.51 0,-2.37 1.62,-2.37 1.62,0 1.62,1.86 1.62,2.37 z"
           style="fill:#ff0000;stroke-width:0;fill-opacity:1;stroke:none" /><path
           id="path4287"
           d="m 320.88,647.49 0,0.08 0,0.07 0,0.08 -0.01,0.08 0,0.17 -0.02,0.18 -0.01,0.18 -0.02,0.19 -0.03,0.2 -0.03,0.19 -0.04,0.21 -0.05,0.21 -0.05,0.21 -0.06,0.21 -0.07,0.21 -0.08,0.21 -0.04,0.11 -0.05,0.11 -0.05,0.1 -0.05,0.11 c -0.59,1.22 -1.45,1.87 -1.55,1.87 -0.06,0 -0.1,-0.04 -0.1,-0.1 0,-0.03 0,-0.05 0.19,-0.22 0.97,-0.99 1.54,-2.58 1.54,-4.66 0,-1.71 -0.37,-3.46 -1.6,-4.71 -0.13,-0.12 -0.13,-0.14 -0.13,-0.17 0,-0.06 0.04,-0.1 0.1,-0.1 0.1,0 0.99,0.68 1.58,1.94 0.51,1.1 0.63,2.2 0.63,3.04 z"
           style="fill:#ff0000;stroke-width:0;fill-opacity:1;stroke:none" /></g>    </g>
    <g
       id="g4385"
       transform="matrix(5,0,0,5,-83.100002,801.62449)"
       style="stroke:none;fill:#00ff00;fill-opacity:1">
      <g
         id="g4387"
         transform="matrix(0.42857143,0,0,-0.42857143,-75,300)"
         xml:space="preserve"
         stroke-miterlimit="10.433"
         font-style="normal"
         font-variant="normal"
         font-weight="normal"
         font-stretch="normal"
         font-size-adjust="none"
         letter-spacing="normal"
         word-spacing="normal"
         style="font-style:normal;font-variant:normal;font-weight:normal;font-stretch:normal;letter-spacing:normal;word-spacing:normal;text-anchor:start;fill:#00ff00;stroke:none;stroke-linecap:butt;stroke-linejoin:miter;stroke-miterlimit:10.43299961000000000;stroke-opacity:1;stroke-dasharray:none;stroke-dashoffset:0;fill-opacity:1"><path
           d="m 293.3,642.61 0,0 0,0.01 0,0 0,0.01 0,0 -0.01,0 0,0.01 0,0 0,0 0,0.01 0,0 -0.01,0.01 0,0 0,0.01 -0.01,0 0,0.01 -0.01,0.01 0,0 -0.01,0.01 0,0 0,0.01 -0.01,0 0,0 -0.01,0.01 0,0 0,0.01 -0.01,0 0,0.01 -0.01,0 0,0.01 -0.01,0 0,0.01 -0.01,0.01 -0.01,0 0,0.01 -0.01,0 0,0.01 -0.01,0.01 -0.01,0.01 -0.01,0 0,0.01 -0.01,0.01 c -1.25,1.25 -1.57,3.14 -1.57,4.66 0,1.73 0.38,3.47 1.61,4.71 0.13,0.12 0.13,0.14 0.13,0.17 0,0.07 -0.04,0.1 -0.1,0.1 -0.1,0 -1,-0.68 -1.59,-1.94 -0.5,-1.1 -0.63,-2.2 -0.63,-3.04 0,-0.77 0.12,-1.98 0.66,-3.11 0.6,-1.22 1.46,-1.87 1.56,-1.87 0.06,0 0.1,0.03 0.1,0.1 z"
           id="path4389"
           style="fill:#00ff00;stroke-width:0;fill-opacity:1;stroke:none" /><path
           d="m 297.33,648.01 0,0.02 0.01,0.03 0.01,0.04 0.01,0.03 0.01,0.04 0.01,0.04 0.01,0.05 0.02,0.04 0.01,0.05 0.02,0.05 0.02,0.05 0.02,0.05 0.02,0.05 0.03,0.05 0.02,0.04 0.03,0.05 0.03,0.05 0.03,0.05 0.04,0.05 0.03,0.04 0.04,0.04 0.04,0.04 0.04,0.04 0.04,0.04 0.05,0.03 0.05,0.03 0.02,0.01 0.03,0.01 0.03,0.01 0.02,0.01 0.03,0.01 0.03,0.01 0.03,0.01 0.03,0 0.03,0.01 0.03,0 0.03,0 0.03,0 c 0.05,0 0.29,0 0.5,-0.13 -0.28,-0.05 -0.48,-0.29 -0.48,-0.53 0,-0.17 0.11,-0.35 0.38,-0.35 0.22,0 0.54,0.18 0.54,0.58 0,0.52 -0.59,0.65 -0.93,0.65 -0.57,0 -0.92,-0.52 -1.04,-0.75 -0.25,0.65 -0.79,0.75 -1.08,0.75 -1.04,0 -1.6,-1.28 -1.6,-1.53 0,-0.1 0.1,-0.1 0.12,-0.1 0.08,0 0.11,0.02 0.13,0.11 0.34,1.05 0.99,1.3 1.33,1.3 0.19,0 0.54,-0.09 0.54,-0.66 0,-0.31 -0.17,-0.98 -0.54,-2.37 -0.16,-0.62 -0.51,-1.04 -0.95,-1.04 -0.05,0 -0.28,0 -0.49,0.13 0.24,0.05 0.47,0.26 0.47,0.54 0,0.27 -0.23,0.35 -0.37,0.35 -0.3,0 -0.55,-0.26 -0.55,-0.58 0,-0.46 0.5,-0.66 0.94,-0.66 0.65,0 1.01,0.7 1.04,0.76 0.12,-0.37 0.48,-0.76 1.08,-0.76 1.03,0 1.59,1.29 1.59,1.54 0,0.09 -0.09,0.09 -0.12,0.09 -0.09,0 -0.11,-0.04 -0.13,-0.11 -0.33,-1.06 -1,-1.3 -1.32,-1.3 -0.39,0 -0.55,0.32 -0.55,0.66 0,0.21 0.06,0.44 0.17,0.88 z"
           id="path4391"
           style="fill:#00ff00;stroke-width:0;fill-opacity:1;stroke:none" /><path
           d="m 301.34,648.43 0,0.01 0,0.01 0,0.01 0,0.01 0,0.01 0,0 0,0.01 0,0.01 -0.01,0 0,0.01 0,0.01 0,0 0,0.01 0,0 0,0.01 0,0.01 0,0 0,0 0,0.01 0,0 -0.01,0.01 0,0.01 0,0.01 -0.01,0 0,0.01 0,0 -0.01,0.01 -0.01,0 0,0 -0.01,0.01 -0.01,0 -0.01,0 0,0 -0.01,0 0,0 -0.01,0.01 0,0 -0.01,0 0,0 -0.01,0 -0.01,0 0,0 -0.01,0 -0.01,0 0,0 -0.01,0 -0.01,0 -0.01,0 0,0 -0.01,0 -0.01,0 -0.01,0 c -0.45,-0.44 -1.08,-0.45 -1.37,-0.45 v -0.25 c 0.17,0 0.63,0 1.01,0.2 v -3.56 c 0,-0.23 0,-0.32 -0.7,-0.32 h -0.26 V 644 h 2.49 v 0.25 h -0.26 c -0.7,0 -0.7,0.09 -0.7,0.32 z"
           id="path4393"
           style="fill:#00ff00;stroke-width:0;fill-opacity:1;stroke:none" /><path
           d="m 306.02,645.01 0,0.06 0,0.06 0,0.06 -0.01,0.06 0,0.05 -0.01,0.05 -0.01,0.05 -0.01,0.05 -0.01,0.05 -0.02,0.04 -0.01,0.05 -0.02,0.04 -0.01,0.04 -0.02,0.04 -0.02,0.04 -0.02,0.03 -0.02,0.03 -0.02,0.03 -0.03,0.03 -0.02,0.03 -0.03,0.02 -0.02,0.03 -0.03,0.02 -0.03,0.01 -0.03,0.02 -0.03,0.01 -0.03,0.02 -0.03,0.01 -0.04,0 -0.03,0.01 -0.04,0 -0.03,0 c -0.34,0 -0.53,-0.24 -0.53,-0.52 0,-0.27 0.19,-0.53 0.53,-0.53 0.11,0 0.24,0.04 0.34,0.13 0.03,0.02 0.04,0.03 0.06,0.03 0,0 0.01,-0.01 0.01,-0.15 0,-0.74 -0.35,-1.33 -0.67,-1.66 -0.11,-0.11 -0.11,-0.13 -0.11,-0.16 0,-0.07 0.05,-0.11 0.1,-0.11 0.11,0 0.9,0.76 0.9,1.93 z"
           id="path4395"
           style="fill:#00ff00;stroke-width:0;fill-opacity:1;stroke:none" /><path
           d="m 312.84,648.8 0.01,0 0,0.01 0,0.01 0,0.01 0.01,0.01 0,0.01 0,0.01 0,0.01 0.01,0.01 0,0.01 0,0.01 0,0 0,0.01 0,0.01 0.01,0 0,0.01 0,0.01 0,0 0,0.01 0,0 0,0.01 0,0.01 0,0.01 0,0.01 0,0.01 0,0.01 0,0 0,0.01 0,0 c 0,0.18 -0.14,0.27 -0.29,0.27 -0.1,0 -0.26,-0.06 -0.35,-0.2 -0.02,-0.06 -0.1,-0.36 -0.13,-0.54 -0.07,-0.26 -0.15,-0.53 -0.2,-0.8 l -0.45,-1.79 c -0.04,-0.15 -0.47,-0.85 -1.13,-0.85 -0.51,0 -0.62,0.44 -0.62,0.81 0,0.46 0.17,1.07 0.51,1.95 0.16,0.41 0.2,0.52 0.2,0.72 0,0.44 -0.32,0.81 -0.81,0.81 -0.95,0 -1.32,-1.44 -1.32,-1.53 0,-0.1 0.1,-0.1 0.12,-0.1 0.1,0 0.11,0.02 0.16,0.18 0.27,0.94 0.66,1.23 1,1.23 0.08,0 0.25,0 0.25,-0.31 0,-0.25 -0.1,-0.52 -0.17,-0.7 -0.4,-1.06 -0.58,-1.63 -0.58,-2.1 0,-0.88 0.63,-1.18 1.22,-1.18 0.39,0 0.73,0.17 1.01,0.45 -0.13,-0.52 -0.25,-1.01 -0.65,-1.54 -0.26,-0.33 -0.64,-0.62 -1.1,-0.62 -0.14,0 -0.59,0.03 -0.75,0.41 0.16,0 0.29,0 0.43,0.13 0.09,0.08 0.2,0.21 0.2,0.41 0,0.3 -0.27,0.34 -0.38,0.34 -0.22,0 -0.55,-0.16 -0.55,-0.65 0,-0.49 0.44,-0.86 1.05,-0.86 1.03,0 2.06,0.9 2.34,2.03 z"
           id="path4397"
           style="fill:#00ff00;stroke-width:0;fill-opacity:1;stroke:none" /><path
           d="m 315.34,648.43 0,0.01 0,0.01 0,0.01 0,0.01 0,0.01 0,0 0,0.01 0,0.01 -0.01,0 0,0.01 0,0.01 0,0 0,0.01 0,0 0,0.01 0,0.01 0,0 0,0 0,0.01 0,0 -0.01,0.01 0,0.01 0,0.01 -0.01,0 0,0.01 0,0 -0.01,0.01 -0.01,0 0,0 -0.01,0.01 -0.01,0 -0.01,0 0,0 -0.01,0 0,0 -0.01,0.01 0,0 -0.01,0 0,0 -0.01,0 -0.01,0 0,0 -0.01,0 -0.01,0 0,0 -0.01,0 -0.01,0 -0.01,0 0,0 -0.01,0 -0.01,0 -0.01,0 c -0.45,-0.44 -1.08,-0.45 -1.37,-0.45 v -0.25 c 0.17,0 0.63,0 1.01,0.2 v -3.56 c 0,-0.23 0,-0.32 -0.7,-0.32 h -0.26 V 644 h 2.49 v 0.25 h -0.26 c -0.7,0 -0.7,0.09 -0.7,0.32 z"
           id="path4399"
           style="fill:#00ff00;stroke-width:0;fill-opacity:1;stroke:none" /><path
           d="m 320.88,647.49 0,0.08 0,0.07 0,0.08 -0.01,0.08 0,0.17 -0.02,0.18 -0.01,0.18 -0.02,0.19 -0.03,0.2 -0.03,0.19 -0.04,0.21 -0.05,0.21 -0.05,0.21 -0.06,0.21 -0.07,0.21 -0.08,0.21 -0.04,0.11 -0.05,0.11 -0.05,0.1 -0.05,0.11 c -0.59,1.22 -1.45,1.87 -1.55,1.87 -0.06,0 -0.1,-0.04 -0.1,-0.1 0,-0.03 0,-0.05 0.19,-0.22 0.97,-0.99 1.54,-2.58 1.54,-4.66 0,-1.71 -0.37,-3.46 -1.6,-4.71 -0.13,-0.12 -0.13,-0.14 -0.13,-0.17 0,-0.06 0.04,-0.1 0.1,-0.1 0.1,0 0.99,0.68 1.58,1.94 0.51,1.1 0.63,2.2 0.63,3.04 z"
           id="path4401"
           style="fill:#00ff00;stroke-width:0;fill-opacity:1;stroke:none" /></g>    </g>
    <g
       id="g4517"
       transform="matrix(5,0,0,5,18.899998,721.51333)"
       style="stroke:none;fill:#0000ff;fill-opacity:1">
      <g
         word-spacing="normal"
         letter-spacing="normal"
         font-size-adjust="none"
         font-stretch="normal"
         font-weight="normal"
         font-variant="normal"
         font-style="normal"
         stroke-miterlimit="10.433"
         xml:space="preserve"
         transform="matrix(0.42857143,0,0,-0.42857143,-75,300)"
         id="g4519"
         style="font-style:normal;font-variant:normal;font-weight:normal;font-stretch:normal;letter-spacing:normal;word-spacing:normal;text-anchor:start;fill:#0000ff;stroke:none;stroke-linecap:butt;stroke-linejoin:miter;stroke-miterlimit:10.43299961000000000;stroke-opacity:1;stroke-dasharray:none;stroke-dashoffset:0;fill-opacity:1"><path
           id="path4521"
           d="m 293.3,642.61 0,0 0,0.01 0,0 0,0.01 0,0 -0.01,0 0,0.01 0,0 0,0 0,0.01 0,0 -0.01,0.01 0,0 0,0.01 -0.01,0 0,0.01 -0.01,0.01 0,0 -0.01,0.01 0,0 0,0.01 -0.01,0 0,0 -0.01,0.01 0,0 0,0.01 -0.01,0 0,0.01 -0.01,0 0,0.01 -0.01,0 0,0.01 -0.01,0.01 -0.01,0 0,0.01 -0.01,0 0,0.01 -0.01,0.01 -0.01,0.01 -0.01,0 0,0.01 -0.01,0.01 c -1.25,1.25 -1.57,3.14 -1.57,4.66 0,1.73 0.38,3.47 1.61,4.71 0.13,0.12 0.13,0.14 0.13,0.17 0,0.07 -0.04,0.1 -0.1,0.1 -0.1,0 -1,-0.68 -1.59,-1.94 -0.5,-1.1 -0.63,-2.2 -0.63,-3.04 0,-0.77 0.12,-1.98 0.66,-3.11 0.6,-1.22 1.46,-1.87 1.56,-1.87 0.06,0 0.1,0.03 0.1,0.1 z"
           style="fill:#0000ff;stroke-width:0;fill-opacity:1;stroke:none" /><path
           id="path4523"
           d="m 297.33,648.01 0,0.02 0.01,0.03 0.01,0.04 0.01,0.03 0.01,0.04 0.01,0.04 0.01,0.05 0.02,0.04 0.01,0.05 0.02,0.05 0.02,0.05 0.02,0.05 0.02,0.05 0.03,0.05 0.02,0.04 0.03,0.05 0.03,0.05 0.03,0.05 0.04,0.05 0.03,0.04 0.04,0.04 0.04,0.04 0.04,0.04 0.04,0.04 0.05,0.03 0.05,0.03 0.02,0.01 0.03,0.01 0.03,0.01 0.02,0.01 0.03,0.01 0.03,0.01 0.03,0.01 0.03,0 0.03,0.01 0.03,0 0.03,0 0.03,0 c 0.05,0 0.29,0 0.5,-0.13 -0.28,-0.05 -0.48,-0.29 -0.48,-0.53 0,-0.17 0.11,-0.35 0.38,-0.35 0.22,0 0.54,0.18 0.54,0.58 0,0.52 -0.59,0.65 -0.93,0.65 -0.57,0 -0.92,-0.52 -1.04,-0.75 -0.25,0.65 -0.79,0.75 -1.08,0.75 -1.04,0 -1.6,-1.28 -1.6,-1.53 0,-0.1 0.1,-0.1 0.12,-0.1 0.08,0 0.11,0.02 0.13,0.11 0.34,1.05 0.99,1.3 1.33,1.3 0.19,0 0.54,-0.09 0.54,-0.66 0,-0.31 -0.17,-0.98 -0.54,-2.37 -0.16,-0.62 -0.51,-1.04 -0.95,-1.04 -0.05,0 -0.28,0 -0.49,0.13 0.24,0.05 0.47,0.26 0.47,0.54 0,0.27 -0.23,0.35 -0.37,0.35 -0.3,0 -0.55,-0.26 -0.55,-0.58 0,-0.46 0.5,-0.66 0.94,-0.66 0.65,0 1.01,0.7 1.04,0.76 0.12,-0.37 0.48,-0.76 1.08,-0.76 1.03,0 1.59,1.29 1.59,1.54 0,0.09 -0.09,0.09 -0.12,0.09 -0.09,0 -0.11,-0.04 -0.13,-0.11 -0.33,-1.06 -1,-1.3 -1.32,-1.3 -0.39,0 -0.55,0.32 -0.55,0.66 0,0.21 0.06,0.44 0.17,0.88 z"
           style="fill:#0000ff;stroke-width:0;fill-opacity:1;stroke:none" /><path
           id="path4525"
           d="m 302.52,645.27 h -0.23 c -0.02,-0.15 -0.09,-0.57 -0.19,-0.64 -0.05,-0.04 -0.59,-0.04 -0.69,-0.04 h -1.28 c 0.73,0.65 0.98,0.85 1.39,1.18 0.52,0.41 1,0.84 1,1.5 0,0.84 -0.74,1.36 -1.63,1.36 -0.87,0 -1.45,-0.61 -1.45,-1.25 0,-0.35 0.3,-0.39 0.37,-0.39 0.17,0 0.37,0.12 0.37,0.37 0,0.13 -0.05,0.37 -0.41,0.37 0.21,0.5 0.69,0.65 1.02,0.65 0.69,0 1.05,-0.54 1.05,-1.11 0,-0.61 -0.43,-1.09 -0.65,-1.34 l -1.68,-1.66 c -0.07,-0.06 -0.07,-0.07 -0.07,-0.27 h 2.87 z"
           style="fill:#0000ff;stroke-width:0;fill-opacity:1;stroke:none" /><path
           id="path4527"
           d="m 306.02,645.01 0,0.06 0,0.06 0,0.06 -0.01,0.06 0,0.05 -0.01,0.05 -0.01,0.05 -0.01,0.05 -0.01,0.05 -0.02,0.04 -0.01,0.05 -0.02,0.04 -0.01,0.04 -0.02,0.04 -0.02,0.04 -0.02,0.03 -0.02,0.03 -0.02,0.03 -0.03,0.03 -0.02,0.03 -0.03,0.02 -0.02,0.03 -0.03,0.02 -0.03,0.01 -0.03,0.02 -0.03,0.01 -0.03,0.02 -0.03,0.01 -0.04,0 -0.03,0.01 -0.04,0 -0.03,0 c -0.34,0 -0.53,-0.24 -0.53,-0.52 0,-0.27 0.19,-0.53 0.53,-0.53 0.11,0 0.24,0.04 0.34,0.13 0.03,0.02 0.04,0.03 0.06,0.03 0,0 0.01,-0.01 0.01,-0.15 0,-0.74 -0.35,-1.33 -0.67,-1.66 -0.11,-0.11 -0.11,-0.13 -0.11,-0.16 0,-0.07 0.05,-0.11 0.1,-0.11 0.11,0 0.9,0.76 0.9,1.93 z"
           style="fill:#0000ff;stroke-width:0;fill-opacity:1;stroke:none" /><path
           id="path4529"
           d="m 312.84,648.8 0.01,0 0,0.01 0,0.01 0,0.01 0.01,0.01 0,0.01 0,0.01 0,0.01 0.01,0.01 0,0.01 0,0.01 0,0 0,0.01 0,0.01 0.01,0 0,0.01 0,0.01 0,0 0,0.01 0,0 0,0.01 0,0.01 0,0.01 0,0.01 0,0.01 0,0.01 0,0 0,0.01 0,0 c 0,0.18 -0.14,0.27 -0.29,0.27 -0.1,0 -0.26,-0.06 -0.35,-0.2 -0.02,-0.06 -0.1,-0.36 -0.13,-0.54 -0.07,-0.26 -0.15,-0.53 -0.2,-0.8 l -0.45,-1.79 c -0.04,-0.15 -0.47,-0.85 -1.13,-0.85 -0.51,0 -0.62,0.44 -0.62,0.81 0,0.46 0.17,1.07 0.51,1.95 0.16,0.41 0.2,0.52 0.2,0.72 0,0.44 -0.32,0.81 -0.81,0.81 -0.95,0 -1.32,-1.44 -1.32,-1.53 0,-0.1 0.1,-0.1 0.12,-0.1 0.1,0 0.11,0.02 0.16,0.18 0.27,0.94 0.66,1.23 1,1.23 0.08,0 0.25,0 0.25,-0.31 0,-0.25 -0.1,-0.52 -0.17,-0.7 -0.4,-1.06 -0.58,-1.63 -0.58,-2.1 0,-0.88 0.63,-1.18 1.22,-1.18 0.39,0 0.73,0.17 1.01,0.45 -0.13,-0.52 -0.25,-1.01 -0.65,-1.54 -0.26,-0.33 -0.64,-0.62 -1.1,-0.62 -0.14,0 -0.59,0.03 -0.75,0.41 0.16,0 0.29,0 0.43,0.13 0.09,0.08 0.2,0.21 0.2,0.41 0,0.3 -0.27,0.34 -0.38,0.34 -0.22,0 -0.55,-0.16 -0.55,-0.65 0,-0.49 0.44,-0.86 1.05,-0.86 1.03,0 2.06,0.9 2.34,2.03 z"
           style="fill:#0000ff;stroke-width:0;fill-opacity:1;stroke:none" /><path
           id="path4531"
           d="m 316.52,645.27 h -0.23 c -0.02,-0.15 -0.09,-0.57 -0.19,-0.64 -0.05,-0.04 -0.59,-0.04 -0.69,-0.04 h -1.28 c 0.73,0.65 0.98,0.85 1.39,1.18 0.52,0.41 1,0.84 1,1.5 0,0.84 -0.74,1.36 -1.63,1.36 -0.87,0 -1.45,-0.61 -1.45,-1.25 0,-0.35 0.3,-0.39 0.37,-0.39 0.17,0 0.37,0.12 0.37,0.37 0,0.13 -0.05,0.37 -0.41,0.37 0.21,0.5 0.69,0.65 1.02,0.65 0.69,0 1.05,-0.54 1.05,-1.11 0,-0.61 -0.43,-1.09 -0.65,-1.34 l -1.68,-1.66 c -0.07,-0.06 -0.07,-0.07 -0.07,-0.27 h 2.87 z"
           style="fill:#0000ff;stroke-width:0;fill-opacity:1;stroke:none" /><path
           id="path4533"
           d="m 320.88,647.49 0,0.08 0,0.07 0,0.08 -0.01,0.08 0,0.17 -0.02,0.18 -0.01,0.18 -0.02,0.19 -0.03,0.2 -0.03,0.19 -0.04,0.21 -0.05,0.21 -0.05,0.21 -0.06,0.21 -0.07,0.21 -0.08,0.21 -0.04,0.11 -0.05,0.11 -0.05,0.1 -0.05,0.11 c -0.59,1.22 -1.45,1.87 -1.55,1.87 -0.06,0 -0.1,-0.04 -0.1,-0.1 0,-0.03 0,-0.05 0.19,-0.22 0.97,-0.99 1.54,-2.58 1.54,-4.66 0,-1.71 -0.37,-3.46 -1.6,-4.71 -0.13,-0.12 -0.13,-0.14 -0.13,-0.17 0,-0.06 0.04,-0.1 0.1,-0.1 0.1,0 0.99,0.68 1.58,1.94 0.51,1.1 0.63,2.2 0.63,3.04 z"
           style="fill:#0000ff;stroke-width:0;fill-opacity:1;stroke:none" /></g>    </g>
    <g
       id="g4667"
       transform="matrix(5,0,0,5,98.25714,719.31584)"
       style="stroke:none;fill:#000000;fill-opacity:1">
      <g
         id="g4669"
         transform="matrix(0.42857143,0,0,-0.42857143,-75,300)"
         xml:space="preserve"
         stroke-miterlimit="10.433"
         font-style="normal"
         font-variant="normal"
         font-weight="normal"
         font-stretch="normal"
         font-size-adjust="none"
         letter-spacing="normal"
         word-spacing="normal"
         style="font-style:normal;font-variant:normal;font-weight:normal;font-stretch:normal;letter-spacing:normal;word-spacing:normal;text-anchor:start;fill:#000000;stroke:none;stroke-linecap:butt;stroke-linejoin:miter;stroke-miterlimit:10.43299961000000000;stroke-opacity:1;stroke-dasharray:none;stroke-dashoffset:0;fill-opacity:1"><path
           d="m 298.02,648.15 0.04,0.26 0.67,2.71 c 0.09,0.35 0.11,0.38 0.54,0.38 h 0.96 c 0.83,0 1.36,-0.27 1.36,-0.96 0,-0.39 -0.2,-1.25 -0.59,-1.61 -0.5,-0.44 -1.1,-0.52 -1.54,-0.52 h -1.4 l -0.04,-0.26 h 1.69 c 1.42,0 2.8,1.03 2.8,2.15 0,0.77 -0.65,1.5 -1.96,1.5 h -3.23 c -0.19,0 -0.3,0 -0.3,-0.19 0,-0.11 0.09,-0.11 0.29,-0.11 0.13,0 0.31,-0.02 0.43,-0.02 0.16,-0.02 0.22,-0.05 0.22,-0.16 0,-0.04 -0.01,-0.07 -0.04,-0.19 l -1.33,-5.35 c -0.11,-0.39 -0.13,-0.47 -0.91,-0.47 -0.17,0 -0.28,0 -0.28,-0.19 0,-0.12 0.12,-0.12 0.15,-0.12 0.28,0 0.99,0.03 1.26,0.03 0.21,0 0.43,-0.01 0.64,-0.01 0.22,0 0.44,-0.02 0.65,-0.02 0.07,0 0.2,0 0.2,0.2 0,0.11 -0.09,0.11 -0.28,0.11 -0.37,0 -0.65,0 -0.65,0.18 0,0.06 0.02,0.11 0.03,0.17 z"
           id="path4671"
           style="fill:#000000;stroke-width:0;stroke:none;fill-opacity:1" /><path
           d="m 306.3,642.61 0,0 0,0.01 0,0 0,0.01 0,0 -0.01,0 0,0.01 0,0 0,0 0,0.01 0,0 -0.01,0.01 0,0 0,0.01 -0.01,0 0,0.01 -0.01,0.01 0,0 -0.01,0.01 0,0 0,0.01 -0.01,0 0,0 -0.01,0.01 0,0 0,0.01 -0.01,0 0,0.01 -0.01,0 0,0.01 -0.01,0 0,0.01 -0.01,0.01 -0.01,0 0,0.01 -0.01,0 0,0.01 -0.01,0.01 -0.01,0.01 -0.01,0 0,0.01 -0.01,0.01 c -1.25,1.25 -1.57,3.14 -1.57,4.66 0,1.73 0.38,3.47 1.61,4.71 0.13,0.12 0.13,0.14 0.13,0.17 0,0.07 -0.04,0.1 -0.1,0.1 -0.1,0 -1,-0.68 -1.59,-1.94 -0.5,-1.1 -0.63,-2.2 -0.63,-3.04 0,-0.77 0.12,-1.98 0.66,-3.11 0.6,-1.22 1.46,-1.87 1.56,-1.87 0.06,0 0.1,0.03 0.1,0.1 z"
           id="path4673"
           style="fill:#000000;stroke-width:0;stroke:none;fill-opacity:1" /><path
           d="m 310.33,648.01 0,0.02 0.01,0.03 0.01,0.04 0.01,0.03 0.01,0.04 0.01,0.04 0.01,0.05 0.02,0.04 0.01,0.05 0.02,0.05 0.02,0.05 0.02,0.05 0.02,0.05 0.03,0.05 0.02,0.04 0.03,0.05 0.03,0.05 0.03,0.05 0.04,0.05 0.03,0.04 0.04,0.04 0.04,0.04 0.04,0.04 0.04,0.04 0.05,0.03 0.05,0.03 0.02,0.01 0.03,0.01 0.03,0.01 0.02,0.01 0.03,0.01 0.03,0.01 0.03,0.01 0.03,0 0.03,0.01 0.03,0 0.03,0 0.03,0 c 0.05,0 0.29,0 0.5,-0.13 -0.28,-0.05 -0.48,-0.29 -0.48,-0.53 0,-0.17 0.11,-0.35 0.38,-0.35 0.22,0 0.54,0.18 0.54,0.58 0,0.52 -0.59,0.65 -0.93,0.65 -0.57,0 -0.92,-0.52 -1.04,-0.75 -0.25,0.65 -0.79,0.75 -1.08,0.75 -1.04,0 -1.6,-1.28 -1.6,-1.53 0,-0.1 0.1,-0.1 0.12,-0.1 0.08,0 0.11,0.02 0.13,0.11 0.34,1.05 0.99,1.3 1.33,1.3 0.19,0 0.54,-0.09 0.54,-0.66 0,-0.31 -0.17,-0.98 -0.54,-2.37 -0.16,-0.62 -0.51,-1.04 -0.95,-1.04 -0.05,0 -0.28,0 -0.49,0.13 0.24,0.05 0.47,0.26 0.47,0.54 0,0.27 -0.23,0.35 -0.37,0.35 -0.3,0 -0.55,-0.26 -0.55,-0.58 0,-0.46 0.5,-0.66 0.94,-0.66 0.65,0 1.01,0.7 1.04,0.76 0.12,-0.37 0.48,-0.76 1.08,-0.76 1.03,0 1.59,1.29 1.59,1.54 0,0.09 -0.09,0.09 -0.12,0.09 -0.09,0 -0.11,-0.04 -0.13,-0.11 -0.33,-1.06 -1,-1.3 -1.32,-1.3 -0.39,0 -0.55,0.32 -0.55,0.66 0,0.21 0.06,0.44 0.17,0.88 z"
           id="path4675"
           style="fill:#000000;stroke-width:0;stroke:none;fill-opacity:1" /><path
           d="m 314.88,647.49 0,0.08 0,0.07 0,0.08 -0.01,0.08 0,0.17 -0.02,0.18 -0.01,0.18 -0.02,0.19 -0.03,0.2 -0.03,0.19 -0.04,0.21 -0.05,0.21 -0.05,0.21 -0.06,0.21 -0.07,0.21 -0.08,0.21 -0.04,0.11 -0.05,0.11 -0.05,0.1 -0.05,0.11 c -0.59,1.22 -1.45,1.87 -1.55,1.87 -0.06,0 -0.1,-0.04 -0.1,-0.1 0,-0.03 0,-0.05 0.19,-0.22 0.97,-0.99 1.54,-2.58 1.54,-4.66 0,-1.71 -0.37,-3.46 -1.6,-4.71 -0.13,-0.12 -0.13,-0.14 -0.13,-0.17 0,-0.06 0.04,-0.1 0.1,-0.1 0.1,0 0.99,0.68 1.58,1.94 0.51,1.1 0.63,2.2 0.63,3.04 z"
           id="path4677"
           style="fill:#000000;stroke-width:0;stroke:none;fill-opacity:1" /></g>    </g>
    <g
       id="g4823"
       transform="matrix(5,0,0,5,-250.1,893.61208)">
      <g
         word-spacing="normal"
         letter-spacing="normal"
         font-size-adjust="none"
         font-stretch="normal"
         font-weight="normal"
         font-variant="normal"
         font-style="normal"
         stroke-miterlimit="10.433"
         xml:space="preserve"
         transform="matrix(0.42857143,0,0,-0.42857143,-75,300)"
         id="g4825"
         style="font-style:normal;font-variant:normal;font-weight:normal;font-stretch:normal;letter-spacing:normal;word-spacing:normal;text-anchor:start;fill:none;stroke:#000000;stroke-linecap:butt;stroke-linejoin:miter;stroke-miterlimit:10.43299961;stroke-opacity:1;stroke-dasharray:none;stroke-dashoffset:0"><path
           id="path4827"
           d="m 307.58,648.19 0,0.15 0,0.15 0,0.15 -0.01,0.14 -0.01,0.15 -0.01,0.15 -0.02,0.15 -0.02,0.15 -0.02,0.14 -0.03,0.15 -0.03,0.14 -0.04,0.15 -0.04,0.14 -0.05,0.14 -0.05,0.14 -0.07,0.14 c -0.45,0.96 -1.27,1.12 -1.69,1.12 -0.6,0 -1.33,-0.26 -1.73,-1.19 -0.32,-0.69 -0.37,-1.47 -0.37,-2.26 0,-0.75 0.04,-1.65 0.45,-2.41 0.43,-0.8 1.15,-1 1.64,-1 V 645 c -0.39,0 -0.98,0.25 -1.16,1.21 -0.11,0.59 -0.11,1.51 -0.11,2.1 0,0.64 0,1.29 0.09,1.83 0.18,1.19 0.93,1.27 1.18,1.27 0.33,0 0.99,-0.17 1.18,-1.16 0.1,-0.56 0.1,-1.32 0.1,-1.94 0,-0.75 0,-1.43 -0.12,-2.06 -0.14,-0.95 -0.71,-1.25 -1.16,-1.25 h 0 v -0.22 c 0.54,0 1.3,0.21 1.73,1.16 0.32,0.69 0.37,1.46 0.37,2.25 z"
           style="fill:#000000;stroke-width:0" /></g>    </g>
    <path
       sodipodi:type="arc"
       style="fill:#00c000;fill-opacity:1;stroke:#00c000;stroke-width:1.02727901999999990;stroke-miterlimit:4;stroke-opacity:1;stroke-dasharray:none;stroke-dashoffset:0"
       id="path4903"
       sodipodi:cx="67.52169"
       sodipodi:cy="125.26829"
       sodipodi:rx="4.638895"
       sodipodi:ry="4.638895"
       d="m 72.160585,125.26829 c 0,2.56199 -2.076904,4.63889 -4.638895,4.63889 -2.561991,0 -4.638895,-2.0769 -4.638895,-4.63889 0,-2.56199 2.076904,-4.6389 4.638895,-4.6389 2.561991,0 4.638895,2.07691 4.638895,4.6389 z"
       transform="matrix(0.97344537,0,0,0.97344538,154.25561,810.82502)" />
    <path
       sodipodi:type="arc"
       style="fill:#0000ff;fill-opacity:1;stroke:#0000ff;stroke-width:1.02727901999999990;stroke-miterlimit:4;stroke-opacity:1;stroke-dasharray:none;stroke-dashoffset:0"
       id="path4903-8"
       sodipodi:cx="67.52169"
       sodipodi:cy="125.26829"
       sodipodi:rx="4.638895"
       sodipodi:ry="4.638895"
       d="m 72.160585,125.26829 c 0,2.56199 -2.076904,4.63889 -4.638895,4.63889 -2.561991,0 -4.638895,-2.0769 -4.638895,-4.63889 0,-2.56199 2.076904,-4.6389 4.638895,-4.6389 2.561991,0 4.638895,2.07691 4.638895,4.6389 z"
       transform="matrix(0.97344537,0,0,0.97344538,273.77132,720.92034)" />
    <path
       sodipodi:type="arc"
       style="fill:#ff0000;fill-opacity:1;stroke:#ff0000;stroke-width:1.02727901999999990;stroke-miterlimit:4;stroke-opacity:1;stroke-dasharray:none;stroke-dashoffset:0"
       id="path4903-7"
       sodipodi:cx="67.52169"
       sodipodi:cy="125.26829"
       sodipodi:rx="4.638895"
       sodipodi:ry="4.638895"
       d="m 72.160585,125.26829 c 0,2.56199 -2.076904,4.63889 -4.638895,4.63889 -2.561991,0 -4.638895,-2.0769 -4.638895,-4.63889 0,-2.56199 2.076904,-4.6389 4.638895,-4.6389 2.561991,0 4.638895,2.07691 4.638895,4.6389 z"
       transform="matrix(0.97344537,0,0,0.97344538,34.771323,839.92034)" />
  </g>
</svg>
