<?xml version="1.0" encoding="UTF-8" standalone="no"?>
<!-- Created with Inkscape (http://www.inkscape.org/) -->

<svg
   xmlns:dc="http://purl.org/dc/elements/1.1/"
   xmlns:cc="http://creativecommons.org/ns#"
   xmlns:rdf="http://www.w3.org/1999/02/22-rdf-syntax-ns#"
   xmlns:svg="http://www.w3.org/2000/svg"
   xmlns="http://www.w3.org/2000/svg"
   xmlns:sodipodi="http://sodipodi.sourceforge.net/DTD/sodipodi-0.dtd"
   xmlns:inkscape="http://www.inkscape.org/namespaces/inkscape"
   width="400"
   height="300"
   id="svg2"
   version="1.1"
   inkscape:version="0.47 r22583"
   sodipodi:docname="kernel.svg">
  <sodipodi:namedview
     id="base"
     pagecolor="#ffffff"
     bordercolor="#666666"
     borderopacity="1.0"
     inkscape:pageopacity="0.0"
     inkscape:pageshadow="2"
     inkscape:zoom="1"
     inkscape:cx="284.6454"
     inkscape:cy="184.19492"
     inkscape:document-units="px"
     inkscape:current-layer="layer1"
     showgrid="false"
     inkscape:window-width="1024"
     inkscape:window-height="712"
     inkscape:window-x="-4"
     inkscape:window-y="-4"
     inkscape:window-maximized="1"
     showguides="true"
     inkscape:guide-bbox="true">
    <sodipodi:guide
       orientation="0,1"
       position="214,39"
       id="guide2852" />
    <sodipodi:guide
       orientation="1,0"
       position="16,39"
       id="guide2854" />
    <sodipodi:guide
       orientation="1,0"
       position="214,39"
       id="guide2856" />
    <sodipodi:guide
       orientation="0.70710678,0.70710678"
       position="283,105"
       id="guide5048" />
    <sodipodi:guide
       orientation="0,1"
       position="214,253.90863"
       id="guide5081" />
  </sodipodi:namedview>
  <defs
     id="defs4">
    <marker
       inkscape:stockid="Arrow1Lend"
       orient="auto"
       refY="0.0"
       refX="0.0"
       id="Arrow1Lend"
       style="overflow:visible;">
      <path
         id="path3766"
         d="M 0.0,0.0 L 5.0,-5.0 L -12.5,0.0 L 5.0,5.0 L 0.0,0.0 z "
         style="fill-rule:evenodd;stroke:#000000;stroke-width:1.0pt;marker-start:none;"
         transform="scale(0.8) rotate(180) translate(12.5,0)" />
    </marker>
    <marker
       inkscape:stockid="Arrow1Lstart"
       orient="auto"
       refY="0.0"
       refX="0.0"
       id="Arrow1Lstart"
       style="overflow:visible">
      <path
         id="path3763"
         d="M 0.0,0.0 L 5.0,-5.0 L -12.5,0.0 L 5.0,5.0 L 0.0,0.0 z "
         style="fill-rule:evenodd;stroke:#000000;stroke-width:1.0pt;marker-start:none"
         transform="scale(0.8) translate(12.5,0)" />
    </marker>
    <inkscape:perspective
       sodipodi:type="inkscape:persp3d"
       inkscape:vp_x="0 : 526.18109 : 1"
       inkscape:vp_y="0 : 1000 : 0"
       inkscape:vp_z="744.09448 : 526.18109 : 1"
       inkscape:persp3d-origin="372.04724 : 350.78739 : 1"
       id="perspective10" />
    <inkscape:perspective
       id="perspective3600"
       inkscape:persp3d-origin="0.5 : 0.33333333 : 1"
       inkscape:vp_z="1 : 0.5 : 1"
       inkscape:vp_y="0 : 1000 : 0"
       inkscape:vp_x="0 : 0.5 : 1"
       sodipodi:type="inkscape:persp3d" />
    <inkscape:perspective
       id="perspective3622"
       inkscape:persp3d-origin="0.5 : 0.33333333 : 1"
       inkscape:vp_z="1 : 0.5 : 1"
       inkscape:vp_y="0 : 1000 : 0"
       inkscape:vp_x="0 : 0.5 : 1"
       sodipodi:type="inkscape:persp3d" />
    <inkscape:perspective
       id="perspective3622-0"
       inkscape:persp3d-origin="0.5 : 0.33333333 : 1"
       inkscape:vp_z="1 : 0.5 : 1"
       inkscape:vp_y="0 : 1000 : 0"
       inkscape:vp_x="0 : 0.5 : 1"
       sodipodi:type="inkscape:persp3d" />
    <inkscape:perspective
       id="perspective3653"
       inkscape:persp3d-origin="0.5 : 0.33333333 : 1"
       inkscape:vp_z="1 : 0.5 : 1"
       inkscape:vp_y="0 : 1000 : 0"
       inkscape:vp_x="0 : 0.5 : 1"
       sodipodi:type="inkscape:persp3d" />
    <inkscape:perspective
       id="perspective3653-9"
       inkscape:persp3d-origin="0.5 : 0.33333333 : 1"
       inkscape:vp_z="1 : 0.5 : 1"
       inkscape:vp_y="0 : 1000 : 0"
       inkscape:vp_x="0 : 0.5 : 1"
       sodipodi:type="inkscape:persp3d" />
    <inkscape:perspective
       id="perspective3653-3"
       inkscape:persp3d-origin="0.5 : 0.33333333 : 1"
       inkscape:vp_z="1 : 0.5 : 1"
       inkscape:vp_y="0 : 1000 : 0"
       inkscape:vp_x="0 : 0.5 : 1"
       sodipodi:type="inkscape:persp3d" />
    <inkscape:perspective
       id="perspective3653-6"
       inkscape:persp3d-origin="0.5 : 0.33333333 : 1"
       inkscape:vp_z="1 : 0.5 : 1"
       inkscape:vp_y="0 : 1000 : 0"
       inkscape:vp_x="0 : 0.5 : 1"
       sodipodi:type="inkscape:persp3d" />
    <inkscape:perspective
       id="perspective3702"
       inkscape:persp3d-origin="0.5 : 0.33333333 : 1"
       inkscape:vp_z="1 : 0.5 : 1"
       inkscape:vp_y="0 : 1000 : 0"
       inkscape:vp_x="0 : 0.5 : 1"
       sodipodi:type="inkscape:persp3d" />
    <inkscape:perspective
       id="perspective3702-5"
       inkscape:persp3d-origin="0.5 : 0.33333333 : 1"
       inkscape:vp_z="1 : 0.5 : 1"
       inkscape:vp_y="0 : 1000 : 0"
       inkscape:vp_x="0 : 0.5 : 1"
       sodipodi:type="inkscape:persp3d" />
    <inkscape:perspective
       id="perspective3735"
       inkscape:persp3d-origin="0.5 : 0.33333333 : 1"
       inkscape:vp_z="1 : 0.5 : 1"
       inkscape:vp_y="0 : 1000 : 0"
       inkscape:vp_x="0 : 0.5 : 1"
       sodipodi:type="inkscape:persp3d" />
    <inkscape:perspective
       id="perspective3735-0"
       inkscape:persp3d-origin="0.5 : 0.33333333 : 1"
       inkscape:vp_z="1 : 0.5 : 1"
       inkscape:vp_y="0 : 1000 : 0"
       inkscape:vp_x="0 : 0.5 : 1"
       sodipodi:type="inkscape:persp3d" />
    <inkscape:perspective
       id="perspective5362"
       inkscape:persp3d-origin="0.5 : 0.33333333 : 1"
       inkscape:vp_z="1 : 0.5 : 1"
       inkscape:vp_y="0 : 1000 : 0"
       inkscape:vp_x="0 : 0.5 : 1"
       sodipodi:type="inkscape:persp3d" />
    <inkscape:perspective
       id="perspective2870"
       inkscape:persp3d-origin="0.5 : 0.33333333 : 1"
       inkscape:vp_z="1 : 0.5 : 1"
       inkscape:vp_y="0 : 1000 : 0"
       inkscape:vp_x="0 : 0.5 : 1"
       sodipodi:type="inkscape:persp3d" />
    <inkscape:perspective
       id="perspective5391"
       inkscape:persp3d-origin="0.5 : 0.33333333 : 1"
       inkscape:vp_z="1 : 0.5 : 1"
       inkscape:vp_y="0 : 1000 : 0"
       inkscape:vp_x="0 : 0.5 : 1"
       sodipodi:type="inkscape:persp3d" />
    <inkscape:perspective
       id="perspective5391-1"
       inkscape:persp3d-origin="0.5 : 0.33333333 : 1"
       inkscape:vp_z="1 : 0.5 : 1"
       inkscape:vp_y="0 : 1000 : 0"
       inkscape:vp_x="0 : 0.5 : 1"
       sodipodi:type="inkscape:persp3d" />
    <inkscape:perspective
       id="perspective5391-8"
       inkscape:persp3d-origin="0.5 : 0.33333333 : 1"
       inkscape:vp_z="1 : 0.5 : 1"
       inkscape:vp_y="0 : 1000 : 0"
       inkscape:vp_x="0 : 0.5 : 1"
       sodipodi:type="inkscape:persp3d" />
    <inkscape:perspective
       id="perspective5391-5"
       inkscape:persp3d-origin="0.5 : 0.33333333 : 1"
       inkscape:vp_z="1 : 0.5 : 1"
       inkscape:vp_y="0 : 1000 : 0"
       inkscape:vp_x="0 : 0.5 : 1"
       sodipodi:type="inkscape:persp3d" />
    <inkscape:perspective
       id="perspective5391-2"
       inkscape:persp3d-origin="0.5 : 0.33333333 : 1"
       inkscape:vp_z="1 : 0.5 : 1"
       inkscape:vp_y="0 : 1000 : 0"
       inkscape:vp_x="0 : 0.5 : 1"
       sodipodi:type="inkscape:persp3d" />
    <inkscape:perspective
       id="perspective5404"
       inkscape:persp3d-origin="0.5 : 0.33333333 : 1"
       inkscape:vp_z="1 : 0.5 : 1"
       inkscape:vp_y="0 : 1000 : 0"
       inkscape:vp_x="0 : 0.5 : 1"
       sodipodi:type="inkscape:persp3d" />
    <inkscape:perspective
       id="perspective5404-2"
       inkscape:persp3d-origin="0.5 : 0.33333333 : 1"
       inkscape:vp_z="1 : 0.5 : 1"
       inkscape:vp_y="0 : 1000 : 0"
       inkscape:vp_x="0 : 0.5 : 1"
       sodipodi:type="inkscape:persp3d" />
    <inkscape:perspective
       id="perspective5404-8"
       inkscape:persp3d-origin="0.5 : 0.33333333 : 1"
       inkscape:vp_z="1 : 0.5 : 1"
       inkscape:vp_y="0 : 1000 : 0"
       inkscape:vp_x="0 : 0.5 : 1"
       sodipodi:type="inkscape:persp3d" />
    <inkscape:perspective
       id="perspective5404-0"
       inkscape:persp3d-origin="0.5 : 0.33333333 : 1"
       inkscape:vp_z="1 : 0.5 : 1"
       inkscape:vp_y="0 : 1000 : 0"
       inkscape:vp_x="0 : 0.5 : 1"
       sodipodi:type="inkscape:persp3d" />
    <inkscape:perspective
       id="perspective5404-00"
       inkscape:persp3d-origin="0.5 : 0.33333333 : 1"
       inkscape:vp_z="1 : 0.5 : 1"
       inkscape:vp_y="0 : 1000 : 0"
       inkscape:vp_x="0 : 0.5 : 1"
       sodipodi:type="inkscape:persp3d" />
    <inkscape:perspective
       id="perspective5404-3"
       inkscape:persp3d-origin="0.5 : 0.33333333 : 1"
       inkscape:vp_z="1 : 0.5 : 1"
       inkscape:vp_y="0 : 1000 : 0"
       inkscape:vp_x="0 : 0.5 : 1"
       sodipodi:type="inkscape:persp3d" />
    <inkscape:perspective
       id="perspective5002"
       inkscape:persp3d-origin="0.5 : 0.33333333 : 1"
       inkscape:vp_z="1 : 0.5 : 1"
       inkscape:vp_y="0 : 1000 : 0"
       inkscape:vp_x="0 : 0.5 : 1"
       sodipodi:type="inkscape:persp3d" />
    <inkscape:perspective
       id="perspective5062"
       inkscape:persp3d-origin="0.5 : 0.33333333 : 1"
       inkscape:vp_z="1 : 0.5 : 1"
       inkscape:vp_y="0 : 1000 : 0"
       inkscape:vp_x="0 : 0.5 : 1"
       sodipodi:type="inkscape:persp3d" />
  </defs>
  <metadata
     id="metadata7">
    <rdf:RDF>
      <cc:Work
         rdf:about="">
        <dc:format>image/svg+xml</dc:format>
        <dc:type
           rdf:resource="http://purl.org/dc/dcmitype/StillImage" />
        <dc:title />
      </cc:Work>
    </rdf:RDF>
  </metadata>
  <g
     inkscape:label="レイヤー 1"
     inkscape:groupmode="layer"
     id="layer1"
     transform="translate(0,-752.36218)">
    <path
       style="fill:none;stroke:#000000;stroke-width:1px;stroke-linecap:butt;stroke-linejoin:miter;stroke-opacity:1;marker-start:url(#Arrow1Lstart);marker-end:url(#Arrow1Lend)"
       d="M 198,261 16,261 16,80"
       id="path2860"
       transform="translate(0,752.36218)" />
    <path
       style="fill:none;stroke:#000000;stroke-width:1px;stroke-linecap:butt;stroke-linejoin:miter;stroke-opacity:1;marker-start:url(#Arrow1Lstart);marker-end:url(#Arrow1Lend)"
       d="m 396,1013.3622 -182,0 0,-181.00008"
       id="path2860-1" />
    <path
       sodipodi:type="arc"
       style="fill:none;stroke:#000000;stroke-width:1.5;stroke-miterlimit:4;stroke-opacity:1;stroke-dasharray:none"
       id="path4412"
       sodipodi:cx="16"
       sodipodi:cy="261"
       sodipodi:rx="117.97771"
       sodipodi:ry="117.97771"
       d="M 5.4582848,143.49421 C 70.354943,137.67218 127.68377,185.56163 133.50579,250.45828 c 0.63924,7.12539 0.62904,14.29414 -0.0305,21.41767"
       transform="translate(0,752.36218)"
       sodipodi:start="4.6229162"
       sodipodi:end="6.3755029"
       sodipodi:open="true" />
    <path
       sodipodi:type="arc"
       style="fill:#ff0000;fill-opacity:1;stroke:#ff0000;stroke-width:1.5;stroke-miterlimit:4;stroke-opacity:1;stroke-dasharray:none"
       id="path2818"
       sodipodi:cx="109.74164"
       sodipodi:cy="118.86018"
       sodipodi:rx="11.018237"
       sodipodi:ry="11.018237"
       d="m 120.75988,118.86018 c 0,6.08521 -4.93304,11.01824 -11.01824,11.01824 -6.08521,0 -11.018239,-4.93303 -11.018239,-11.01824 0,-6.0852 4.933029,-11.01823 11.018239,-11.01823 6.0852,0 11.01824,4.93303 11.01824,11.01823 z"
       transform="matrix(0.42487247,0,0,0.42487247,-5.6140076,834.27745)" />
    <path
       sodipodi:type="arc"
       style="fill:#ff0000;fill-opacity:1;stroke:#ff0000;stroke-width:1.5;stroke-miterlimit:4;stroke-opacity:1;stroke-dasharray:none"
       id="path2818-9"
       sodipodi:cx="109.74164"
       sodipodi:cy="118.86018"
       sodipodi:rx="11.018237"
       sodipodi:ry="11.018237"
       d="m 120.75988,118.86018 c 0,6.08521 -4.93304,11.01824 -11.01824,11.01824 -6.08521,0 -11.018239,-4.93303 -11.018239,-11.01824 0,-6.0852 4.933029,-11.01823 11.018239,-11.01823 6.0852,0 11.01824,4.93303 11.01824,11.01823 z"
       transform="matrix(0.42487247,0,0,0.42487247,79.945913,842.05563)" />
    <path
       sodipodi:type="arc"
       style="fill:#ff0000;fill-opacity:1;stroke:#ff0000;stroke-width:1.5;stroke-miterlimit:4;stroke-opacity:1;stroke-dasharray:none"
       id="path2818-6"
       sodipodi:cx="109.74164"
       sodipodi:cy="118.86018"
       sodipodi:rx="11.018237"
       sodipodi:ry="11.018237"
       d="m 120.75988,118.86018 c 0,6.08521 -4.93304,11.01824 -11.01824,11.01824 -6.08521,0 -11.018239,-4.93303 -11.018239,-11.01824 0,-6.0852 4.933029,-11.01823 11.018239,-11.01823 6.0852,0 11.01824,4.93303 11.01824,11.01823 z"
       transform="matrix(0.42487247,0,0,0.42487247,97.623579,934.68662)" />
    <path
       sodipodi:type="arc"
       style="fill:#ff0000;fill-opacity:1;stroke:#ff0000;stroke-width:1.5;stroke-miterlimit:4;stroke-opacity:1;stroke-dasharray:none"
       id="path2818-0"
       sodipodi:cx="109.74164"
       sodipodi:cy="118.86018"
       sodipodi:rx="11.018237"
       sodipodi:ry="11.018237"
       d="m 120.75988,118.86018 c 0,6.08521 -4.93304,11.01824 -11.01824,11.01824 -6.08521,0 -11.018239,-4.93303 -11.018239,-11.01824 0,-6.0852 4.933029,-11.01823 11.018239,-11.01823 6.0852,0 11.01824,4.93303 11.01824,11.01823 z"
       transform="matrix(0.42487247,0,0,0.42487247,124.49364,877.41097)" />
    <path
       sodipodi:type="arc"
       style="fill:#ff0000;fill-opacity:1;stroke:#ff0000;stroke-width:1.5;stroke-miterlimit:4;stroke-opacity:1;stroke-dasharray:none"
       id="path2818-8"
       sodipodi:cx="109.74164"
       sodipodi:cy="118.86018"
       sodipodi:rx="11.018237"
       sodipodi:ry="11.018237"
       d="m 120.75988,118.86018 c 0,6.08521 -4.93304,11.01824 -11.01824,11.01824 -6.08521,0 -11.018239,-4.93303 -11.018239,-11.01824 0,-6.0852 4.933029,-11.01823 11.018239,-11.01823 6.0852,0 11.01824,4.93303 11.01824,11.01823 z"
       transform="matrix(0.42487247,0,0,0.42487247,55.197176,867.51147)" />
    <path
       sodipodi:type="arc"
       style="fill:#0000ff;fill-opacity:1;stroke:#0000ff;stroke-width:1.5;stroke-miterlimit:4;stroke-opacity:1;stroke-dasharray:none"
       id="path2818-9-6"
       sodipodi:cx="109.74164"
       sodipodi:cy="118.86018"
       sodipodi:rx="11.018237"
       sodipodi:ry="11.018237"
       d="m 120.75988,118.86018 c 0,6.08521 -4.93304,11.01824 -11.01824,11.01824 -6.08521,0 -11.018239,-4.93303 -11.018239,-11.01824 0,-6.0852 4.933029,-11.01823 11.018239,-11.01823 6.0852,0 11.01824,4.93303 11.01824,11.01823 z"
       transform="matrix(0.42487247,0,0,0.42487247,19.13473,868.21858)" />
    <path
       sodipodi:type="arc"
       style="fill:#0000ff;fill-opacity:1;stroke:#0000ff;stroke-width:1.5;stroke-miterlimit:4;stroke-opacity:1;stroke-dasharray:none"
       id="path2818-9-4"
       sodipodi:cx="109.74164"
       sodipodi:cy="118.86018"
       sodipodi:rx="11.018237"
       sodipodi:ry="11.018237"
       d="m 120.75988,118.86018 c 0,6.08521 -4.93304,11.01824 -11.01824,11.01824 -6.08521,0 -11.018239,-4.93303 -11.018239,-11.01824 0,-6.0852 4.933029,-11.01823 11.018239,-11.01823 6.0852,0 11.01824,4.93303 11.01824,11.01823 z"
       transform="matrix(0.42487247,0,0,0.42487247,62.97535,912.0592)" />
    <path
       sodipodi:type="arc"
       style="fill:#0000ff;fill-opacity:1;stroke:#0000ff;stroke-width:1.5;stroke-miterlimit:4;stroke-opacity:1;stroke-dasharray:none"
       id="path2818-9-65"
       sodipodi:cx="109.74164"
       sodipodi:cy="118.86018"
       sodipodi:rx="11.018237"
       sodipodi:ry="11.018237"
       d="m 120.75988,118.86018 c 0,6.08521 -4.93304,11.01824 -11.01824,11.01824 -6.08521,0 -11.018239,-4.93303 -11.018239,-11.01824 0,-6.0852 4.933029,-11.01823 11.018239,-11.01823 6.0852,0 11.01824,4.93303 11.01824,11.01823 z"
       transform="matrix(0.42487247,0,0,0.42487247,0.74995348,933.97951)" />
    <path
       sodipodi:type="arc"
       style="fill:#0000ff;fill-opacity:1;stroke:#0000ff;stroke-width:1.5;stroke-miterlimit:4;stroke-opacity:1;stroke-dasharray:none"
       id="path2818-9-9"
       sodipodi:cx="109.74164"
       sodipodi:cy="118.86018"
       sodipodi:rx="11.018237"
       sodipodi:ry="11.018237"
       d="m 120.75988,118.86018 c 0,6.08521 -4.93304,11.01824 -11.01824,11.01824 -6.08521,0 -11.018239,-4.93303 -11.018239,-11.01824 0,-6.0852 4.933029,-11.01823 11.018239,-11.01823 6.0852,0 11.01824,4.93303 11.01824,11.01823 z"
       transform="matrix(0.42487247,0,0,0.42487247,-21.944855,854.19776)" />
    <path
       sodipodi:type="arc"
       style="fill:#0000ff;fill-opacity:1;stroke:#0000ff;stroke-width:1.5;stroke-miterlimit:4;stroke-opacity:1;stroke-dasharray:none"
       id="path2818-9-61"
       sodipodi:cx="109.74164"
       sodipodi:cy="118.86018"
       sodipodi:rx="11.018237"
       sodipodi:ry="11.018237"
       d="m 120.75988,118.86018 c 0,6.08521 -4.93304,11.01824 -11.01824,11.01824 -6.08521,0 -11.018239,-4.93303 -11.018239,-11.01824 0,-6.0852 4.933029,-11.01823 11.018239,-11.01823 6.0852,0 11.01824,4.93303 11.01824,11.01823 z"
       transform="matrix(0.42487247,0,0,0.42487247,27.620011,911.35209)" />
    <path
       sodipodi:type="arc"
       style="fill:#0000ff;fill-opacity:1;stroke:#0000ff;stroke-width:1.5;stroke-miterlimit:4;stroke-opacity:1;stroke-dasharray:none"
       id="path2818-9-8"
       sodipodi:cx="109.74164"
       sodipodi:cy="118.86018"
       sodipodi:rx="11.018237"
       sodipodi:ry="11.018237"
       d="m 120.75988,118.86018 c 0,6.08521 -4.93304,11.01824 -11.01824,11.01824 -6.08521,0 -11.018239,-4.93303 -11.018239,-11.01824 0,-6.0852 4.933029,-11.01823 11.018239,-11.01823 6.0852,0 11.01824,4.93303 11.01824,11.01823 z"
       transform="matrix(0.42487247,0,0,0.42487247,46.004787,946.70743)" />
    <g
       id="g4566"
       transform="matrix(5,0,0,5,-86.964288,914.35504)">
      <g
         id="content"
         transform="matrix(0.42857143,0,0,-0.42857143,-75,300)"
         xml:space="preserve"
         stroke-miterlimit="10.433"
         font-style="normal"
         font-variant="normal"
         font-weight="normal"
         font-stretch="normal"
         font-size-adjust="none"
         letter-spacing="normal"
         word-spacing="normal"
         style="font-style:normal;font-variant:normal;font-weight:normal;font-stretch:normal;letter-spacing:normal;word-spacing:normal;text-anchor:start;fill:none;stroke:#000000;stroke-linecap:butt;stroke-linejoin:miter;stroke-miterlimit:10.43299961;stroke-opacity:1;stroke-dasharray:none;stroke-dashoffset:0"><path
           d="m 306.33,648.01 0,0.02 0.01,0.03 0.01,0.04 0.01,0.03 0.01,0.04 0.01,0.04 0.01,0.05 0.02,0.04 0.01,0.05 0.02,0.05 0.02,0.05 0.02,0.05 0.02,0.05 0.03,0.05 0.02,0.04 0.03,0.05 0.03,0.05 0.03,0.05 0.04,0.05 0.03,0.04 0.04,0.04 0.04,0.04 0.04,0.04 0.04,0.04 0.05,0.03 0.05,0.03 0.02,0.01 0.03,0.01 0.03,0.01 0.02,0.01 0.03,0.01 0.03,0.01 0.03,0.01 0.03,0 0.03,0.01 0.03,0 0.03,0 0.03,0 c 0.05,0 0.29,0 0.5,-0.13 -0.28,-0.05 -0.48,-0.29 -0.48,-0.53 0,-0.17 0.11,-0.35 0.38,-0.35 0.22,0 0.54,0.18 0.54,0.58 0,0.52 -0.59,0.65 -0.93,0.65 -0.57,0 -0.92,-0.52 -1.04,-0.75 -0.25,0.65 -0.79,0.75 -1.08,0.75 -1.04,0 -1.6,-1.28 -1.6,-1.53 0,-0.1 0.1,-0.1 0.12,-0.1 0.08,0 0.11,0.02 0.13,0.11 0.34,1.05 0.99,1.3 1.33,1.3 0.19,0 0.54,-0.09 0.54,-0.66 0,-0.31 -0.17,-0.98 -0.54,-2.37 -0.16,-0.62 -0.51,-1.04 -0.95,-1.04 -0.05,0 -0.28,0 -0.49,0.13 0.24,0.05 0.47,0.26 0.47,0.54 0,0.27 -0.23,0.35 -0.37,0.35 -0.3,0 -0.55,-0.26 -0.55,-0.58 0,-0.46 0.5,-0.66 0.94,-0.66 0.65,0 1.01,0.7 1.04,0.76 0.12,-0.37 0.48,-0.76 1.08,-0.76 1.03,0 1.59,1.29 1.59,1.54 0,0.09 -0.09,0.09 -0.12,0.09 -0.09,0 -0.11,-0.04 -0.13,-0.11 -0.33,-1.06 -1,-1.3 -1.32,-1.3 -0.39,0 -0.55,0.32 -0.55,0.66 0,0.21 0.06,0.44 0.17,0.88 z"
           id="path4569"
           style="fill:#000000;stroke-width:0" /></g>    </g>
    <g
       id="g4677"
       transform="matrix(5,0,0,5,-267.35715,700.73715)">
      <g
         word-spacing="normal"
         letter-spacing="normal"
         font-size-adjust="none"
         font-stretch="normal"
         font-weight="normal"
         font-variant="normal"
         font-style="normal"
         stroke-miterlimit="10.433"
         xml:space="preserve"
         transform="matrix(0.42857143,0,0,-0.42857143,-75,300)"
         id="g4679"
         style="font-style:normal;font-variant:normal;font-weight:normal;font-stretch:normal;letter-spacing:normal;word-spacing:normal;text-anchor:start;fill:none;stroke:#000000;stroke-linecap:butt;stroke-linejoin:miter;stroke-miterlimit:10.43299961;stroke-opacity:1;stroke-dasharray:none;stroke-dashoffset:0"><path
           id="path4681"
           d="m 307.84,648.8 0.01,0 0,0.01 0,0.01 0,0.01 0.01,0.01 0,0.01 0,0.01 0,0.01 0.01,0.01 0,0.01 0,0.01 0,0 0,0.01 0,0.01 0.01,0 0,0.01 0,0.01 0,0 0,0.01 0,0 0,0.01 0,0.01 0,0.01 0,0.01 0,0.01 0,0.01 0,0 0,0.01 0,0 c 0,0.18 -0.14,0.27 -0.29,0.27 -0.1,0 -0.26,-0.06 -0.35,-0.2 -0.02,-0.06 -0.1,-0.36 -0.13,-0.54 -0.07,-0.26 -0.15,-0.53 -0.2,-0.8 l -0.45,-1.79 c -0.04,-0.15 -0.47,-0.85 -1.13,-0.85 -0.51,0 -0.62,0.44 -0.62,0.81 0,0.46 0.17,1.07 0.51,1.95 0.16,0.41 0.2,0.52 0.2,0.72 0,0.44 -0.32,0.81 -0.81,0.81 -0.95,0 -1.32,-1.44 -1.32,-1.53 0,-0.1 0.1,-0.1 0.12,-0.1 0.1,0 0.11,0.02 0.16,0.18 0.27,0.94 0.66,1.23 1,1.23 0.08,0 0.25,0 0.25,-0.31 0,-0.25 -0.1,-0.52 -0.17,-0.7 -0.4,-1.06 -0.58,-1.63 -0.58,-2.1 0,-0.88 0.63,-1.18 1.22,-1.18 0.39,0 0.73,0.17 1.01,0.45 -0.13,-0.52 -0.25,-1.01 -0.65,-1.54 -0.26,-0.33 -0.64,-0.62 -1.1,-0.62 -0.14,0 -0.59,0.03 -0.75,0.41 0.16,0 0.29,0 0.43,0.13 0.09,0.08 0.2,0.21 0.2,0.41 0,0.3 -0.27,0.34 -0.38,0.34 -0.22,0 -0.55,-0.16 -0.55,-0.65 0,-0.49 0.44,-0.86 1.05,-0.86 1.03,0 2.06,0.9 2.34,2.03 z"
           style="fill:#000000;stroke-width:0" /></g>    </g>
    <g
       id="g4795"
       transform="matrix(5,0,0,5,106.44857,918.7979)">
      <g
         id="g4797"
         transform="matrix(0.42857143,0,0,-0.42857143,-75,300)"
         xml:space="preserve"
         stroke-miterlimit="10.433"
         font-style="normal"
         font-variant="normal"
         font-weight="normal"
         font-stretch="normal"
         font-size-adjust="none"
         letter-spacing="normal"
         word-spacing="normal"
         style="font-style:normal;font-variant:normal;font-weight:normal;font-stretch:normal;letter-spacing:normal;word-spacing:normal;text-anchor:start;fill:none;stroke:#000000;stroke-linecap:butt;stroke-linejoin:miter;stroke-miterlimit:10.43299961;stroke-opacity:1;stroke-dasharray:none;stroke-dashoffset:0"><path
           d="m 304.33,648.01 0,0.02 0.01,0.03 0.01,0.04 0.01,0.03 0.01,0.04 0.01,0.04 0.01,0.05 0.02,0.04 0.01,0.05 0.02,0.05 0.02,0.05 0.02,0.05 0.02,0.05 0.03,0.05 0.02,0.04 0.03,0.05 0.03,0.05 0.03,0.05 0.04,0.05 0.03,0.04 0.04,0.04 0.04,0.04 0.04,0.04 0.04,0.04 0.05,0.03 0.05,0.03 0.02,0.01 0.03,0.01 0.03,0.01 0.02,0.01 0.03,0.01 0.03,0.01 0.03,0.01 0.03,0 0.03,0.01 0.03,0 0.03,0 0.03,0 c 0.05,0 0.29,0 0.5,-0.13 -0.28,-0.05 -0.48,-0.29 -0.48,-0.53 0,-0.17 0.11,-0.35 0.38,-0.35 0.22,0 0.54,0.18 0.54,0.58 0,0.52 -0.59,0.65 -0.93,0.65 -0.57,0 -0.92,-0.52 -1.04,-0.75 -0.25,0.65 -0.79,0.75 -1.08,0.75 -1.04,0 -1.6,-1.28 -1.6,-1.53 0,-0.1 0.1,-0.1 0.12,-0.1 0.08,0 0.11,0.02 0.13,0.11 0.34,1.05 0.99,1.3 1.33,1.3 0.19,0 0.54,-0.09 0.54,-0.66 0,-0.31 -0.17,-0.98 -0.54,-2.37 -0.16,-0.62 -0.51,-1.04 -0.95,-1.04 -0.05,0 -0.28,0 -0.49,0.13 0.24,0.05 0.47,0.26 0.47,0.54 0,0.27 -0.23,0.35 -0.37,0.35 -0.3,0 -0.55,-0.26 -0.55,-0.58 0,-0.46 0.5,-0.66 0.94,-0.66 0.65,0 1.01,0.7 1.04,0.76 0.12,-0.37 0.48,-0.76 1.08,-0.76 1.03,0 1.59,1.29 1.59,1.54 0,0.09 -0.09,0.09 -0.12,0.09 -0.09,0 -0.11,-0.04 -0.13,-0.11 -0.33,-1.06 -1,-1.3 -1.32,-1.3 -0.39,0 -0.55,0.32 -0.55,0.66 0,0.21 0.06,0.44 0.17,0.88 z"
           id="path4799"
           style="fill:#000000;stroke-width:0" /><path
           d="m 309.52,650.27 h -0.23 c -0.02,-0.15 -0.09,-0.57 -0.19,-0.64 -0.05,-0.04 -0.59,-0.04 -0.69,-0.04 h -1.28 c 0.73,0.65 0.98,0.85 1.39,1.18 0.52,0.41 1,0.84 1,1.5 0,0.84 -0.74,1.36 -1.63,1.36 -0.87,0 -1.45,-0.61 -1.45,-1.25 0,-0.35 0.3,-0.39 0.37,-0.39 0.17,0 0.37,0.12 0.37,0.37 0,0.13 -0.05,0.37 -0.41,0.37 0.21,0.5 0.69,0.65 1.02,0.65 0.69,0 1.05,-0.54 1.05,-1.11 0,-0.61 -0.43,-1.09 -0.65,-1.34 l -1.68,-1.66 c -0.07,-0.06 -0.07,-0.07 -0.07,-0.27 h 2.87 z"
           id="path4801"
           style="fill:#000000;stroke-width:0" /></g>    </g>
    <g
       id="g4923"
       transform="matrix(5,0,0,5,-73.807145,709.36286)">
      <g
         word-spacing="normal"
         letter-spacing="normal"
         font-size-adjust="none"
         font-stretch="normal"
         font-weight="normal"
         font-variant="normal"
         font-style="normal"
         stroke-miterlimit="10.433"
         xml:space="preserve"
         transform="matrix(0.42857143,0,0,-0.42857143,-75,300)"
         id="g4925"
         style="font-style:normal;font-variant:normal;font-weight:normal;font-stretch:normal;letter-spacing:normal;word-spacing:normal;text-anchor:start;fill:none;stroke:#000000;stroke-linecap:butt;stroke-linejoin:miter;stroke-miterlimit:10.43299961;stroke-opacity:1;stroke-dasharray:none;stroke-dashoffset:0"><path
           id="path4927"
           d="m 305.84,648.8 0.01,0 0,0.01 0,0.01 0,0.01 0.01,0.01 0,0.01 0,0.01 0,0.01 0.01,0.01 0,0.01 0,0.01 0,0 0,0.01 0,0.01 0.01,0 0,0.01 0,0.01 0,0 0,0.01 0,0 0,0.01 0,0.01 0,0.01 0,0.01 0,0.01 0,0.01 0,0 0,0.01 0,0 c 0,0.18 -0.14,0.27 -0.29,0.27 -0.1,0 -0.26,-0.06 -0.35,-0.2 -0.02,-0.06 -0.1,-0.36 -0.13,-0.54 -0.07,-0.26 -0.15,-0.53 -0.2,-0.8 l -0.45,-1.79 c -0.04,-0.15 -0.47,-0.85 -1.13,-0.85 -0.51,0 -0.62,0.44 -0.62,0.81 0,0.46 0.17,1.07 0.51,1.95 0.16,0.41 0.2,0.52 0.2,0.72 0,0.44 -0.32,0.81 -0.81,0.81 -0.95,0 -1.32,-1.44 -1.32,-1.53 0,-0.1 0.1,-0.1 0.12,-0.1 0.1,0 0.11,0.02 0.16,0.18 0.27,0.94 0.66,1.23 1,1.23 0.08,0 0.25,0 0.25,-0.31 0,-0.25 -0.1,-0.52 -0.17,-0.7 -0.4,-1.06 -0.58,-1.63 -0.58,-2.1 0,-0.88 0.63,-1.18 1.22,-1.18 0.39,0 0.73,0.17 1.01,0.45 -0.13,-0.52 -0.25,-1.01 -0.65,-1.54 -0.26,-0.33 -0.64,-0.62 -1.1,-0.62 -0.14,0 -0.59,0.03 -0.75,0.41 0.16,0 0.29,0 0.43,0.13 0.09,0.08 0.2,0.21 0.2,0.41 0,0.3 -0.27,0.34 -0.38,0.34 -0.22,0 -0.55,-0.16 -0.55,-0.65 0,-0.49 0.44,-0.86 1.05,-0.86 1.03,0 2.06,0.9 2.34,2.03 z"
           style="fill:#000000;stroke-width:0" /><path
           id="path4929"
           d="m 309.52,650.27 h -0.23 c -0.02,-0.15 -0.09,-0.57 -0.19,-0.64 -0.05,-0.04 -0.59,-0.04 -0.69,-0.04 h -1.28 c 0.73,0.65 0.98,0.85 1.39,1.18 0.52,0.41 1,0.84 1,1.5 0,0.84 -0.74,1.36 -1.63,1.36 -0.87,0 -1.45,-0.61 -1.45,-1.25 0,-0.35 0.3,-0.39 0.37,-0.39 0.17,0 0.37,0.12 0.37,0.37 0,0.13 -0.05,0.37 -0.41,0.37 0.21,0.5 0.69,0.65 1.02,0.65 0.69,0 1.05,-0.54 1.05,-1.11 0,-0.61 -0.43,-1.09 -0.65,-1.34 l -1.68,-1.66 c -0.07,-0.06 -0.07,-0.07 -0.07,-0.27 h 2.87 z"
           style="fill:#000000;stroke-width:0" /></g>    </g>
    <path
       sodipodi:type="arc"
       style="fill:#ff0000;fill-opacity:1;stroke:#ff0000;stroke-width:1.5;stroke-miterlimit:4;stroke-opacity:1;stroke-dasharray:none"
       id="path2818-4"
       sodipodi:cx="109.74164"
       sodipodi:cy="118.86018"
       sodipodi:rx="11.018237"
       sodipodi:ry="11.018237"
       d="m 120.75988,118.86018 a 11.018237,11.018237 0 1 1 -22.036479,0 11.018237,11.018237 0 1 1 22.036479,0 z"
       transform="matrix(0.42487247,0,0,0.42487247,194.4854,835.64677)" />
    <path
       sodipodi:type="arc"
       style="fill:#ff0000;fill-opacity:1;stroke:#ff0000;stroke-width:1.5;stroke-miterlimit:4;stroke-opacity:1;stroke-dasharray:none"
       id="path2818-9-44"
       sodipodi:cx="109.74164"
       sodipodi:cy="118.86018"
       sodipodi:rx="11.018237"
       sodipodi:ry="11.018237"
       d="m 120.75988,118.86018 a 11.018237,11.018237 0 1 1 -22.036479,0 11.018237,11.018237 0 1 1 22.036479,0 z"
       transform="matrix(0.42487247,0,0,0.42487247,266.04532,855.42495)" />
    <path
       sodipodi:type="arc"
       style="fill:#ff0000;fill-opacity:1;stroke:#ff0000;stroke-width:1.5;stroke-miterlimit:4;stroke-opacity:1;stroke-dasharray:none"
       id="path2818-6-4"
       sodipodi:cx="109.74164"
       sodipodi:cy="118.86018"
       sodipodi:rx="11.018237"
       sodipodi:ry="11.018237"
       d="m 120.75988,118.86018 a 11.018237,11.018237 0 1 1 -22.036479,0 11.018237,11.018237 0 1 1 22.036479,0 z"
       transform="matrix(0.42487247,0,0,0.42487247,295.72299,934.0559)" />
    <path
       sodipodi:type="arc"
       style="fill:#ff0000;fill-opacity:1;stroke:#ff0000;stroke-width:1.5;stroke-miterlimit:4;stroke-opacity:1;stroke-dasharray:none"
       id="path2818-0-2"
       sodipodi:cx="109.74164"
       sodipodi:cy="118.86018"
       sodipodi:rx="11.018237"
       sodipodi:ry="11.018237"
       d="m 120.75988,118.86018 a 11.018237,11.018237 0 1 1 -22.036479,0 11.018237,11.018237 0 1 1 22.036479,0 z"
       transform="matrix(0.42487247,0,0,0.42487247,300.59304,884.78029)" />
    <path
       sodipodi:type="arc"
       style="fill:#ff0000;fill-opacity:1;stroke:#ff0000;stroke-width:1.5;stroke-miterlimit:4;stroke-opacity:1;stroke-dasharray:none"
       id="path2818-8-9"
       sodipodi:cx="109.74164"
       sodipodi:cy="118.86018"
       sodipodi:rx="11.018237"
       sodipodi:ry="11.018237"
       d="m 120.75988,118.86018 a 11.018237,11.018237 0 1 1 -22.036479,0 11.018237,11.018237 0 1 1 22.036479,0 z"
       transform="matrix(0.42487247,0,0,0.42487247,245.29658,880.88079)" />
    <path
       sodipodi:type="arc"
       style="fill:#0000ff;fill-opacity:1;stroke:#0000ff;stroke-width:1.5;stroke-miterlimit:4;stroke-opacity:1;stroke-dasharray:none"
       id="path2818-9-6-3"
       sodipodi:cx="109.74164"
       sodipodi:cy="118.86018"
       sodipodi:rx="11.018237"
       sodipodi:ry="11.018237"
       d="m 120.75988,118.86018 a 11.018237,11.018237 0 1 1 -22.036479,0 11.018237,11.018237 0 1 1 22.036479,0 z"
       transform="matrix(0.42487247,0,0,0.42487247,205.23414,887.5879)" />
    <path
       sodipodi:type="arc"
       style="fill:#0000ff;fill-opacity:1;stroke:#0000ff;stroke-width:1.5;stroke-miterlimit:4;stroke-opacity:1;stroke-dasharray:none"
       id="path2818-9-4-0"
       sodipodi:cx="109.74164"
       sodipodi:cy="118.86018"
       sodipodi:rx="11.018237"
       sodipodi:ry="11.018237"
       d="m 120.75988,118.86018 a 11.018237,11.018237 0 1 1 -22.036479,0 11.018237,11.018237 0 1 1 22.036479,0 z"
       transform="matrix(0.42487247,0,0,0.42487247,249.07476,927.42852)" />
    <path
       sodipodi:type="arc"
       style="fill:#0000ff;fill-opacity:1;stroke:#0000ff;stroke-width:1.5;stroke-miterlimit:4;stroke-opacity:1;stroke-dasharray:none"
       id="path2818-9-65-7"
       sodipodi:cx="109.74164"
       sodipodi:cy="118.86018"
       sodipodi:rx="11.018237"
       sodipodi:ry="11.018237"
       d="m 120.75988,118.86018 a 11.018237,11.018237 0 1 1 -22.036479,0 11.018237,11.018237 0 1 1 22.036479,0 z"
       transform="matrix(0.42487247,0,0,0.42487247,184.84936,949.3488)" />
    <path
       sodipodi:type="arc"
       style="fill:#0000ff;fill-opacity:1;stroke:#0000ff;stroke-width:1.5;stroke-miterlimit:4;stroke-opacity:1;stroke-dasharray:none"
       id="path2818-9-9-7"
       sodipodi:cx="109.74164"
       sodipodi:cy="118.86018"
       sodipodi:rx="11.018237"
       sodipodi:ry="11.018237"
       d="m 120.75988,118.86018 a 11.018237,11.018237 0 1 1 -22.036479,0 11.018237,11.018237 0 1 1 22.036479,0 z"
       transform="matrix(0.42487247,0,0,0.42487247,174.27616,853.44547)" />
    <path
       sodipodi:type="arc"
       style="fill:#0000ff;fill-opacity:1;stroke:#0000ff;stroke-width:1.5;stroke-miterlimit:4;stroke-opacity:1;stroke-dasharray:none"
       id="path2818-9-61-8"
       sodipodi:cx="109.74164"
       sodipodi:cy="118.86018"
       sodipodi:rx="11.018237"
       sodipodi:ry="11.018237"
       d="m 120.75988,118.86018 a 11.018237,11.018237 0 1 1 -22.036479,0 11.018237,11.018237 0 1 1 22.036479,0 z"
       transform="matrix(0.42487247,0,0,0.42487247,208.71942,923.72141)" />
    <path
       sodipodi:type="arc"
       style="fill:#0000ff;fill-opacity:1;stroke:#0000ff;stroke-width:1.5;stroke-miterlimit:4;stroke-opacity:1;stroke-dasharray:none"
       id="path2818-9-8-7"
       sodipodi:cx="109.74164"
       sodipodi:cy="118.86018"
       sodipodi:rx="11.018237"
       sodipodi:ry="11.018237"
       d="m 120.75988,118.86018 a 11.018237,11.018237 0 1 1 -22.036479,0 11.018237,11.018237 0 1 1 22.036479,0 z"
       transform="matrix(0.42487247,0,0,0.42487247,224.1042,948.0768)" />
    <path
       style="fill:none;stroke:#000000;stroke-width:1px;stroke-linecap:butt;stroke-linejoin:miter;stroke-opacity:1"
       d="M 199,111 365,277"
       id="path5046"
       sodipodi:nodetypes="cc"
       transform="translate(0,752.36218)" />
    <text
       xml:space="preserve"
       style="font-size:10px;font-style:normal;font-variant:normal;font-weight:normal;font-stretch:normal;fill:#000000;fill-opacity:1;stroke:none;font-family:MS UI Gothic;-inkscape-font-specification:MS UI Gothic"
       x="45"
       y="798.45355"
       id="text5050"><tspan
         sodipodi:role="line"
         id="tspan5052"
         x="45"
         y="798.45355"
         style="font-size:14px">元の特徴空間</tspan></text>
    <text
       xml:space="preserve"
       style="font-size:10px;font-style:normal;font-variant:normal;font-weight:normal;font-stretch:normal;fill:#000000;fill-opacity:1;stroke:none;font-family:MS UI Gothic;-inkscape-font-specification:MS UI Gothic"
       x="252.47656"
       y="798.45355"
       id="text5050-1"><tspan
         sodipodi:role="line"
         id="tspan5052-4"
         x="252.47656"
         y="798.45355"
         style="font-size:14px">写像した特徴空間</tspan></text>
    <path
       style="fill:none;stroke:#000000;stroke-width:1.5;stroke-linecap:butt;stroke-linejoin:miter;stroke-opacity:1;marker-end:url(#Arrow1Lend);stroke-miterlimit:4;stroke-dasharray:none"
       d="m 145.11168,46.09137 96.41116,0"
       id="path5079"
       transform="translate(0,752.36218)"
       sodipodi:nodetypes="cc" />
  </g>
</svg>
