<?xml version="1.0" encoding="UTF-8" standalone="no"?>
<!-- Created with Inkscape (http://www.inkscape.org/) -->

<svg
   xmlns:dc="http://purl.org/dc/elements/1.1/"
   xmlns:cc="http://creativecommons.org/ns#"
   xmlns:rdf="http://www.w3.org/1999/02/22-rdf-syntax-ns#"
   xmlns:svg="http://www.w3.org/2000/svg"
   xmlns="http://www.w3.org/2000/svg"
   xmlns:sodipodi="http://sodipodi.sourceforge.net/DTD/sodipodi-0.dtd"
   xmlns:inkscape="http://www.inkscape.org/namespaces/inkscape"
   width="400"
   height="300"
   id="svg2"
   version="1.1"
   inkscape:version="0.47 r22583"
   sodipodi:docname="max-margin.svg">
  <sodipodi:namedview
     id="base"
     pagecolor="#ffffff"
     bordercolor="#666666"
     borderopacity="1.0"
     inkscape:pageopacity="0.0"
     inkscape:pageshadow="2"
     inkscape:zoom="1.4669694"
     inkscape:cx="198.13347"
     inkscape:cy="148.04973"
     inkscape:document-units="px"
     inkscape:current-layer="layer1"
     showgrid="false"
     inkscape:window-width="1024"
     inkscape:window-height="712"
     inkscape:window-x="-4"
     inkscape:window-y="-4"
     inkscape:window-maximized="1"
     showguides="true"
     inkscape:guide-bbox="true">
    <sodipodi:guide
       orientation="-0.82903757,0.5591929"
       position="104.01216,61.702128"
       id="guide4408" />
    <sodipodi:guide
       orientation="0.5591929,0.82903757"
       position="161.02423,146.226"
       id="guide4412" />
    <sodipodi:guide
       orientation="-0.82903757,0.5591929"
       position="113.63181,178.19259"
       id="guide5379" />
    <sodipodi:guide
       orientation="-0.82903757,0.5591929"
       position="205.65858,116.11975"
       id="guide5381" />
  </sodipodi:namedview>
  <defs
     id="defs4">
    <marker
       inkscape:stockid="Arrow1Lend"
       orient="auto"
       refY="0.0"
       refX="0.0"
       id="Arrow1Lend"
       style="overflow:visible;">
      <path
         id="path3766"
         d="M 0.0,0.0 L 5.0,-5.0 L -12.5,0.0 L 5.0,5.0 L 0.0,0.0 z "
         style="fill-rule:evenodd;stroke:#000000;stroke-width:1.0pt;marker-start:none;"
         transform="scale(0.8) rotate(180) translate(12.5,0)" />
    </marker>
    <marker
       inkscape:stockid="Arrow1Lstart"
       orient="auto"
       refY="0.0"
       refX="0.0"
       id="Arrow1Lstart"
       style="overflow:visible">
      <path
         id="path3763"
         d="M 0.0,0.0 L 5.0,-5.0 L -12.5,0.0 L 5.0,5.0 L 0.0,0.0 z "
         style="fill-rule:evenodd;stroke:#000000;stroke-width:1.0pt;marker-start:none"
         transform="scale(0.8) translate(12.5,0)" />
    </marker>
    <inkscape:perspective
       sodipodi:type="inkscape:persp3d"
       inkscape:vp_x="0 : 526.18109 : 1"
       inkscape:vp_y="0 : 1000 : 0"
       inkscape:vp_z="744.09448 : 526.18109 : 1"
       inkscape:persp3d-origin="372.04724 : 350.78739 : 1"
       id="perspective10" />
    <inkscape:perspective
       id="perspective3600"
       inkscape:persp3d-origin="0.5 : 0.33333333 : 1"
       inkscape:vp_z="1 : 0.5 : 1"
       inkscape:vp_y="0 : 1000 : 0"
       inkscape:vp_x="0 : 0.5 : 1"
       sodipodi:type="inkscape:persp3d" />
    <inkscape:perspective
       id="perspective3622"
       inkscape:persp3d-origin="0.5 : 0.33333333 : 1"
       inkscape:vp_z="1 : 0.5 : 1"
       inkscape:vp_y="0 : 1000 : 0"
       inkscape:vp_x="0 : 0.5 : 1"
       sodipodi:type="inkscape:persp3d" />
    <inkscape:perspective
       id="perspective3622-0"
       inkscape:persp3d-origin="0.5 : 0.33333333 : 1"
       inkscape:vp_z="1 : 0.5 : 1"
       inkscape:vp_y="0 : 1000 : 0"
       inkscape:vp_x="0 : 0.5 : 1"
       sodipodi:type="inkscape:persp3d" />
    <inkscape:perspective
       id="perspective3653"
       inkscape:persp3d-origin="0.5 : 0.33333333 : 1"
       inkscape:vp_z="1 : 0.5 : 1"
       inkscape:vp_y="0 : 1000 : 0"
       inkscape:vp_x="0 : 0.5 : 1"
       sodipodi:type="inkscape:persp3d" />
    <inkscape:perspective
       id="perspective3653-9"
       inkscape:persp3d-origin="0.5 : 0.33333333 : 1"
       inkscape:vp_z="1 : 0.5 : 1"
       inkscape:vp_y="0 : 1000 : 0"
       inkscape:vp_x="0 : 0.5 : 1"
       sodipodi:type="inkscape:persp3d" />
    <inkscape:perspective
       id="perspective3653-3"
       inkscape:persp3d-origin="0.5 : 0.33333333 : 1"
       inkscape:vp_z="1 : 0.5 : 1"
       inkscape:vp_y="0 : 1000 : 0"
       inkscape:vp_x="0 : 0.5 : 1"
       sodipodi:type="inkscape:persp3d" />
    <inkscape:perspective
       id="perspective3653-6"
       inkscape:persp3d-origin="0.5 : 0.33333333 : 1"
       inkscape:vp_z="1 : 0.5 : 1"
       inkscape:vp_y="0 : 1000 : 0"
       inkscape:vp_x="0 : 0.5 : 1"
       sodipodi:type="inkscape:persp3d" />
    <inkscape:perspective
       id="perspective3702"
       inkscape:persp3d-origin="0.5 : 0.33333333 : 1"
       inkscape:vp_z="1 : 0.5 : 1"
       inkscape:vp_y="0 : 1000 : 0"
       inkscape:vp_x="0 : 0.5 : 1"
       sodipodi:type="inkscape:persp3d" />
    <inkscape:perspective
       id="perspective3702-5"
       inkscape:persp3d-origin="0.5 : 0.33333333 : 1"
       inkscape:vp_z="1 : 0.5 : 1"
       inkscape:vp_y="0 : 1000 : 0"
       inkscape:vp_x="0 : 0.5 : 1"
       sodipodi:type="inkscape:persp3d" />
    <inkscape:perspective
       id="perspective3735"
       inkscape:persp3d-origin="0.5 : 0.33333333 : 1"
       inkscape:vp_z="1 : 0.5 : 1"
       inkscape:vp_y="0 : 1000 : 0"
       inkscape:vp_x="0 : 0.5 : 1"
       sodipodi:type="inkscape:persp3d" />
    <inkscape:perspective
       id="perspective3735-0"
       inkscape:persp3d-origin="0.5 : 0.33333333 : 1"
       inkscape:vp_z="1 : 0.5 : 1"
       inkscape:vp_y="0 : 1000 : 0"
       inkscape:vp_x="0 : 0.5 : 1"
       sodipodi:type="inkscape:persp3d" />
    <inkscape:perspective
       id="perspective5362"
       inkscape:persp3d-origin="0.5 : 0.33333333 : 1"
       inkscape:vp_z="1 : 0.5 : 1"
       inkscape:vp_y="0 : 1000 : 0"
       inkscape:vp_x="0 : 0.5 : 1"
       sodipodi:type="inkscape:persp3d" />
  </defs>
  <metadata
     id="metadata7">
    <rdf:RDF>
      <cc:Work
         rdf:about="">
        <dc:format>image/svg+xml</dc:format>
        <dc:type
           rdf:resource="http://purl.org/dc/dcmitype/StillImage" />
        <dc:title />
      </cc:Work>
    </rdf:RDF>
  </metadata>
  <g
     inkscape:label="レイヤー 1"
     inkscape:groupmode="layer"
     id="layer1"
     transform="translate(0,-752.36218)">
    <path
       sodipodi:type="arc"
       style="fill:#ff0000;fill-opacity:1;stroke:#ff0000;stroke-width:1.5;stroke-miterlimit:4;stroke-opacity:1;stroke-dasharray:none"
       id="path2818"
       sodipodi:cx="109.74164"
       sodipodi:cy="118.86018"
       sodipodi:rx="11.018237"
       sodipodi:ry="11.018237"
       d="m 120.75988,118.86018 c 0,6.08521 -4.93304,11.01824 -11.01824,11.01824 -6.08521,0 -11.018239,-4.93303 -11.018239,-11.01824 0,-6.0852 4.933029,-11.01823 11.018239,-11.01823 6.0852,0 11.01824,4.93303 11.01824,11.01823 z"
       transform="matrix(0.42487247,0,0,0.42487247,66.452035,824.45339)" />
    <path
       sodipodi:type="arc"
       style="fill:#0000ff;fill-opacity:1;stroke:#0000ff;stroke-width:1.5;stroke-miterlimit:4;stroke-opacity:1;stroke-dasharray:none"
       id="path2818-9"
       sodipodi:cx="109.74164"
       sodipodi:cy="118.86018"
       sodipodi:rx="11.018237"
       sodipodi:ry="11.018237"
       d="m 120.75988,118.86018 c 0,6.08521 -4.93304,11.01824 -11.01824,11.01824 -6.08521,0 -11.018239,-4.93303 -11.018239,-11.01824 0,-6.0852 4.933029,-11.01823 11.018239,-11.01823 6.0852,0 11.01824,4.93303 11.01824,11.01823 z"
       transform="matrix(0.42487247,0,0,0.42487247,158.75374,885.50917)" />
    <path
       sodipodi:type="arc"
       style="fill:none;fill-opacity:1;stroke:#0000ff;stroke-width:2.35364744;stroke-miterlimit:4;stroke-opacity:1;stroke-dasharray:none"
       id="path2818-9-9"
       sodipodi:cx="109.74164"
       sodipodi:cy="118.86018"
       sodipodi:rx="11.018237"
       sodipodi:ry="11.018237"
       d="m 120.75988,118.86018 c 0,6.08521 -4.93304,11.01824 -11.01824,11.01824 -6.08521,0 -11.018239,-4.93303 -11.018239,-11.01824 0,-6.0852 4.933029,-11.01823 11.018239,-11.01823 6.0852,0 11.01824,4.93303 11.01824,11.01823 z"
       transform="matrix(0.42487247,0,0,0.42487247,217.81149,960.43319)" />
    <path
       sodipodi:type="arc"
       style="fill:none;fill-opacity:1;stroke:#0000ff;stroke-width:2.35364744;stroke-miterlimit:4;stroke-opacity:1;stroke-dasharray:none"
       id="path2818-9-7"
       sodipodi:cx="109.74164"
       sodipodi:cy="118.86018"
       sodipodi:rx="11.018237"
       sodipodi:ry="11.018237"
       d="m 120.75988,118.86018 c 0,6.08521 -4.93304,11.01824 -11.01824,11.01824 -6.08521,0 -11.018239,-4.93303 -11.018239,-11.01824 0,-6.0852 4.933029,-11.01823 11.018239,-11.01823 6.0852,0 11.01824,4.93303 11.01824,11.01823 z"
       transform="matrix(0.42487247,0,0,0.42487247,246.89963,883.74626)" />
    <path
       sodipodi:type="arc"
       style="fill:none;fill-opacity:1;stroke:#ff0000;stroke-width:2.35364744000000000;stroke-miterlimit:4;stroke-opacity:1;stroke-dasharray:none"
       id="path2818-2"
       sodipodi:cx="109.74164"
       sodipodi:cy="118.86018"
       sodipodi:rx="11.018237"
       sodipodi:ry="11.018237"
       d="m 120.75988,118.86018 c 0,6.08521 -4.93304,11.01824 -11.01824,11.01824 -6.08521,0 -11.018239,-4.93303 -11.018239,-11.01824 0,-6.0852 4.933029,-11.01823 11.018239,-11.01823 6.0852,0 11.01824,4.93303 11.01824,11.01823 z"
       transform="matrix(0.42487247,0,0,0.42487247,80.10328,755.34201)" />
    <path
       sodipodi:type="arc"
       style="fill:none;fill-opacity:1;stroke:#ff0000;stroke-width:2.35364744000000000;stroke-miterlimit:4;stroke-opacity:1;stroke-dasharray:none"
       id="path2818-7"
       sodipodi:cx="109.74164"
       sodipodi:cy="118.86018"
       sodipodi:rx="11.018237"
       sodipodi:ry="11.018237"
       d="m 120.75988,118.86018 c 0,6.08521 -4.93304,11.01824 -11.01824,11.01824 -6.08521,0 -11.018239,-4.93303 -11.018239,-11.01824 0,-6.0852 4.933029,-11.01823 11.018239,-11.01823 6.0852,0 11.01824,4.93303 11.01824,11.01823 z"
       transform="matrix(0.42487247,0,0,0.42487247,-8.7234653,738.30553)" />
    <path
       sodipodi:type="arc"
       style="fill:none;fill-opacity:1;stroke:#ff0000;stroke-width:2.35364744000000000;stroke-miterlimit:4;stroke-opacity:1;stroke-dasharray:none"
       id="path2818-72"
       sodipodi:cx="109.74164"
       sodipodi:cy="118.86018"
       sodipodi:rx="11.018237"
       sodipodi:ry="11.018237"
       d="m 120.75988,118.86018 c 0,6.08521 -4.93304,11.01824 -11.01824,11.01824 -6.08521,0 -11.018239,-4.93303 -11.018239,-11.01824 0,-6.0852 4.933029,-11.01823 11.018239,-11.01823 6.0852,0 11.01824,4.93303 11.01824,11.01823 z"
       transform="matrix(0.42487247,0,0,0.42487247,-4.3161705,835.26602)" />
    <path
       sodipodi:type="arc"
       style="fill:none;fill-opacity:1;stroke:#ff0000;stroke-width:2.35364744000000000;stroke-miterlimit:4;stroke-opacity:1;stroke-dasharray:none"
       id="path2818-0"
       sodipodi:cx="109.74164"
       sodipodi:cy="118.86018"
       sodipodi:rx="11.018237"
       sodipodi:ry="11.018237"
       d="m 120.75988,118.86018 c 0,6.08521 -4.93304,11.01824 -11.01824,11.01824 -6.08521,0 -11.018239,-4.93303 -11.018239,-11.01824 0,-6.0852 4.933029,-11.01823 11.018239,-11.01823 6.0852,0 11.01824,4.93303 11.01824,11.01823 z"
       transform="matrix(0.42487247,0,0,0.42487247,11.905714,892.07149)" />
    <path
       sodipodi:type="arc"
       style="fill:none;fill-opacity:1;stroke:#0000ff;stroke-width:2.35364744;stroke-miterlimit:4;stroke-opacity:1;stroke-dasharray:none"
       id="path2818-9-6"
       sodipodi:cx="109.74164"
       sodipodi:cy="118.86018"
       sodipodi:rx="11.018237"
       sodipodi:ry="11.018237"
       d="m 120.75988,118.86018 c 0,6.08521 -4.93304,11.01824 -11.01824,11.01824 -6.08521,0 -11.018239,-4.93303 -11.018239,-11.01824 0,-6.0852 4.933029,-11.01823 11.018239,-11.01823 6.0852,0 11.01824,4.93303 11.01824,11.01823 z"
       transform="matrix(0.42487247,0,0,0.42487247,308.60176,955.14444)" />
    <path
       sodipodi:type="arc"
       style="fill:none;fill-opacity:1;stroke:#0000ff;stroke-width:2.35364744;stroke-miterlimit:4;stroke-opacity:1;stroke-dasharray:none"
       id="path2818-9-75"
       sodipodi:cx="109.74164"
       sodipodi:cy="118.86018"
       sodipodi:rx="11.018237"
       sodipodi:ry="11.018237"
       d="m 120.75988,118.86018 c 0,6.08521 -4.93304,11.01824 -11.01824,11.01824 -6.08521,0 -11.018239,-4.93303 -11.018239,-11.01824 0,-6.0852 4.933029,-11.01823 11.018239,-11.01823 6.0852,0 11.01824,4.93303 11.01824,11.01823 z"
       transform="matrix(0.42487247,0,0,0.42487247,260.87165,796.95676)" />
    <path
       style="fill:none;stroke:#000000;stroke-width:2;stroke-linecap:butt;stroke-linejoin:miter;stroke-opacity:1;stroke-miterlimit:4;stroke-dasharray:none"
       d="M 261.11795,757.74114 66.436863,1046.3677"
       id="path3725"
       sodipodi:nodetypes="cc" />
    <path
       style="fill:none;stroke:#000000;stroke-width:1px;stroke-linecap:butt;stroke-linejoin:miter;stroke-opacity:1;marker-start:url(#Arrow1Lstart);marker-end:url(#Arrow1Lend)"
       d="m 168.44136,793.55702 91.72732,61.87086"
       id="path4416"
       sodipodi:nodetypes="cc" />
    <path
       style="fill:none;stroke:#000000;stroke-width:1;stroke-linecap:butt;stroke-linejoin:miter;stroke-opacity:1;stroke-miterlimit:4;stroke-dasharray:2,2;stroke-dashoffset:0"
       d="M 192.32913,5.1338405 7.9784607,278.44494"
       id="path2852"
       transform="translate(0,752.36218)" />
    <path
       style="fill:none;stroke:#000000;stroke-width:1;stroke-linecap:butt;stroke-linejoin:miter;stroke-opacity:1;stroke-miterlimit:4;stroke-dasharray:2,1;stroke-dashoffset:0"
       d="M 319.56636,15.005018 132.79891,291.89915"
       id="path2854"
       transform="translate(0,752.36218)" />
    <g
       transform="matrix(2.7299538,-4.188956,4.188956,2.7299538,-109.24169,1140.5408)"
       id="g3680">
      <g
         style="font-style:normal;font-variant:normal;font-weight:normal;font-stretch:normal;letter-spacing:normal;word-spacing:normal;text-anchor:start;fill:none;stroke:#000000;stroke-linecap:butt;stroke-linejoin:miter;stroke-miterlimit:10.43299961;stroke-opacity:1;stroke-dasharray:none;stroke-dashoffset:0"
         id="content"
         transform="matrix(0.42857143,0,0,-0.42857143,-75,300)"
         xml:space="preserve"
         stroke-miterlimit="10.433"
         font-style="normal"
         font-variant="normal"
         font-weight="normal"
         font-stretch="normal"
         font-size-adjust="none"
         letter-spacing="normal"
         word-spacing="normal"><path
           style="fill:#000000;stroke-width:0"
           d="m 282.54,648.53 0,0.02 0.01,0.01 0,0.02 0,0.02 0.01,0.03 0.01,0.03 0.01,0.04 0.01,0.03 0.01,0.04 0,0.03 0.01,0.01 0,0.02 0.01,0.02 0,0.01 0,0.01 0.01,0.02 0,0.01 0,0.01 0,0.02 0,0.01 0.01,0.01 0,0.01 0,0.01 0,0 0,0.01 0,0 c 0,0.22 -0.16,0.44 -0.47,0.44 -0.16,0 -0.53,-0.08 -0.66,-0.52 -0.17,-0.63 -0.35,-1.36 -0.51,-2.04 -0.07,-0.34 -0.07,-0.47 -0.07,-0.61 0,-0.27 0.03,-0.25 0.03,-0.31 0,-0.05 -0.27,-0.66 -0.85,-0.66 -0.81,0 -0.81,0.61 -0.81,0.82 0,0.42 0.12,0.88 0.52,1.9 0.08,0.2 0.18,0.44 0.18,0.6 0,0.58 -0.58,0.9 -1.13,0.9 -1.05,0 -1.55,-1.35 -1.55,-1.55 0,-0.14 0.15,-0.14 0.24,-0.14 0.12,0 0.19,0 0.23,0.13 0.33,1.1 0.86,1.21 1.02,1.21 0.06,0 0.17,0 0.17,-0.22 0,-0.22 -0.1,-0.47 -0.22,-0.78 -0.38,-0.97 -0.53,-1.45 -0.53,-1.88 0,-1.09 0.95,-1.35 1.81,-1.35 0.2,0 0.66,0 1.12,0.56 0.26,-0.34 0.71,-0.56 1.49,-0.56 0.6,0 1.12,0.29 1.58,1.17 0.4,0.74 0.71,2 0.71,2.51 0,0.91 -0.67,0.91 -0.68,0.91 -0.38,0 -0.76,-0.4 -0.76,-0.75 0,-0.28 0.21,-0.41 0.3,-0.45 0.39,-0.23 0.5,-0.41 0.5,-0.63 0,-0.15 -0.25,-1.09 -0.55,-1.65 -0.29,-0.49 -0.6,-0.75 -1.03,-0.75 -0.72,0 -0.73,0.59 -0.73,0.79 0,0.25 0.04,0.4 0.16,0.9 0.07,0.29 0.19,0.78 0.25,1.01 z"
           id="path3683" /><path
           style="fill:#000000;stroke-width:0"
           d="m 289.91,647.49 0,0.03 0,0.03 0,0.02 -0.01,0.03 0,0.02 -0.01,0.03 -0.01,0.02 -0.01,0.03 -0.01,0.02 -0.01,0.02 -0.01,0.02 -0.02,0.03 -0.01,0.02 -0.02,0.02 -0.02,0.02 -0.01,0.01 -0.02,0.02 -0.02,0.02 -0.02,0.01 -0.02,0.02 -0.02,0.01 -0.02,0.02 -0.03,0.01 -0.02,0.01 -0.02,0.01 -0.03,0.01 -0.02,0 -0.03,0.01 -0.02,0 -0.03,0.01 -0.03,0 -0.02,0 c -0.29,0 -0.53,-0.24 -0.53,-0.53 0,-0.29 0.24,-0.53 0.53,-0.53 0.28,0 0.52,0.24 0.52,0.53 z"
           id="path3685" /><path
           style="fill:#000000;stroke-width:0"
           d="m 298.34,649 -0.03,-0.01 -0.04,-0.02 -0.03,-0.01 -0.03,-0.01 -0.03,-0.02 -0.02,-0.01 -0.03,-0.02 -0.03,-0.02 -0.02,-0.02 -0.02,-0.02 -0.03,-0.02 -0.02,-0.02 -0.02,-0.02 -0.02,-0.02 -0.02,-0.03 -0.01,-0.02 -0.02,-0.03 -0.02,-0.02 -0.01,-0.03 -0.01,-0.02 -0.02,-0.03 -0.01,-0.02 -0.01,-0.03 -0.01,-0.02 0,-0.03 -0.01,-0.02 -0.01,-0.03 0,-0.02 0,-0.03 -0.01,-0.02 0,-0.03 0,-0.02 c 0,-0.22 0.17,-0.46 0.5,-0.46 0.35,0 0.72,0.29 0.72,0.78 0,0.53 -0.53,0.87 -1.14,0.87 -0.57,0 -0.93,-0.43 -1.06,-0.6 -0.25,0.41 -0.81,0.6 -1.38,0.6 -1.25,0 -1.93,-1.22 -1.93,-1.55 0,-0.14 0.15,-0.14 0.24,-0.14 0.12,0 0.19,0 0.23,0.13 0.29,0.9 1,1.21 1.41,1.21 0.38,0 0.56,-0.18 0.56,-0.5 0,-0.19 -0.14,-0.74 -0.23,-1.1 l -0.34,-1.36 c -0.15,-0.61 -0.51,-0.91 -0.84,-0.91 -0.06,0 -0.29,0 -0.49,0.15 0.36,0.1 0.54,0.44 0.54,0.69 0,0.22 -0.16,0.45 -0.49,0.45 -0.35,0 -0.72,-0.29 -0.72,-0.77 0,-0.53 0.53,-0.88 1.14,-0.88 0.56,0 0.93,0.43 1.06,0.61 0.25,-0.42 0.81,-0.61 1.38,-0.61 1.25,0 1.93,1.23 1.93,1.55 0,0.14 -0.15,0.14 -0.24,0.14 -0.12,0 -0.19,0 -0.23,-0.13 -0.29,-0.9 -1.01,-1.2 -1.42,-1.2 -0.37,0 -0.55,0.18 -0.55,0.5 0,0.2 0.13,0.74 0.22,1.1 0.06,0.26 0.29,1.2 0.35,1.36 0.14,0.6 0.49,0.91 0.84,0.91 0.05,0 0.28,0 0.48,-0.15 z"
           id="path3687" /><path
           style="fill:#000000;stroke-width:0"
           d="m 306.07,647.29 h 2.79 c 0.13,0 0.32,0 0.32,0.2 0,0.2 -0.19,0.2 -0.32,0.2 h -2.79 v 2.79 c 0,0.14 0,0.33 -0.19,0.33 -0.2,0 -0.2,-0.19 -0.2,-0.33 v -2.79 h -2.79 c -0.14,0 -0.33,0 -0.33,-0.2 0,-0.2 0.19,-0.2 0.33,-0.2 h 2.79 v -2.79 c 0,-0.14 0,-0.33 0.2,-0.33 0.19,0 0.19,0.19 0.19,0.33 z"
           id="path3689" /><path
           style="fill:#000000;stroke-width:0"
           d="m 314.38,651.8 0,0.01 0,0 0,0 0,0 0,0 0,0 0,0.01 0,0 0,0.01 0,0 0,0 0,0.01 0,0 -0.01,0.01 0,0 0,0.01 0,0 -0.01,0.01 0,0 0,0.01 -0.01,0 0,0 0,0.01 -0.01,0 0,0 0,0 -0.01,0 0,0.01 0,0 -0.01,0 0,0 0,0 -0.01,0 0,0.01 -0.01,0 0,0 -0.01,0 0,0 -0.01,0 0,0 -0.01,0 0,0 -0.01,0 0,0 -0.01,0 c -0.23,0 -0.95,-0.07 -1.21,-0.1 -0.08,-0.01 -0.19,-0.02 -0.19,-0.2 0,-0.11 0.09,-0.11 0.24,-0.11 0.47,0 0.5,-0.07 0.5,-0.17 0,-0.07 -0.09,-0.41 -0.14,-0.62 l -0.82,-3.25 c -0.12,-0.5 -0.16,-0.66 -0.16,-1.01 0,-0.94 0.53,-1.56 1.26,-1.56 v 0.22 c -0.34,0 -0.66,0.27 -0.66,1.01 0,0.18 0,0.38 0.16,1 l 0.22,0.92 c 0.05,0.22 0.05,0.24 0.14,0.35 0.49,0.64 0.94,0.79 1.2,0.79 0.36,0 0.63,-0.29 0.63,-0.93 0,-0.59 -0.33,-1.73 -0.51,-2.11 -0.33,-0.67 -0.79,-1.03 -1.18,-1.03 v -0.22 c 1.18,0 2.4,1.49 2.4,2.92 0,0.91 -0.52,1.59 -1.32,1.59 -0.46,0 -0.87,-0.29 -1.17,-0.6 z"
           id="path3691" /><path
           style="fill:#000000;stroke-width:0"
           d="m 325.84,648.26 0.03,0 0.03,0 0.03,0 0.01,0 0.02,0 0.01,0 0.02,0 0.01,0.01 0.02,0 0.01,0 0.01,0 0.02,0.01 0.01,0 0.01,0.01 0.01,0 0.01,0.01 0.02,0.01 0.01,0 0,0.01 0.01,0.01 0.01,0.01 0.01,0.01 0,0 0,0.01 0.01,0 0,0.01 0,0.01 0,0 0.01,0.01 0,0.01 0,0.01 0,0 0,0.01 0,0.01 0,0.01 0,0.01 0,0.01 c 0,0.2 -0.19,0.2 -0.32,0.2 h -5.97 c -0.14,0 -0.33,0 -0.33,-0.2 0,-0.2 0.19,-0.2 0.34,-0.2 z"
           id="path3693" /><path
           style="fill:#000000;stroke-width:0"
           d="m 325.86,646.32 0.01,0 0.01,0 0.03,0 0.03,0.01 0.01,0 0.01,0 0.02,0 0.01,0 0.02,0 0.01,0 0.01,0.01 0.02,0 0.01,0 0.01,0.01 0.01,0 0.01,0.01 0.02,0.01 0.01,0 0.01,0.01 0.01,0.01 0,0.01 0.01,0 0,0.01 0.01,0 0,0.01 0,0 0.01,0.01 0,0.01 0,0 0,0.01 0.01,0.01 0,0 0,0.01 0,0.01 0,0.01 0,0.01 0,0 0,0.01 0,0.01 c 0,0.2 -0.19,0.2 -0.34,0.2 h -5.94 c -0.15,0 -0.34,0 -0.34,-0.2 0,-0.2 0.19,-0.2 0.33,-0.2 z"
           id="path3695" /><path
           style="fill:#000000;stroke-width:0"
           d="m 333.58,648.19 0,0.15 0,0.15 0,0.15 -0.01,0.14 -0.01,0.15 -0.01,0.15 -0.02,0.15 -0.02,0.15 -0.02,0.14 -0.03,0.15 -0.03,0.14 -0.04,0.15 -0.04,0.14 -0.05,0.14 -0.05,0.14 -0.07,0.14 c -0.45,0.96 -1.27,1.12 -1.69,1.12 -0.6,0 -1.33,-0.26 -1.73,-1.19 -0.32,-0.69 -0.37,-1.47 -0.37,-2.26 0,-0.75 0.04,-1.65 0.45,-2.41 0.43,-0.8 1.15,-1 1.64,-1 V 645 c -0.39,0 -0.98,0.25 -1.16,1.21 -0.11,0.59 -0.11,1.51 -0.11,2.1 0,0.64 0,1.29 0.09,1.83 0.18,1.19 0.93,1.27 1.18,1.27 0.33,0 0.99,-0.17 1.18,-1.16 0.1,-0.56 0.1,-1.32 0.1,-1.94 0,-0.75 0,-1.43 -0.12,-2.06 -0.14,-0.95 -0.71,-1.25 -1.16,-1.25 h 0 v -0.22 c 0.54,0 1.3,0.21 1.73,1.16 0.32,0.69 0.37,1.46 0.37,2.25 z"
           id="path3697" /></g>    </g>
    <g
       transform="matrix(2.8957342,-4.0761162,4.0761162,2.8957342,-183.33779,1125.4632)"
       id="g3797">
      <g
         style="font-style:normal;font-variant:normal;font-weight:normal;font-stretch:normal;letter-spacing:normal;word-spacing:normal;text-anchor:start;fill:none;stroke:#000000;stroke-linecap:butt;stroke-linejoin:miter;stroke-miterlimit:10.43299961;stroke-opacity:1;stroke-dasharray:none;stroke-dashoffset:0"
         word-spacing="normal"
         letter-spacing="normal"
         font-size-adjust="none"
         font-stretch="normal"
         font-weight="normal"
         font-variant="normal"
         font-style="normal"
         stroke-miterlimit="10.433"
         xml:space="preserve"
         transform="matrix(0.42857143,0,0,-0.42857143,-75,300)"
         id="g3799"><path
           style="fill:#000000;stroke-width:0"
           id="path3801"
           d="m 278.54,648.53 0,0.02 0.01,0.01 0,0.02 0,0.02 0.01,0.03 0.01,0.03 0.01,0.04 0.01,0.03 0.01,0.04 0,0.03 0.01,0.01 0,0.02 0.01,0.02 0,0.01 0,0.01 0.01,0.02 0,0.01 0,0.01 0,0.02 0,0.01 0.01,0.01 0,0.01 0,0.01 0,0 0,0.01 0,0 c 0,0.22 -0.16,0.44 -0.47,0.44 -0.16,0 -0.53,-0.08 -0.66,-0.52 -0.17,-0.63 -0.35,-1.36 -0.51,-2.04 -0.07,-0.34 -0.07,-0.47 -0.07,-0.61 0,-0.27 0.03,-0.25 0.03,-0.31 0,-0.05 -0.27,-0.66 -0.85,-0.66 -0.81,0 -0.81,0.61 -0.81,0.82 0,0.42 0.12,0.88 0.52,1.9 0.08,0.2 0.18,0.44 0.18,0.6 0,0.58 -0.58,0.9 -1.13,0.9 -1.05,0 -1.55,-1.35 -1.55,-1.55 0,-0.14 0.15,-0.14 0.24,-0.14 0.12,0 0.19,0 0.23,0.13 0.33,1.1 0.86,1.21 1.02,1.21 0.06,0 0.17,0 0.17,-0.22 0,-0.22 -0.1,-0.47 -0.22,-0.78 -0.38,-0.97 -0.53,-1.45 -0.53,-1.88 0,-1.09 0.95,-1.35 1.81,-1.35 0.2,0 0.66,0 1.12,0.56 0.26,-0.34 0.71,-0.56 1.49,-0.56 0.6,0 1.12,0.29 1.58,1.17 0.4,0.74 0.71,2 0.71,2.51 0,0.91 -0.67,0.91 -0.68,0.91 -0.38,0 -0.76,-0.4 -0.76,-0.75 0,-0.28 0.21,-0.41 0.3,-0.45 0.39,-0.23 0.5,-0.41 0.5,-0.63 0,-0.15 -0.25,-1.09 -0.55,-1.65 -0.29,-0.49 -0.6,-0.75 -1.03,-0.75 -0.72,0 -0.73,0.59 -0.73,0.79 0,0.25 0.04,0.4 0.16,0.9 0.07,0.29 0.19,0.78 0.25,1.01 z" /><path
           style="fill:#000000;stroke-width:0"
           id="path3803"
           d="m 285.91,647.49 0,0.03 0,0.03 0,0.02 -0.01,0.03 0,0.02 -0.01,0.03 -0.01,0.02 -0.01,0.03 -0.01,0.02 -0.01,0.02 -0.01,0.02 -0.02,0.03 -0.01,0.02 -0.02,0.02 -0.02,0.02 -0.01,0.01 -0.02,0.02 -0.02,0.02 -0.02,0.01 -0.02,0.02 -0.02,0.01 -0.02,0.02 -0.03,0.01 -0.02,0.01 -0.02,0.01 -0.03,0.01 -0.02,0 -0.03,0.01 -0.02,0 -0.03,0.01 -0.03,0 -0.02,0 c -0.29,0 -0.53,-0.24 -0.53,-0.53 0,-0.29 0.24,-0.53 0.53,-0.53 0.28,0 0.52,0.24 0.52,0.53 z" /><path
           style="fill:#000000;stroke-width:0"
           id="path3805"
           d="m 294.34,649 -0.03,-0.01 -0.04,-0.02 -0.03,-0.01 -0.03,-0.01 -0.03,-0.02 -0.02,-0.01 -0.03,-0.02 -0.03,-0.02 -0.02,-0.02 -0.02,-0.02 -0.03,-0.02 -0.02,-0.02 -0.02,-0.02 -0.02,-0.02 -0.02,-0.03 -0.01,-0.02 -0.02,-0.03 -0.02,-0.02 -0.01,-0.03 -0.01,-0.02 -0.02,-0.03 -0.01,-0.02 -0.01,-0.03 -0.01,-0.02 0,-0.03 -0.01,-0.02 -0.01,-0.03 0,-0.02 0,-0.03 -0.01,-0.02 0,-0.03 0,-0.02 c 0,-0.22 0.17,-0.46 0.5,-0.46 0.35,0 0.72,0.29 0.72,0.78 0,0.53 -0.53,0.87 -1.14,0.87 -0.57,0 -0.93,-0.43 -1.06,-0.6 -0.25,0.41 -0.81,0.6 -1.38,0.6 -1.25,0 -1.93,-1.22 -1.93,-1.55 0,-0.14 0.15,-0.14 0.24,-0.14 0.12,0 0.19,0 0.23,0.13 0.29,0.9 1,1.21 1.41,1.21 0.38,0 0.56,-0.18 0.56,-0.5 0,-0.19 -0.14,-0.74 -0.23,-1.1 l -0.34,-1.36 c -0.15,-0.61 -0.51,-0.91 -0.84,-0.91 -0.06,0 -0.29,0 -0.49,0.15 0.36,0.1 0.54,0.44 0.54,0.69 0,0.22 -0.16,0.45 -0.49,0.45 -0.35,0 -0.72,-0.29 -0.72,-0.77 0,-0.53 0.53,-0.88 1.14,-0.88 0.56,0 0.93,0.43 1.06,0.61 0.25,-0.42 0.81,-0.61 1.38,-0.61 1.25,0 1.93,1.23 1.93,1.55 0,0.14 -0.15,0.14 -0.24,0.14 -0.12,0 -0.19,0 -0.23,-0.13 -0.29,-0.9 -1.01,-1.2 -1.42,-1.2 -0.37,0 -0.55,0.18 -0.55,0.5 0,0.2 0.13,0.74 0.22,1.1 0.06,0.26 0.29,1.2 0.35,1.36 0.14,0.6 0.49,0.91 0.84,0.91 0.05,0 0.28,0 0.48,-0.15 z" /><path
           style="fill:#000000;stroke-width:0"
           id="path3807"
           d="m 302.07,647.29 h 2.79 c 0.13,0 0.32,0 0.32,0.2 0,0.2 -0.19,0.2 -0.32,0.2 h -2.79 v 2.79 c 0,0.14 0,0.33 -0.19,0.33 -0.2,0 -0.2,-0.19 -0.2,-0.33 v -2.79 h -2.79 c -0.14,0 -0.33,0 -0.33,-0.2 0,-0.2 0.19,-0.2 0.33,-0.2 h 2.79 v -2.79 c 0,-0.14 0,-0.33 0.2,-0.33 0.19,0 0.19,0.19 0.19,0.33 z" /><path
           style="fill:#000000;stroke-width:0"
           id="path3809"
           d="m 310.38,651.8 0,0.01 0,0 0,0 0,0 0,0 0,0 0,0.01 0,0 0,0.01 0,0 0,0 0,0.01 0,0 -0.01,0.01 0,0 0,0.01 0,0 -0.01,0.01 0,0 0,0.01 -0.01,0 0,0 0,0.01 -0.01,0 0,0 0,0 -0.01,0 0,0.01 0,0 -0.01,0 0,0 0,0 -0.01,0 0,0.01 -0.01,0 0,0 -0.01,0 0,0 -0.01,0 0,0 -0.01,0 0,0 -0.01,0 0,0 -0.01,0 c -0.23,0 -0.95,-0.07 -1.21,-0.1 -0.08,-0.01 -0.19,-0.02 -0.19,-0.2 0,-0.11 0.09,-0.11 0.24,-0.11 0.47,0 0.5,-0.07 0.5,-0.17 0,-0.07 -0.09,-0.41 -0.14,-0.62 l -0.82,-3.25 c -0.12,-0.5 -0.16,-0.66 -0.16,-1.01 0,-0.94 0.53,-1.56 1.26,-1.56 v 0.22 c -0.34,0 -0.66,0.27 -0.66,1.01 0,0.18 0,0.38 0.16,1 l 0.22,0.92 c 0.05,0.22 0.05,0.24 0.14,0.35 0.49,0.64 0.94,0.79 1.2,0.79 0.36,0 0.63,-0.29 0.63,-0.93 0,-0.59 -0.33,-1.73 -0.51,-2.11 -0.33,-0.67 -0.79,-1.03 -1.18,-1.03 v -0.22 c 1.18,0 2.4,1.49 2.4,2.92 0,0.91 -0.52,1.59 -1.32,1.59 -0.46,0 -0.87,-0.29 -1.17,-0.6 z" /><path
           style="fill:#000000;stroke-width:0"
           id="path3811"
           d="m 321.84,648.26 0.03,0 0.03,0 0.03,0 0.01,0 0.02,0 0.01,0 0.02,0 0.01,0.01 0.02,0 0.01,0 0.01,0 0.02,0.01 0.01,0 0.01,0.01 0.01,0 0.01,0.01 0.02,0.01 0.01,0 0,0.01 0.01,0.01 0.01,0.01 0.01,0.01 0,0 0,0.01 0.01,0 0,0.01 0,0.01 0,0 0.01,0.01 0,0.01 0,0.01 0,0 0,0.01 0,0.01 0,0.01 0,0.01 0,0.01 c 0,0.2 -0.19,0.2 -0.32,0.2 h -5.97 c -0.14,0 -0.33,0 -0.33,-0.2 0,-0.2 0.19,-0.2 0.34,-0.2 z" /><path
           style="fill:#000000;stroke-width:0"
           id="path3813"
           d="m 321.86,646.32 0.01,0 0.01,0 0.03,0 0.03,0.01 0.01,0 0.01,0 0.02,0 0.01,0 0.02,0 0.01,0 0.01,0.01 0.02,0 0.01,0 0.01,0.01 0.01,0 0.01,0.01 0.02,0.01 0.01,0 0.01,0.01 0.01,0.01 0,0.01 0.01,0 0,0.01 0.01,0 0,0.01 0,0 0.01,0.01 0,0.01 0,0 0,0.01 0.01,0.01 0,0 0,0.01 0,0.01 0,0.01 0,0.01 0,0 0,0.01 0,0.01 c 0,0.2 -0.19,0.2 -0.34,0.2 h -5.94 c -0.15,0 -0.34,0 -0.34,-0.2 0,-0.2 0.19,-0.2 0.33,-0.2 z" /><path
           style="fill:#000000;stroke-width:0"
           id="path3815"
           d="m 329.07,647.29 h 2.79 c 0.13,0 0.32,0 0.32,0.2 0,0.2 -0.19,0.2 -0.32,0.2 h -2.79 v 2.79 c 0,0.14 0,0.33 -0.19,0.33 -0.2,0 -0.2,-0.19 -0.2,-0.33 v -2.79 h -2.79 c -0.14,0 -0.33,0 -0.33,-0.2 0,-0.2 0.19,-0.2 0.33,-0.2 h 2.79 v -2.79 c 0,-0.14 0,-0.33 0.2,-0.33 0.19,0 0.19,0.19 0.19,0.33 z" /><path
           style="fill:#000000;stroke-width:0"
           id="path3817"
           d="m 335.93,651.38 0,0.01 0,0.01 0,0.01 0,0.01 0,0.01 0,0.01 0,0.01 0,0 0,0.01 0,0.01 0,0.01 0,0.01 0,0.01 0,0 0,0.01 0,0.01 -0.01,0.01 0,0.01 0,0.01 0,0.01 -0.01,0.01 0,0.01 0,0.01 -0.01,0.01 0,0 -0.01,0.01 -0.01,0 -0.01,0.01 -0.01,0 0,0 -0.01,0 0,0.01 -0.01,0 0,0 -0.01,0 0,0 -0.01,0 -0.01,0 0,0 -0.01,0 -0.01,0 -0.01,0.01 0,0 -0.01,0 -0.01,0 -0.01,0 -0.01,0 -0.01,0 -0.01,0 -0.01,0 -0.01,0 C 335.08,651 334.21,651 333.89,651 v -0.31 c 0.2,0 0.78,0 1.3,0.26 v -5.17 c 0,-0.35 -0.03,-0.47 -0.92,-0.47 h -0.32 V 645 h 3.23 v 0.31 h -0.32 c -0.9,0 -0.93,0.11 -0.93,0.47 z" /></g>    </g>
    <g
       transform="matrix(2.8847681,-4.0838845,4.0838845,2.8847681,-52.756294,1137.7525)"
       id="g3939">
      <g
         style="font-style:normal;font-variant:normal;font-weight:normal;font-stretch:normal;letter-spacing:normal;word-spacing:normal;text-anchor:start;fill:none;stroke:#000000;stroke-linecap:butt;stroke-linejoin:miter;stroke-miterlimit:10.43299961;stroke-opacity:1;stroke-dasharray:none;stroke-dashoffset:0"
         id="g3941"
         transform="matrix(0.42857143,0,0,-0.42857143,-75,300)"
         xml:space="preserve"
         stroke-miterlimit="10.433"
         font-style="normal"
         font-variant="normal"
         font-weight="normal"
         font-stretch="normal"
         font-size-adjust="none"
         letter-spacing="normal"
         word-spacing="normal"><path
           style="fill:#000000;stroke-width:0"
           d="m 278.54,648.53 0,0.02 0.01,0.01 0,0.02 0,0.02 0.01,0.03 0.01,0.03 0.01,0.04 0.01,0.03 0.01,0.04 0,0.03 0.01,0.01 0,0.02 0.01,0.02 0,0.01 0,0.01 0.01,0.02 0,0.01 0,0.01 0,0.02 0,0.01 0.01,0.01 0,0.01 0,0.01 0,0 0,0.01 0,0 c 0,0.22 -0.16,0.44 -0.47,0.44 -0.16,0 -0.53,-0.08 -0.66,-0.52 -0.17,-0.63 -0.35,-1.36 -0.51,-2.04 -0.07,-0.34 -0.07,-0.47 -0.07,-0.61 0,-0.27 0.03,-0.25 0.03,-0.31 0,-0.05 -0.27,-0.66 -0.85,-0.66 -0.81,0 -0.81,0.61 -0.81,0.82 0,0.42 0.12,0.88 0.52,1.9 0.08,0.2 0.18,0.44 0.18,0.6 0,0.58 -0.58,0.9 -1.13,0.9 -1.05,0 -1.55,-1.35 -1.55,-1.55 0,-0.14 0.15,-0.14 0.24,-0.14 0.12,0 0.19,0 0.23,0.13 0.33,1.1 0.86,1.21 1.02,1.21 0.06,0 0.17,0 0.17,-0.22 0,-0.22 -0.1,-0.47 -0.22,-0.78 -0.38,-0.97 -0.53,-1.45 -0.53,-1.88 0,-1.09 0.95,-1.35 1.81,-1.35 0.2,0 0.66,0 1.12,0.56 0.26,-0.34 0.71,-0.56 1.49,-0.56 0.6,0 1.12,0.29 1.58,1.17 0.4,0.74 0.71,2 0.71,2.51 0,0.91 -0.67,0.91 -0.68,0.91 -0.38,0 -0.76,-0.4 -0.76,-0.75 0,-0.28 0.21,-0.41 0.3,-0.45 0.39,-0.23 0.5,-0.41 0.5,-0.63 0,-0.15 -0.25,-1.09 -0.55,-1.65 -0.29,-0.49 -0.6,-0.75 -1.03,-0.75 -0.72,0 -0.73,0.59 -0.73,0.79 0,0.25 0.04,0.4 0.16,0.9 0.07,0.29 0.19,0.78 0.25,1.01 z"
           id="path3943" /><path
           style="fill:#000000;stroke-width:0"
           d="m 285.91,647.49 0,0.03 0,0.03 0,0.02 -0.01,0.03 0,0.02 -0.01,0.03 -0.01,0.02 -0.01,0.03 -0.01,0.02 -0.01,0.02 -0.01,0.02 -0.02,0.03 -0.01,0.02 -0.02,0.02 -0.02,0.02 -0.01,0.01 -0.02,0.02 -0.02,0.02 -0.02,0.01 -0.02,0.02 -0.02,0.01 -0.02,0.02 -0.03,0.01 -0.02,0.01 -0.02,0.01 -0.03,0.01 -0.02,0 -0.03,0.01 -0.02,0 -0.03,0.01 -0.03,0 -0.02,0 c -0.29,0 -0.53,-0.24 -0.53,-0.53 0,-0.29 0.24,-0.53 0.53,-0.53 0.28,0 0.52,0.24 0.52,0.53 z"
           id="path3945" /><path
           style="fill:#000000;stroke-width:0"
           d="m 294.34,649 -0.03,-0.01 -0.04,-0.02 -0.03,-0.01 -0.03,-0.01 -0.03,-0.02 -0.02,-0.01 -0.03,-0.02 -0.03,-0.02 -0.02,-0.02 -0.02,-0.02 -0.03,-0.02 -0.02,-0.02 -0.02,-0.02 -0.02,-0.02 -0.02,-0.03 -0.01,-0.02 -0.02,-0.03 -0.02,-0.02 -0.01,-0.03 -0.01,-0.02 -0.02,-0.03 -0.01,-0.02 -0.01,-0.03 -0.01,-0.02 0,-0.03 -0.01,-0.02 -0.01,-0.03 0,-0.02 0,-0.03 -0.01,-0.02 0,-0.03 0,-0.02 c 0,-0.22 0.17,-0.46 0.5,-0.46 0.35,0 0.72,0.29 0.72,0.78 0,0.53 -0.53,0.87 -1.14,0.87 -0.57,0 -0.93,-0.43 -1.06,-0.6 -0.25,0.41 -0.81,0.6 -1.38,0.6 -1.25,0 -1.93,-1.22 -1.93,-1.55 0,-0.14 0.15,-0.14 0.24,-0.14 0.12,0 0.19,0 0.23,0.13 0.29,0.9 1,1.21 1.41,1.21 0.38,0 0.56,-0.18 0.56,-0.5 0,-0.19 -0.14,-0.74 -0.23,-1.1 l -0.34,-1.36 c -0.15,-0.61 -0.51,-0.91 -0.84,-0.91 -0.06,0 -0.29,0 -0.49,0.15 0.36,0.1 0.54,0.44 0.54,0.69 0,0.22 -0.16,0.45 -0.49,0.45 -0.35,0 -0.72,-0.29 -0.72,-0.77 0,-0.53 0.53,-0.88 1.14,-0.88 0.56,0 0.93,0.43 1.06,0.61 0.25,-0.42 0.81,-0.61 1.38,-0.61 1.25,0 1.93,1.23 1.93,1.55 0,0.14 -0.15,0.14 -0.24,0.14 -0.12,0 -0.19,0 -0.23,-0.13 -0.29,-0.9 -1.01,-1.2 -1.42,-1.2 -0.37,0 -0.55,0.18 -0.55,0.5 0,0.2 0.13,0.74 0.22,1.1 0.06,0.26 0.29,1.2 0.35,1.36 0.14,0.6 0.49,0.91 0.84,0.91 0.05,0 0.28,0 0.48,-0.15 z"
           id="path3947" /><path
           style="fill:#000000;stroke-width:0"
           d="m 302.07,647.29 h 2.79 c 0.13,0 0.32,0 0.32,0.2 0,0.2 -0.19,0.2 -0.32,0.2 h -2.79 v 2.79 c 0,0.14 0,0.33 -0.19,0.33 -0.2,0 -0.2,-0.19 -0.2,-0.33 v -2.79 h -2.79 c -0.14,0 -0.33,0 -0.33,-0.2 0,-0.2 0.19,-0.2 0.33,-0.2 h 2.79 v -2.79 c 0,-0.14 0,-0.33 0.2,-0.33 0.19,0 0.19,0.19 0.19,0.33 z"
           id="path3949" /><path
           style="fill:#000000;stroke-width:0"
           d="m 310.38,651.8 0,0.01 0,0 0,0 0,0 0,0 0,0 0,0.01 0,0 0,0.01 0,0 0,0 0,0.01 0,0 -0.01,0.01 0,0 0,0.01 0,0 -0.01,0.01 0,0 0,0.01 -0.01,0 0,0 0,0.01 -0.01,0 0,0 0,0 -0.01,0 0,0.01 0,0 -0.01,0 0,0 0,0 -0.01,0 0,0.01 -0.01,0 0,0 -0.01,0 0,0 -0.01,0 0,0 -0.01,0 0,0 -0.01,0 0,0 -0.01,0 c -0.23,0 -0.95,-0.07 -1.21,-0.1 -0.08,-0.01 -0.19,-0.02 -0.19,-0.2 0,-0.11 0.09,-0.11 0.24,-0.11 0.47,0 0.5,-0.07 0.5,-0.17 0,-0.07 -0.09,-0.41 -0.14,-0.62 l -0.82,-3.25 c -0.12,-0.5 -0.16,-0.66 -0.16,-1.01 0,-0.94 0.53,-1.56 1.26,-1.56 v 0.22 c -0.34,0 -0.66,0.27 -0.66,1.01 0,0.18 0,0.38 0.16,1 l 0.22,0.92 c 0.05,0.22 0.05,0.24 0.14,0.35 0.49,0.64 0.94,0.79 1.2,0.79 0.36,0 0.63,-0.29 0.63,-0.93 0,-0.59 -0.33,-1.73 -0.51,-2.11 -0.33,-0.67 -0.79,-1.03 -1.18,-1.03 v -0.22 c 1.18,0 2.4,1.49 2.4,2.92 0,0.91 -0.52,1.59 -1.32,1.59 -0.46,0 -0.87,-0.29 -1.17,-0.6 z"
           id="path3951" /><path
           style="fill:#000000;stroke-width:0"
           d="m 321.84,648.26 0.03,0 0.03,0 0.03,0 0.01,0 0.02,0 0.01,0 0.02,0 0.01,0.01 0.02,0 0.01,0 0.01,0 0.02,0.01 0.01,0 0.01,0.01 0.01,0 0.01,0.01 0.02,0.01 0.01,0 0,0.01 0.01,0.01 0.01,0.01 0.01,0.01 0,0 0,0.01 0.01,0 0,0.01 0,0.01 0,0 0.01,0.01 0,0.01 0,0.01 0,0 0,0.01 0,0.01 0,0.01 0,0.01 0,0.01 c 0,0.2 -0.19,0.2 -0.32,0.2 h -5.97 c -0.14,0 -0.33,0 -0.33,-0.2 0,-0.2 0.19,-0.2 0.34,-0.2 z"
           id="path3953" /><path
           style="fill:#000000;stroke-width:0"
           d="m 321.86,646.32 0.01,0 0.01,0 0.03,0 0.03,0.01 0.01,0 0.01,0 0.02,0 0.01,0 0.02,0 0.01,0 0.01,0.01 0.02,0 0.01,0 0.01,0.01 0.01,0 0.01,0.01 0.02,0.01 0.01,0 0.01,0.01 0.01,0.01 0,0.01 0.01,0 0,0.01 0.01,0 0,0.01 0,0 0.01,0.01 0,0.01 0,0 0,0.01 0.01,0.01 0,0 0,0.01 0,0.01 0,0.01 0,0.01 0,0 0,0.01 0,0.01 c 0,0.2 -0.19,0.2 -0.34,0.2 h -5.94 c -0.15,0 -0.34,0 -0.34,-0.2 0,-0.2 0.19,-0.2 0.33,-0.2 z"
           id="path3955" /><path
           style="fill:#000000;stroke-width:0"
           d="m 331.57,647.29 0.03,0 0.03,0 0.03,0 0.02,0.01 0.01,0 0.02,0 0.01,0 0.02,0 0.01,0 0.01,0.01 0.02,0 0.01,0 0.01,0.01 0.02,0 0.01,0.01 0.01,0 0.01,0.01 0.01,0.01 0.01,0.01 0.01,0.01 0,0.01 0.01,0 0,0.01 0,0 0.01,0.01 0,0.01 0,0 0,0.01 0.01,0.01 0,0 0,0.01 0,0.01 0,0.01 0,0.01 0,0 0,0.01 0,0.01 c 0,0.2 -0.18,0.2 -0.34,0.2 h -5.39 c -0.17,0 -0.35,0 -0.35,-0.2 0,-0.2 0.18,-0.2 0.35,-0.2 z"
           id="path3957" /><path
           style="fill:#000000;stroke-width:0"
           d="m 335.93,651.38 0,0.01 0,0.01 0,0.01 0,0.01 0,0.01 0,0.01 0,0.01 0,0 0,0.01 0,0.01 0,0.01 0,0.01 0,0.01 0,0 0,0.01 0,0.01 -0.01,0.01 0,0.01 0,0.01 0,0.01 -0.01,0.01 0,0.01 0,0.01 -0.01,0.01 0,0 -0.01,0.01 -0.01,0 -0.01,0.01 -0.01,0 0,0 -0.01,0 0,0.01 -0.01,0 0,0 -0.01,0 0,0 -0.01,0 -0.01,0 0,0 -0.01,0 -0.01,0 -0.01,0.01 0,0 -0.01,0 -0.01,0 -0.01,0 -0.01,0 -0.01,0 -0.01,0 -0.01,0 -0.01,0 C 335.08,651 334.21,651 333.89,651 v -0.31 c 0.2,0 0.78,0 1.3,0.26 v -5.17 c 0,-0.35 -0.03,-0.47 -0.92,-0.47 h -0.32 V 645 h 3.23 v 0.31 h -0.32 c -0.9,0 -0.93,0.11 -0.93,0.47 z"
           id="path3959" /></g>    </g>
    <g
       id="g4103"
       transform="matrix(5,0,0,5,-22.595328,688.96166)">
      <g
         word-spacing="normal"
         letter-spacing="normal"
         font-size-adjust="none"
         font-stretch="normal"
         font-weight="normal"
         font-variant="normal"
         font-style="normal"
         stroke-miterlimit="10.433"
         xml:space="preserve"
         transform="matrix(0.42857143,0,0,-0.42857143,-75,300)"
         id="g4105"
         style="font-style:normal;font-variant:normal;font-weight:normal;font-stretch:normal;letter-spacing:normal;word-spacing:normal;text-anchor:start;fill:none;stroke:#000000;stroke-linecap:butt;stroke-linejoin:miter;stroke-miterlimit:10.43299961;stroke-opacity:1;stroke-dasharray:none;stroke-dashoffset:0"><path
           id="path4107"
           d="m 304.27,650.77 1.05,1.02 c 1.56,1.38 2.15,1.92 2.15,2.91 0,1.14 -0.89,1.94 -2.11,1.94 -1.13,0 -1.86,-0.92 -1.86,-1.81 0,-0.56 0.5,-0.56 0.53,-0.56 0.17,0 0.51,0.13 0.51,0.53 0,0.26 -0.18,0.52 -0.52,0.52 -0.08,0 -0.1,0 -0.13,-0.01 0.23,0.65 0.76,1.02 1.34,1.02 0.91,0 1.34,-0.81 1.34,-1.63 0,-0.79 -0.5,-1.58 -1.05,-2.2 l -1.91,-2.13 c -0.11,-0.11 -0.11,-0.13 -0.11,-0.37 h 3.7 l 0.27,1.73 h -0.25 c -0.04,-0.3 -0.11,-0.73 -0.22,-0.88 -0.07,-0.08 -0.72,-0.08 -0.94,-0.08 z"
           style="fill:#000000;stroke-width:0" /><polyline
           id="polyline4109"
           points="296,645 315.68,645 315.68,645.48 296,645.48 "
           style="fill:#000000;fill-rule:nonzero;stroke-width:0" /><path
           id="path4111"
           d="m 297.59,643.11 0,0.04 0,0.03 -0.01,0.03 0,0.02 0,0.02 0,0.01 0,0.02 0,0.01 0,0.02 -0.01,0.01 0,0.01 0,0.02 -0.01,0.01 0,0.01 -0.01,0.01 -0.01,0.02 0,0.01 -0.01,0.01 -0.01,0.01 -0.01,0 -0.01,0.01 -0.01,0.01 0,0 -0.01,0.01 -0.01,0 0,0 -0.01,0 -0.01,0 0,0.01 -0.01,0 -0.01,0 -0.01,0 -0.01,0 0,0 -0.01,0 -0.01,0 c -0.2,0 -0.2,-0.18 -0.2,-0.36 v -9.24 c 0,-0.18 0,-0.36 0.2,-0.36 0.2,0 0.2,0.18 0.2,0.36 z"
           style="fill:#000000;stroke-width:0" /><path
           id="path4113"
           d="m 300.59,643.11 0,0.04 0,0.03 -0.01,0.03 0,0.02 0,0.02 0,0.01 0,0.02 0,0.01 0,0.02 -0.01,0.01 0,0.01 0,0.02 -0.01,0.01 0,0.01 -0.01,0.01 -0.01,0.02 0,0.01 -0.01,0.01 -0.01,0.01 -0.01,0 -0.01,0.01 -0.01,0.01 0,0 -0.01,0.01 -0.01,0 0,0 -0.01,0 -0.01,0 0,0.01 -0.01,0 -0.01,0 -0.01,0 -0.01,0 0,0 -0.01,0 -0.01,0 c -0.2,0 -0.2,-0.18 -0.2,-0.36 v -9.24 c 0,-0.18 0,-0.36 0.2,-0.36 0.2,0 0.2,0.18 0.2,0.36 z"
           style="fill:#000000;stroke-width:0" /><path
           id="path4115"
           d="m 306.54,639.53 0,0.02 0.01,0.01 0,0.02 0,0.02 0.01,0.03 0.01,0.03 0.01,0.04 0.01,0.03 0.01,0.04 0,0.03 0.01,0.01 0,0.02 0.01,0.02 0,0.01 0,0.01 0.01,0.02 0,0.01 0,0.01 0,0.02 0,0.01 0.01,0.01 0,0.01 0,0.01 0,0 0,0.01 0,0 c 0,0.22 -0.16,0.44 -0.47,0.44 -0.16,0 -0.53,-0.08 -0.66,-0.52 -0.17,-0.63 -0.35,-1.36 -0.51,-2.04 -0.07,-0.34 -0.07,-0.47 -0.07,-0.61 0,-0.27 0.03,-0.25 0.03,-0.31 0,-0.05 -0.27,-0.66 -0.85,-0.66 -0.81,0 -0.81,0.61 -0.81,0.82 0,0.42 0.12,0.88 0.52,1.9 0.08,0.2 0.18,0.44 0.18,0.6 0,0.58 -0.58,0.9 -1.13,0.9 -1.05,0 -1.55,-1.35 -1.55,-1.55 0,-0.14 0.15,-0.14 0.24,-0.14 0.12,0 0.19,0 0.23,0.13 0.33,1.1 0.86,1.21 1.02,1.21 0.06,0 0.17,0 0.17,-0.22 0,-0.22 -0.1,-0.47 -0.22,-0.78 -0.38,-0.97 -0.53,-1.45 -0.53,-1.88 0,-1.09 0.95,-1.35 1.81,-1.35 0.2,0 0.66,0 1.12,0.56 0.26,-0.34 0.71,-0.56 1.49,-0.56 0.6,0 1.12,0.29 1.58,1.17 0.4,0.74 0.71,2 0.71,2.51 0,0.91 -0.67,0.91 -0.68,0.91 -0.38,0 -0.76,-0.4 -0.76,-0.75 0,-0.28 0.21,-0.41 0.3,-0.45 0.39,-0.23 0.5,-0.41 0.5,-0.63 0,-0.15 -0.25,-1.09 -0.55,-1.65 -0.29,-0.49 -0.6,-0.75 -1.03,-0.75 -0.72,0 -0.73,0.59 -0.73,0.79 0,0.25 0.04,0.4 0.16,0.9 0.07,0.29 0.19,0.78 0.25,1.01 z"
           style="fill:#000000;stroke-width:0" /><path
           id="path4117"
           d="m 311.59,643.11 0,0.04 0,0.03 -0.01,0.03 0,0.02 0,0.02 0,0.01 0,0.02 0,0.01 0,0.02 -0.01,0.01 0,0.01 0,0.02 -0.01,0.01 0,0.01 -0.01,0.01 -0.01,0.02 0,0.01 -0.01,0.01 -0.01,0.01 -0.01,0 -0.01,0.01 -0.01,0.01 0,0 -0.01,0.01 -0.01,0 0,0 -0.01,0 -0.01,0 0,0.01 -0.01,0 -0.01,0 -0.01,0 -0.01,0 0,0 -0.01,0 -0.01,0 c -0.2,0 -0.2,-0.18 -0.2,-0.36 v -9.24 c 0,-0.18 0,-0.36 0.2,-0.36 0.2,0 0.2,0.18 0.2,0.36 z"
           style="fill:#000000;stroke-width:0" /><path
           id="path4119"
           d="m 314.59,643.11 0,0.04 0,0.03 -0.01,0.03 0,0.02 0,0.02 0,0.01 0,0.02 0,0.01 0,0.02 -0.01,0.01 0,0.01 0,0.02 -0.01,0.01 0,0.01 -0.01,0.01 -0.01,0.02 0,0.01 -0.01,0.01 -0.01,0.01 -0.01,0 -0.01,0.01 -0.01,0.01 0,0 -0.01,0.01 -0.01,0 0,0 -0.01,0 -0.01,0 0,0.01 -0.01,0 -0.01,0 -0.01,0 -0.01,0 0,0 -0.01,0 -0.01,0 c -0.2,0 -0.2,-0.18 -0.2,-0.36 v -9.24 c 0,-0.18 0,-0.36 0.2,-0.36 0.2,0 0.2,0.18 0.2,0.36 z"
           style="fill:#000000;stroke-width:0" /></g>    </g>
  </g>
</svg>
